<?xml version="1.0" encoding="utf-8"?><svg xmlns="http://www.w3.org/2000/svg" viewBox="0 0 452.383 209.707"><defs><style>.cls-1,.cls-9{fill:#ffe127;}.cls-1{opacity:0.15;}.cls-2{fill:#eacd19;}.cls-3,.cls-7{fill:#066d78;}.cls-12,.cls-13,.cls-4{fill:#13575f;}.cls-10,.cls-11,.cls-14,.cls-15,.cls-17,.cls-5{fill:none;}.cls-5{opacity:0.23;isolation:isolate;}.cls-6{fill:#dcf0f2;}.cls-15,.cls-7{stroke:#066d78;}.cls-10,.cls-11,.cls-7{stroke-linecap:round;}.cls-10,.cls-11,.cls-13,.cls-7{stroke-linejoin:round;}.cls-10,.cls-11,.cls-12,.cls-13,.cls-14,.cls-15,.cls-7{stroke-width:0.324px;}.cls-8{fill:#fff;opacity:0.3;}.cls-10{stroke:#dcf0f2;}.cls-11,.cls-12,.cls-13,.cls-14,.cls-17{stroke:#13575f;}.cls-12,.cls-14,.cls-15,.cls-17{stroke-miterlimit:10;}.cls-16{fill:#f8db01;}.cls-17{stroke-width:0.971px;}</style></defs><g id="Layer_2" data-name="Layer 2"><g id="Layer_1-2" data-name="Layer 1"><path class="cls-1" d="M423.153,112.771c-.8-1.376-1.531-2.768-2.212-4.172-11.311-23.3-6.915-49.625-25.175-71.418C378.388,16.442,344.267,4.65,310.652,1.4c-46.3-4.471-98.874,3.144-139.056,19.425-21.34,8.646-38.029,20.579-51.211,34.906-7.177,7.8-15.266,15.748-27.524,20.086-12.8,4.528-28.478,4.5-42.268,6.869C13.342,89.087-2.121,114.351.232,138.841c1.852,19.274,12.7,38.312,26.887,54.823H54.99l384.855-30.03c-4.917-7.093,5.25-7.28,4.931-20.422C444.349,125.644,432.07,128.161,423.153,112.771Z"/><path class="cls-2" d="M119.008,168.644a30.33,30.33,0,0,1-14.258,25.742c-7.624-.127-13.112-.2-13.112-.2l-19.554-.094a30.36,30.36,0,1,1,46.924-25.444Z"/><polygon class="cls-3" points="346.972 148.905 341.41 148.905 341.393 74.389 346.955 75.173 346.972 148.905"/><polygon class="cls-3" points="401.311 98.389 401.311 103.957 255.977 103.243 255.977 98.389 401.311 98.389"/><polygon class="cls-3" points="324.467 99.306 321.686 99.306 321.682 69.225 324.463 69.726 324.467 99.306"/><rect class="cls-3" x="250.415" y="56.504" width="5.562" height="93.553"/><polygon class="cls-3" points="250.415 102.648 242.076 96.568 242.076 91.651 250.485 97.968 250.415 102.648"/><polygon class="cls-3" points="276.579 98.741 273.798 98.741 273.794 60.393 276.575 60.895 276.579 98.741"/><polygon class="cls-3" points="276.579 98.741 273.798 98.741 273.794 60.393 276.575 60.895 276.579 98.741"/><polygon class="cls-4" points="395.743 81.974 395.743 89.507 358.03 82.708 352.465 81.705 328.349 77.357 325.568 76.855 301.439 72.504 295.877 71.5 268.659 66.592 265.878 66.09 242.076 61.801 242.076 54.267 268.979 59.117 325.568 69.321 328.349 69.823 357.975 75.165 358.027 75.175 395.743 81.974"/><polygon class="cls-4" points="422.828 81.2 415.683 85.57 406.168 91.388 401.312 90.514 395.743 89.507 395.743 81.974 358.027 75.175 357.975 75.165 328.349 69.823 325.568 69.321 268.979 59.117 242.076 54.267 242.076 61.801 236.514 60.797 187.641 51.985 176.828 42.499 168.711 35.38 422.828 81.2"/><path class="cls-5" d="M435.957,163.874c-39.5,14.886-70.855,18.719-92.883,19.286-12.377.314-23.378-.363-44.733,1.35-24.5,1.965-34.388,4.811-60.249,7.773-12.374,1.418-30.316,3.082-52.5,3.72v-.34c-10,.447-19.489.379-30.5.181-22.892-.408-34.337-.612-42.23-.929-13.6-.547-31.487-1.14-53.742-1.535q.2-1.17.437-2.35a243.916,243.916,0,0,1,7.524-27.318c4.442-13.487,9.217-26.648,14.8-39.643A291.614,291.614,0,0,1,103.93,82.124C111,71.1,119.557,56.794,130.089,48.732c7.236-5.591,17.434-7.731,25.66-2.632,8.389,5.265,13.154,16.45,22.863,18.095,7.732,1.149,14.805-4.607,19.409-11.021,5.76-8.061,9.376-17.272,14.805-25.495C220.557,16,235.855,4.813,248.685,16.494c5.756,5.1,8.718,12.5,11.842,19.408,7.732,17.107,17.768,31.747,34.71,40.628,12.5,6.578,27.965,3.289,39.973-3.947,6.413-3.785,12.335-8.718,19.574-10.528,12.992-3.29,21.053,4.111,27.962,13.157,3.289,4.277,6.252,8.884,9.211,12.995a360.694,360.694,0,0,1,24.019,36.684c7.009,12.138,13.377,24.608,19.217,37.316C435.449,162.76,435.7,163.317,435.957,163.874Z"/><path class="cls-6" d="M337.1,32.178c-2,.161-4.5-2.708-4.8-5.633-.37-3.563,2.821-4.389,4.155-9.6,1.133-4.426-.786-5.312.462-9.05,1.254-3.757,5.036-8.385,9.327-7.85,2.909.363,5.913,3.084,5.633,5.264-.417,3.241-7.781,2.883-8.865,7.2-.082.326.161,2.68.646,7.388a12.586,12.586,0,0,1,.185,3.047c-.289,2.157-1.433,3.612-3.509,6.187C338.729,31.118,337.911,32.113,337.1,32.178Z"/><polygon class="cls-4" points="338.619 60.393 335.57 60.393 335.57 33.168 338.619 33.717 338.619 60.393"/><polygon class="cls-3" points="336.497 60.393 335.57 60.393 335.57 33.168 336.497 33.335 336.497 60.393"/><polygon class="cls-4" points="302.155 150.327 301.798 150.327 302.935 142.563 304.05 142.563 302.155 150.327"/><polygon class="cls-4" points="310.703 150.327 311.06 150.327 309.923 142.563 308.807 142.563 310.703 150.327"/><path class="cls-3" d="M303.539,141.255h3.45a4.655,4.655,0,0,0,3.291-1.364l.094-.094a4.653,4.653,0,0,0,1.29-2.469l.338-1.881a10.3,10.3,0,0,1,1.321-3.571c.832-1.159.918-1.143,1.162-1,.057.032.069.135.028.423a18.286,18.286,0,0,1-.563,2.4,9.443,9.443,0,0,0-.262,2.2v2.335a4.654,4.654,0,0,1-4.654,4.655l-7.086.1c-.233.008-1.633.052-1.717-.309-.075-.322.927-.826,1.446-1.037A5.394,5.394,0,0,1,303.539,141.255Z"/><polygon class="cls-4" points="261.942 148.489 261.332 148.489 263.274 135.224 265.18 135.224 261.942 148.489"/><polygon class="cls-4" points="268.906 150.327 268.548 150.327 269.686 142.563 270.801 142.563 268.906 150.327"/><polygon class="cls-4" points="277.453 150.327 277.811 150.327 276.674 142.563 275.558 142.563 277.453 150.327"/><polygon class="cls-4" points="284.041 150.327 283.684 150.327 284.821 142.563 285.936 142.563 284.041 150.327"/><polygon class="cls-4" points="292.589 150.327 292.946 150.327 291.809 142.563 290.694 142.563 292.589 150.327"/><polygon class="cls-4" points="252.427 150.327 252.07 150.327 253.207 142.563 254.322 142.563 252.427 150.327"/><polygon class="cls-4" points="260.974 150.327 261.332 150.327 260.195 142.563 259.079 142.563 260.974 150.327"/><polygon class="cls-4" points="300.783 148.489 301.394 148.489 299.451 135.224 297.546 135.224 300.783 148.489"/><rect class="cls-6" x="252.599" y="132.793" width="57.527" height="0.879"/><rect class="cls-4" x="255.233" y="133.672" width="52.259" height="1.553"/><path class="cls-3" d="M280.039,141.509c-.041.686-1.894,1.064-2.631,1.218a58.224,58.224,0,0,1-8.457,0c-.737-.154-2.58-.532-2.631-1.218-.021-.328.389-.461.809-1,.563-.706.583-1.361.809-2.785a24.02,24.02,0,0,1,.941-4,5.45,5.45,0,0,1,1.28-2.5,5.377,5.377,0,0,1,6.051,0,5.441,5.441,0,0,1,1.27,2.5,23.162,23.162,0,0,1,.942,4c.235,1.424.256,2.079.808,2.785C279.66,141.048,280.06,141.181,280.039,141.509Z"/><path class="cls-3" d="M295.175,141.514c-.041.686-1.894,1.065-2.632,1.219a58.21,58.21,0,0,1-8.456,0c-.738-.154-2.58-.533-2.632-1.219-.02-.327.389-.46.809-1,.563-.706.584-1.362.809-2.785a24.04,24.04,0,0,1,.942-4,5.425,5.425,0,0,1,1.28-2.5,5.377,5.377,0,0,1,6.051,0,5.435,5.435,0,0,1,1.269,2.5,22.976,22.976,0,0,1,.942,4c.236,1.423.256,2.079.809,2.785C294.8,141.054,295.2,141.187,295.175,141.514Z"/><path class="cls-3" d="M259.076,140.931h-3.449a4.655,4.655,0,0,1-3.292-1.363l-.094-.094a4.657,4.657,0,0,1-1.29-2.469l-.337-1.881a10.33,10.33,0,0,0-1.321-3.572c-.833-1.159-.919-1.142-1.163-1-.057.032-.069.135-.028.424a18.323,18.323,0,0,0,.563,2.4,9.445,9.445,0,0,1,.262,2.2v2.334a4.654,4.654,0,0,0,4.655,4.655l7.085.1c.233.009,1.634.053,1.718-.309.074-.322-.928-.826-1.447-1.036A5.375,5.375,0,0,0,259.076,140.931Z"/><path class="cls-7" d="M280.892,130.059c-.009-.093-.693-3.157-.693-3.157a10.973,10.973,0,0,0,.562,1.445c.019-.152.131-1.782.131-1.782s.225,2.52.272,2.445.543-2.174.543-2.174a12.045,12.045,0,0,0,.15,2.174c.122-.141.825-1.265.815-1.227s-.693,1.667-.693,1.667.684-.309.693-.3-.852.862-.852.862"/><path class="cls-7" d="M279.385,128.089l.258.258.256-.256-.1.026a.594.594,0,0,1-.324,0Z"/><circle class="cls-4" cx="279.642" cy="129.273" r="1.001"/><rect class="cls-4" x="277.953" y="129.749" width="5.361" height="3.044" rx="1.522"/><polygon class="cls-4" points="337.799 136.577 334.75 136.577 334.75 74.537 337.799 75.087 337.799 136.577"/><polygon class="cls-3" points="335.677 136.577 334.75 136.577 334.75 70.976 335.677 71.143 335.677 136.577"/><polygon class="cls-4" points="330.86 149.119 330.359 149.119 330.359 143.073 331.361 143.073 330.86 149.119"/><polygon class="cls-4" points="342.2 143.072 342.2 149.119 341.699 149.119 341.252 143.703 341.198 143.072 342.2 143.072"/><path class="cls-3" d="M341.19,143.719a21.069,21.069,0,0,1-9.9.163c-.313-.079-.626-.163-.935-.259a5.8,5.8,0,0,1-3.429-2.33c-2.414-4.226,2.518-13.7,8.757-14.257-5.4,1.871-9.287,10.043-7.1,13.877,1.666,2.923,7.655,3.132,9.188,3.1.066,0,.142,0,.234,0,.041,0,.091,0,.142,0,.363-.008.872-.029,1.465-.083.055,0,.109-.013.167-.017s.142-.012.218-.021h.008c.054,0,.113-.012.167-.021.1-.008.205-.021.309-.037.05,0,.1-.013.15-.021C340.818,143.782,341,143.753,341.19,143.719Z"/><path class="cls-4" d="M340.96,136.57a9.882,9.882,0,0,0-.906-.489,9.073,9.073,0,0,0-2.21-.71,8.019,8.019,0,0,0-1.649-.146,8.461,8.461,0,0,0-1.274.121,9.253,9.253,0,0,0-2.685.923l0,0c-2.222,1.17-3.642,3.036-3.324,4.08.238.785,1.524,1.324,3.253,1.621,3.846.668,9.868.146,11.217-1.441a1.176,1.176,0,0,0,.242-.447C343.862,139.159,342.756,137.656,340.96,136.57Zm.238,6.5.054.631c.318-.092.635-.192.948-.309v-.322Z"/><path class="cls-3" d="M343.62,140.086a1.176,1.176,0,0,1-.242.447c-1.349,1.587-7.371,2.109-11.217,1.441-1.729-.3-3.015-.836-3.253-1.621-.318-1.044,1.1-2.91,3.324-4.08l0,0a9.253,9.253,0,0,1,2.685-.923,8.461,8.461,0,0,1,1.274-.121,8.019,8.019,0,0,1,1.649.146,9.073,9.073,0,0,1,2.21.71,9.882,9.882,0,0,1,.906.489C342.756,137.656,343.862,139.159,343.62,140.086Z"/><path class="cls-4" d="M336.233,127a4.687,4.687,0,0,0-.548.034c-5.4,1.871-9.287,10.043-7.1,13.877,1.666,2.923,7.655,3.132,9.188,3.1.066,0,.142,0,.234,0,.041,0,.091,0,.142,0,.363-.008.872-.029,1.465-.083.055,0,.109-.013.167-.017s.142-.012.218-.021h.008c.054,0,.113-.012.167-.021.1-.008.205-.021.309-.037.05,0,.1-.013.15-.021.18-.021.364-.05.552-.084h.008a.025.025,0,0,1,.017,0l.037-.012-.054-.631h1v.322a6.1,6.1,0,0,0,3.529-2.857C347.922,135.981,342.442,126.973,336.233,127Zm7.387,13.084a1.176,1.176,0,0,1-.242.447c-1.349,1.587-7.371,2.109-11.217,1.441-1.729-.3-3.015-.836-3.253-1.621-.318-1.044,1.1-2.91,3.324-4.08l0,0a9.253,9.253,0,0,1,2.685-.923,8.461,8.461,0,0,1,1.274-.121,8.019,8.019,0,0,1,1.649.146,9.073,9.073,0,0,1,2.21.71,9.882,9.882,0,0,1,.906.489C342.756,137.656,343.862,139.159,343.62,140.086Z"/><path class="cls-2" d="M343.378,140.533c-1.349,1.587-7.371,2.109-11.217,1.441a6.054,6.054,0,0,1-.485-1.545,6.239,6.239,0,0,1-.271-1.984,5.338,5.338,0,0,1,.827-2.172l0,0a8.683,8.683,0,0,1,1.232-.539,14.632,14.632,0,0,0-.355,1.759,1.513,1.513,0,0,0,.159,1.19,1.107,1.107,0,0,0,.785.38,1.524,1.524,0,0,0,1.328-1.424c.029-.506-.3-.581-.455-1.2a2.388,2.388,0,0,1-.009-1.086,8.461,8.461,0,0,1,1.274-.121,8.019,8.019,0,0,1,1.649.146,8.379,8.379,0,0,0-.3,1.14c.067,1.2,1.67,1.491,1.65,2.6-.009.589-.451.839-.272,1.32a.9.9,0,0,0,.915.559c.455-.071.639-.6.689-.743a1.551,1.551,0,0,0-.05-1.082,4.036,4.036,0,0,0-.547-.835,3.619,3.619,0,0,1-.564-.994c-.088-.405.25-.856.685-1.253a9.882,9.882,0,0,1,.906.489,2.638,2.638,0,0,0,.643,2.389c.246.2.292.1.651.321A3.107,3.107,0,0,1,343.378,140.533Z"/><circle class="cls-4" cx="334.159" cy="142.042" r="0.941"/><circle class="cls-4" cx="337.181" cy="142.042" r="0.941"/><circle class="cls-4" cx="338.983" cy="141.411" r="1.301"/><circle class="cls-4" cx="335.509" cy="141.411" r="1.127"/><polygon class="cls-8" points="351.084 96.614 335.425 96.614 302.834 148.905 318.493 148.905 351.084 96.614"/><circle class="cls-9" cx="280.038" cy="119.134" r="1.397"/><polygon class="cls-4" points="280.264 63.64 279.812 63.493 279.812 115.513 280.264 115.513 280.264 63.64"/><path class="cls-2" d="M233.917,99.11v2.53a2.628,2.628,0,0,0-2.459-1.7,2.572,2.572,0,0,0-.625.077v-.9Z"/><path class="cls-4" d="M284.031,119h-7.982a.278.278,0,0,1-.276-.314,2.144,2.144,0,0,1,2.121-1.832h.424a1.1,1.1,0,0,0,1.032-.72l.354-.961a.118.118,0,0,1,.11-.077h.449a.118.118,0,0,1,.11.077l.354.961a1.1,1.1,0,0,0,1.032.72h.424a2.144,2.144,0,0,1,2.124,1.832A.278.278,0,0,1,284.031,119Z"/><polygon class="cls-3" points="168.684 25.91 422.802 71.731 422.802 81.206 168.684 35.385 168.684 25.91"/><rect class="cls-3" x="358.039" y="95.478" width="39.886" height="54.579"/><line class="cls-10" x1="358.039" y1="99.556" x2="397.133" y2="99.556"/><line class="cls-10" x1="358.039" y1="103.011" x2="397.133" y2="103.011"/><line class="cls-10" x1="358.039" y1="106.465" x2="397.133" y2="106.465"/><line class="cls-10" x1="358.039" y1="109.92" x2="397.133" y2="109.92"/><line class="cls-10" x1="358.039" y1="113.374" x2="397.133" y2="113.374"/><line class="cls-10" x1="358.039" y1="116.829" x2="397.133" y2="116.829"/><line class="cls-10" x1="358.039" y1="120.283" x2="397.133" y2="120.283"/><line class="cls-10" x1="358.039" y1="123.738" x2="397.133" y2="123.738"/><line class="cls-10" x1="358.039" y1="99.556" x2="397.133" y2="99.556"/><line class="cls-10" x1="358.039" y1="103.011" x2="397.133" y2="103.011"/><line class="cls-10" x1="358.039" y1="106.465" x2="397.133" y2="106.465"/><line class="cls-10" x1="358.039" y1="109.92" x2="397.133" y2="109.92"/><line class="cls-10" x1="358.039" y1="113.374" x2="397.133" y2="113.374"/><line class="cls-10" x1="358.039" y1="116.829" x2="397.133" y2="116.829"/><line class="cls-10" x1="358.039" y1="120.283" x2="397.133" y2="120.283"/><line class="cls-10" x1="358.039" y1="123.643" x2="397.133" y2="123.643"/><line class="cls-10" x1="358.039" y1="127.002" x2="397.133" y2="127.002"/><line class="cls-10" x1="358.039" y1="130.362" x2="397.133" y2="130.362"/><line class="cls-10" x1="358.039" y1="133.721" x2="397.133" y2="133.721"/><line class="cls-10" x1="358.039" y1="137.081" x2="397.133" y2="137.081"/><line class="cls-10" x1="358.039" y1="140.44" x2="397.133" y2="140.44"/><line class="cls-10" x1="358.039" y1="143.8" x2="397.133" y2="143.8"/><line class="cls-10" x1="358.039" y1="147.159" x2="397.133" y2="147.159"/><line class="cls-10" x1="358.039" y1="123.738" x2="397.133" y2="123.738"/><line class="cls-11" x1="447.391" y1="116.985" x2="447.391" y2="103.237"/><line class="cls-10" x1="430.319" y1="110.177" x2="430.319" y2="112.719"/><line class="cls-10" x1="438.19" y1="110.075" x2="438.19" y2="111.448"/><line class="cls-10" x1="432.167" y1="111.448" x2="432.167" y2="114.577"/><line class="cls-10" x1="430.319" y1="114.577" x2="430.319" y2="117.999"/><line class="cls-10" x1="434.015" y1="109.933" x2="434.015" y2="118.259"/><line class="cls-10" x1="436.381" y1="113.453" x2="436.381" y2="115.848"/><line class="cls-10" x1="438.19" y1="112.719" x2="438.19" y2="116.288"/><line class="cls-10" x1="436.381" y1="108.564" x2="436.381" y2="110.769"/><path class="cls-12" d="M420.559,164.813l-2.1,3.38a7.013,7.013,0,0,1-5.235,3.27L220.835,191.289s-66.427,4.892-70.651,4.248c-2.885-.44-29.135-.936-45.513-1.2-7.624-.127-13.112-.2-13.112-.2l-19.554-.094-18.215-.088,9.12-9.123,2.432-2.431a7.02,7.02,0,0,1,4.96-2.053h38.2a7.014,7.014,0,0,0,4.96-2.056l5.125-5.125,6.2-6.2a7.011,7.011,0,0,1,4.96-2.053H154.68a7.01,7.01,0,0,1,4.96,2.053l5.462,5.465a7.025,7.025,0,0,0,4.96,2.052h75.624a7.013,7.013,0,0,0,4.957-2.052l3.415-3.416a7.016,7.016,0,0,1,4.96-2.052h46.215a7.022,7.022,0,0,0,4.96-2.056,7.01,7.01,0,0,1,4.96-2.056h42.058a7.01,7.01,0,0,0,4.96-2.053l4.649-4.649a7.015,7.015,0,0,1,4.957-2.052h42.829A7.012,7.012,0,0,1,420.559,164.813Z"/><path class="cls-6" d="M410.043,163.494c-12.043,2.913-53.923,14.918-76.382,18.013-38.247,5.274-46.38-.2-83.116,5.64-7.041,1.12-12.179,2.159-16.634,3.127s-8.207,1.868-12.5,2.71c-4.927.968-10.547,1.858-18.7,2.687-6.177.628-11.862,1.033-17.392,1.279-10,.447-19.49.379-30.5.181-22.892-.408-34.337-.612-42.23-.929-13.6-.547-31.488-1.14-53.742-1.535q-16.26-.3-35.632-.421c8.893-.786,21.238-1.647,36.069-1.929q2.7-.054,5.513-.078c11.14-.1,19.347.2,35.755.8,8.5.311,16.411.683,25.1.978s18.166.515,29.817.515a306.269,306.269,0,0,0,59.975-5.711c3.415-.7,14.316-3.05,27.664-6.423h0c15.8-4,20.513-5.779,29.646-6.916,10.3-1.282,13.131-.123,27.172,0,15.116.13,27.81.094,55.339-3.953,6.912-1.016,31.332-6.378,46.853-7.754,1.58-.139,3.069-.239,4.438-.284C407.836,163.448,409,163.445,410.043,163.494Z"/><path class="cls-4" d="M440.032,163.494q-2.184.853-4.341,1.667c-39.5,14.886-70.856,18.719-92.884,19.286-12.377.314-23.378-.363-44.732,1.35-24.5,1.965-34.389,4.811-60.25,7.773-12.374,1.418-30.316,3.082-52.5,3.72v-.34c0-.45,0-.9.006-1.353a191.156,191.156,0,0,0,24.647-1.014c4.141-.44,7.923-.981,11.435-1.6,4.565-.8,8.67-1.722,12.5-2.71,9.521-2.451,17.337-5.28,26.279-7.517,22.928-5.74,31.462-2.14,61.622-4.057a347.758,347.758,0,0,0,80.316-14.922q.467-.139.932-.284Z"/><rect class="cls-3" x="168.711" y="151.277" width="234.971" height="6.275"/><rect class="cls-4" x="162.783" y="148.489" width="240.899" height="3.138"/><rect class="cls-3" x="183.434" y="157.552" width="5.568" height="39.738"/><path class="cls-3" d="M242.076,157.552V195.59c-1.808-.131-3.662-.278-5.562-.463V157.552Z"/><path class="cls-3" d="M295.154,157.552V193.01c-1.753.34-3.592.672-5.562.989V157.552Z"/><path class="cls-3" d="M348.233,157.552v33.789c-1.877-.177-3.708-.37-5.57-.563V157.552Z"/><path class="cls-3" d="M401.312,157.158V178.7c-.286.069-.579.146-.873.216-.626.154-1.259.3-1.916.456-.9.208-1.831.417-2.781.618V157.158Z"/><polygon class="cls-4" points="213.499 194.173 207.932 194.79 207.932 157.552 213.499 157.552 213.499 194.173"/><rect class="cls-4" x="259.067" y="157.552" width="5.568" height="31.791"/><polygon class="cls-4" points="315.778 181.141 310.211 181.715 310.211 157.552 315.778 157.552 315.778 181.141"/><rect class="cls-4" x="367.165" y="157.552" width="5.568" height="19.472"/><path class="cls-6" d="M115.357,207.5c27.455,1.183,47.719-1.2,61.447-3.729,8.627-1.586,16.829-3.622,29.82-3.91,18.132-.4,19.069,1.614,31.775.977a110.8,110.8,0,0,0,28.842-5.377,73.312,73.312,0,0,1-19.36,6.648,97.887,97.887,0,0,1-20.959,1.37c-8.374-.165-8.832-.972-16.3-.959-4.683.007-8.963.338-18.63,1.644-9.3,1.255-13.95,1.883-23.789,3.713C158.071,209.764,141.817,210.962,115.357,207.5Z"/><path class="cls-6" d="M319.06,191.471a46.462,46.462,0,0,1,19.3-2.086c4.46.5,6.733,1.49,12.258,2.086a63.507,63.507,0,0,0,15.649-.261,40.258,40.258,0,0,1-13.041,2.348c-6.337.061-9.629-1.472-16.04-2.348A62.221,62.221,0,0,0,319.06,191.471Z"/><path class="cls-3" d="M137.879,194.357a108.3,108.3,0,0,0,1.419-23.539,111.325,111.325,0,0,0-13.488-47.483l2.859-1.575a165.306,165.306,0,0,1,9.781,24.555,163.988,163.988,0,0,1,7.349,48.166"/><path class="cls-4" d="M126.219,119.482a3.106,3.106,0,0,1,.1-.726,3.422,3.422,0,0,0-1.464-.342,3.275,3.275,0,0,0-.423.039l-2.813,2.342a3.046,3.046,0,0,0-.127.819,3.284,3.284,0,0,0,3.337,3.227,3.321,3.321,0,0,0,3.267-2.475A3.2,3.2,0,0,1,126.219,119.482Z"/><path class="cls-4" d="M129.852,116.516l-3.042.278a3.173,3.173,0,0,0-1.545,2.688,3.353,3.353,0,0,0,6.7.026A3.213,3.213,0,0,0,129.852,116.516Z"/><path class="cls-7" d="M157.427,118.641c-1.239-.965-9.12-7.488-15.707-7.549s-15.538,6.886-15.538,6.886l9.9-.905v-1.326l10.2,2.231v-1.93Z"/><path class="cls-7" d="M141.217,99.468l11.37-7.079c-1.823.227-12.963,2.283-19.245,6.752-5.657,4.024-8.258,12.692-8.067,16.584.716.766,1.068,1.43.975,1.89l7.374-8.857-1.1-1.1,10.288-6.595Z"/><path class="cls-7" d="M104.557,140.642c.194-1.558,1.154-11.744,5.769-16.445s15.856-6.118,15.856-6.118l-7.638,6.359-.939-.938-5.635,8.791-1.364-1.365Z"/><path class="cls-7" d="M89.615,118.641c1.449-1.129,10.8-7.419,18.382-8.834,8.844-1.652,19.53,6.184,18.185,8.058L114.6,116.806v-1.552l-11.938,2.611v-2.259Z"/><path class="cls-13" d="M101.085,153.752a1.72,1.72,0,0,0,0-.406,1.9,1.9,0,0,1,.831-.089,1.979,1.979,0,0,1,.231.051l1.389,1.484a1.681,1.681,0,0,1,.014.46,1.824,1.824,0,0,1-2.061,1.549,1.842,1.842,0,0,1-1.63-1.588A1.776,1.776,0,0,0,101.085,153.752Z"/><path class="cls-13" d="M99.286,151.868l1.658.362a1.765,1.765,0,0,1,.667,1.588,1.863,1.863,0,0,1-3.7-.446A1.785,1.785,0,0,1,99.286,151.868Z"/><path class="cls-13" d="M83.942,151.147c.749-.447,5.541-3.5,9.175-3.083s8.091,4.862,8.091,4.862l-5.392-1.178.091-.731-5.776.529.133-1.063Z"/><path class="cls-13" d="M94.192,141.692l-5.781-4.682c.99.25,6.989,2.148,10.144,5.042,2.842,2.607,3.68,7.562,3.308,9.694-.448.373-.687.715-.667.975l-3.456-5.388.68-.529L93.2,142.463Z"/><path class="cls-13" d="M111.571,166.9c0-.872.17-6.552-2.05-9.459s-8.319-4.461-8.319-4.461l3.773,4.03.581-.453,2.5,5.232.846-.659Z"/><path class="cls-13" d="M121.317,155.8c-.722-.722-5.446-4.831-9.525-6.131-4.761-1.517-11.188,2.068-10.576,3.193l6.457.212.107-.856,6.4,2.259.155-1.245Z"/><path class="cls-4" d="M100.237,154.526c-.5-.574-18.141,9.059-15.356,37.97l3.646.117s-5.154-26.78,12.706-37.32"/><rect class="cls-4" x="182.765" y="157.552" width="6.906" height="1.821"/><rect class="cls-4" x="207.262" y="157.552" width="6.906" height="1.821"/><rect class="cls-4" x="235.842" y="157.552" width="6.906" height="1.821"/><rect class="cls-4" x="258.398" y="157.552" width="6.906" height="1.821"/><rect class="cls-4" x="288.92" y="157.552" width="6.906" height="1.821"/><rect class="cls-4" x="309.533" y="157.552" width="6.906" height="1.821"/><rect class="cls-4" x="341.995" y="157.552" width="6.906" height="1.821"/><path class="cls-3" d="M452.22,116.826v55.512c-.912,0-1.846.008-2.781.023a213.948,213.948,0,0,0-24.179,1.669q-4.926.626-9.541,1.429c-5.091.873-9.9,1.892-14.407,3v.24c-.286.069-.579.146-.873.216-.626.154-1.259.3-1.916.456-.9.208-1.831.417-2.781.618v-63.16Z"/><path class="cls-12" d="M398.523,116.826v62.542c-.9.208-1.831.417-2.781.618v-63.16Z"/><line class="cls-10" x1="397.924" y1="123.643" x2="450.829" y2="123.643"/><line class="cls-10" x1="397.924" y1="127.097" x2="450.829" y2="127.097"/><line class="cls-10" x1="397.924" y1="130.552" x2="450.829" y2="130.552"/><line class="cls-10" x1="397.924" y1="134.006" x2="450.829" y2="134.006"/><line class="cls-10" x1="397.924" y1="137.461" x2="450.829" y2="137.461"/><line class="cls-10" x1="397.924" y1="140.915" x2="450.829" y2="140.915"/><line class="cls-10" x1="397.924" y1="144.37" x2="450.829" y2="144.37"/><line class="cls-10" x1="397.924" y1="147.824" x2="450.829" y2="147.824"/><line class="cls-10" x1="397.924" y1="151.279" x2="450.829" y2="151.279"/><line class="cls-10" x1="397.924" y1="154.733" x2="450.829" y2="154.733"/><line class="cls-10" x1="397.924" y1="158.188" x2="450.829" y2="158.188"/><line class="cls-10" x1="397.924" y1="161.642" x2="450.829" y2="161.642"/><line class="cls-10" x1="397.924" y1="165.097" x2="450.829" y2="165.097"/><line class="cls-10" x1="397.924" y1="168.551" x2="450.829" y2="168.551"/><line class="cls-10" x1="397.924" y1="172.006" x2="450.829" y2="172.006"/><polyline class="cls-10" points="415.719 175.459 403.606 175.459 401.312 175.459 398.523 175.459 397.921 175.459"/><polyline class="cls-10" points="400.439 178.912 399.489 178.912 398.523 178.912 397.921 178.912"/><path class="cls-12" d="M452.22,116.826v55.512c-.912,0-1.846.008-2.781.023V116.826Z"/><rect class="cls-12" x="422.589" y="89.978" width="2.785" height="56.479" transform="translate(542.2 -305.764) rotate(90)"/><path class="cls-14" d="M445.976,118.218V107.789a4.552,4.552,0,0,0-4.552-4.552h-2.56a4.552,4.552,0,0,0-4.552,4.552h-2.191"/><path class="cls-12" d="M438.646,108.727h-8.783a.591.591,0,0,1-.589-.589h0c0-.324,4.772-1.371,5.1-1.371h0c.324,0,4.865,1.047,4.865,1.371h0A.591.591,0,0,1,438.646,108.727Z"/><line class="cls-11" x1="445.976" y1="109.233" x2="447.391" y2="109.233"/><line class="cls-11" x1="445.976" y1="113.966" x2="447.391" y2="113.966"/><polygon class="cls-3" points="395.043 180.371 395.673 180.165 395.673 116.44 395.043 116.604 395.043 180.371"/><line class="cls-15" x1="337.799" y1="75.655" x2="410.204" y2="88.745"/><polyline class="cls-15" points="182.765 47.649 236.514 57.343 335.09 75.165"/><polyline class="cls-15" points="392.217 85.5 397.785 86.504 397.785 86.507 410.204 88.745"/><line class="cls-15" x1="398.965" y1="82.487" x2="414.916" y2="85.362"/><polygon class="cls-4" points="358.027 75.175 357.975 75.165 358.027 75.172 358.027 75.175"/><polygon class="cls-4" points="358.043 148.905 352.481 148.905 352.471 97.015 352.468 91.65 352.465 72.963 358.03 73.967 358.03 97.041 358.043 148.905"/><polygon class="cls-4" points="398.527 91.651 398.527 97.219 236.514 96.504 236.514 91.651 398.527 91.651"/><polygon class="cls-4" points="242.076 54.267 242.076 150.058 236.514 150.058 236.514 53.263 242.076 54.267"/><rect class="cls-3" x="236.212" y="53.263" width="0.634" height="95.225"/><polygon class="cls-4" points="301.455 150.327 295.893 150.327 295.883 89.42 295.883 84.305 295.877 63.567 301.439 64.571 301.442 84.305 301.445 89.446 301.455 150.327"/><polygon class="cls-4" points="268.662 91.65 268.662 94.435 265.881 94.435 265.881 91.65 265.878 58.347 268.659 58.848 268.662 91.65"/><polygon class="cls-8" points="291.743 63.222 277.66 60.682 268.661 74.955 268.662 91.65 274.025 91.651 291.743 63.222"/><polygon class="cls-4" points="321.682 64.208 324.463 64.208 324.466 86.141 321.685 85.64 321.682 64.208"/><polygon class="cls-4" points="328.349 69.823 325.568 69.321 325.568 69.224 328.349 69.726 328.349 69.823"/><polygon class="cls-4" points="328.352 91.65 328.352 93.871 325.571 93.871 325.571 91.65 325.568 69.191 328.349 69.693 328.352 91.65"/><polygon class="cls-8" points="341.911 72.268 327.768 69.718 324.466 74.955 324.468 91.65 329.83 91.651 341.911 72.268"/><polygon class="cls-4" points="401.312 82.977 401.312 118.188 395.743 118.188 395.743 81.974 401.312 82.977"/><polygon class="cls-8" points="290.444 96.614 274.785 96.614 242.076 148.489 258.113 148.489 290.444 96.614"/><rect class="cls-4" x="246.072" y="96.568" width="0.362" height="51.92"/><rect class="cls-4" x="245.756" y="125.842" width="1.049" height="3.432" rx="0.525"/><polygon class="cls-4" points="176.953 143.056 193.924 148.615 193.924 146.144 176.953 140.275 176.953 143.056"/><polygon class="cls-4" points="198.432 132.998 193.924 132.166 194.574 128.347 199.165 128.347 198.432 132.998"/><polygon class="cls-3" points="198.051 132.166 193.439 132.166 194.09 128.347 198.68 128.347 198.051 132.166"/><polygon class="cls-4" points="191.908 143.792 188.093 142.486 193.841 132.998 198.432 132.998 191.908 143.792"/><polygon class="cls-3" points="191.24 143.552 187.425 142.245 193.093 132.998 197.684 132.998 191.24 143.552"/><rect class="cls-4" x="180.278" y="136.199" width="13.622" height="0.698"/><rect class="cls-4" x="184.91" y="136.199" width="13.622" height="0.698"/><rect class="cls-3" x="177.918" y="136.199" width="2.361" height="0.698"/><rect class="cls-3" x="182.55" y="136.199" width="2.361" height="0.698"/><rect class="cls-4" x="184.094" y="136.897" width="2.532" height="11.535"/><rect class="cls-4" x="179.678" y="136.897" width="2.532" height="11.535"/><polygon class="cls-4" points="181.561 142.997 198.532 148.555 198.532 146.085 181.561 140.215 181.561 142.997"/><rect class="cls-3" x="183.366" y="136.897" width="0.727" height="11.535"/><rect class="cls-3" x="178.95" y="136.897" width="0.727" height="11.535"/><rect class="cls-3" x="176.953" y="140.275" width="4.608" height="2.722"/><polygon class="cls-4" points="198.432 132.998 193.23 132.998 193.576 132.166 198.432 132.166 198.432 132.998"/><path class="cls-4" d="M236.514,93.05h0a0,0,0,0,1,0,0v3.618a0,0,0,0,1,0,0h0a.942.942,0,0,1-.942-.942V93.992a.942.942,0,0,1,.942-.942Z"/><path class="cls-16" d="M233.917,101.64v2.177a1.546,1.546,0,0,1-1.542,1.542,1.518,1.518,0,0,1-.72-.179,1.547,1.547,0,0,1-.822-1.363v-3.8a2.572,2.572,0,0,1,.625-.077A2.628,2.628,0,0,1,233.917,101.64Z"/><path class="cls-17" d="M236.043,94.859h-1.609a2.059,2.059,0,0,0-2.059,2.059v1.823"/><path class="cls-3" d="M234.322,99.306h-3.894a.378.378,0,0,1-.376-.377v-.163c0-.207.169-.377.5-.377h3.894a.394.394,0,0,1,.251.377v.163A.378.378,0,0,1,234.322,99.306Z"/><rect class="cls-4" x="333.928" y="31.118" width="6.332" height="4.1"/><rect class="cls-3" x="351.855" y="97.014" width="0.634" height="51.475"/><polygon class="cls-3" points="295.424 148.489 296.055 148.489 296.003 96.766 295.365 96.764 295.424 148.489"/><polygon class="cls-3" points="295.424 91.651 296.055 91.651 296.002 63.99 295.365 63.875 295.424 91.651"/><polygon class="cls-3" points="265.351 91.63 265.982 91.63 265.929 58.625 265.292 58.45 265.351 91.63"/><polygon class="cls-3" points="321.051 91.651 321.682 91.651 321.629 68.618 320.991 68.503 321.051 91.651"/><polygon class="cls-3" points="351.888 91.651 352.519 91.651 352.466 74.177 351.829 74.062 351.888 91.651"/><polygon class="cls-4" points="250.45 63.316 255.942 63.316 255.942 75.175 250.45 74.185 250.45 63.316"/><polygon class="cls-4" points="341.437 79.433 346.928 79.433 346.928 91.291 341.437 90.301 341.437 79.433"/><polyline class="cls-15" points="176.828 42.499 236.514 53.263 415.683 85.57"/><path class="cls-4" d="M383.265,125.615c0,10.46-2.551,19.386-6.142,22.876-1.042,1.013-2.175-3.056-3.354-3.056V101.172S383.265,112.118,383.265,125.615Z"/><path class="cls-6" d="M373.771,102.15c-2.276,2.968-8.716,12.351-8.716,23.465,0,10.379,2.513,19.247,6.058,22.792l.006.006a.533.533,0,0,1-.79-.006c-3.545-3.545-6.057-12.413-6.057-22.792,0-13.5,9.5-24.443,9.5-24.443Z"/><path class="cls-3" d="M373.771,102.15v43.285c-.923,0-1.81,2.324-2.652,2.978l-.006-.006c-3.545-3.545-6.058-12.413-6.058-22.792C365.055,114.5,371.5,105.118,373.771,102.15Z"/><path class="cls-6" d="M150.784,167.693l-.422,1.134.6.643a1.068,1.068,0,0,0,.582.321h0a.851.851,0,0,0,1-.72l.19-1.378"/><path class="cls-6" d="M155.439,171c.488.907.916,1.626,1.22,2.12a14.45,14.45,0,0,1,1.156,1.984c.416.954.609,1.551.609,1.551a5.473,5.473,0,0,0,.376.988c.158.3.262.385.412.718a5.9,5.9,0,0,1,.25.746c.11.371.129.474.284,1.026a5.738,5.738,0,0,0,.239.763,3.856,3.856,0,0,0,.369.655,3.118,3.118,0,0,1,.335,1.031c.084.377.219.984.073,1.048-.175.077-.648-.193-.845-.595-.087-.178-.108-.36-.2-.367-.127-.011-.2.358-.333.348s-.183-.327-.2-.394a2.487,2.487,0,0,1-.008-.613A1.228,1.228,0,0,0,159,181.3a10.877,10.877,0,0,1-.56-1.08,14.794,14.794,0,0,0-.832-1.959c-.137-.222-.109-.14-.575-.827-.23-.339-.278-.41-.672-1.012-.273-.417-.448-.688-.72-1.059-.143-.2-.358-.483-.639-.82"/><path class="cls-3" d="M142.683,169.5c-.2-1.49.11-2.095.464-2.361.544-.409,1.13.026,1.916-.447.61-.367.43-.733,1.209-1.562a18.854,18.854,0,0,1,1.785-1.357c1.02-.84.838-.936,1.376-1.265a3.863,3.863,0,0,1,3.18-.372,3.384,3.384,0,0,1,2.009,4.817c-.289.532-.464.429-1.246,1.394-.974,1.2-.811,1.5-1.284,1.823-1.128.78-2.27-.748-4.277-.391-1.929.343-2.546,2.052-3.686,1.752C143.315,171.311,142.9,170.248,142.683,169.5Z"/><path class="cls-4" d="M113.984,206.117s-.826.7-.528.964a21.028,21.028,0,0,0,2.892,1.824c.526.173.792-.229.207-.872A4.874,4.874,0,0,1,115.3,206.4C115.166,205.876,113.984,206.117,113.984,206.117Z"/><path class="cls-4" d="M126.848,207.61a11.4,11.4,0,0,0,1.942.865c.78.215.686.573.181.6a21.759,21.759,0,0,1-3.488,0,1.878,1.878,0,0,1,.126-1.382A1.41,1.41,0,0,1,126.848,207.61Z"/><path class="cls-2" d="M120.915,185.6c-.187,1.369,1.261,3.9,2.32,6.368.82,1.909.564,3.781.939,5.038q.657,5.327,1.315,10.652a.181.181,0,0,0,.184.177l1.221-.146a.2.2,0,0,0,.153-.211c-.022-4.392.165-7.915.347-10.378a48.266,48.266,0,0,0,.248-5.926,34.919,34.919,0,0,0-1.04-7.332"/><path class="cls-6" d="M128.421,182.272c-.079.664-.366,1.449-.038,1.759a.387.387,0,0,0,.261.092c.7.029.881,1.116.8,1.584s.993.68,1.227.067.625-2.621-.457-3.7c-.089-.586-.157-1.061-.2-1.371a14.358,14.358,0,0,0-.692-3.659c-.17-.418-.212-.406-.316-.732a5.945,5.945,0,0,1-.139-2.295,16.148,16.148,0,0,0-.237-2.274c-.233-1.694-.968-4.9-1.677-4.9-.242,0-.792.379-1.431,4.5a6.843,6.843,0,0,0,1.493,4.818,11.672,11.672,0,0,0,.509,3.058C128.026,180.818,128.549,181.2,128.421,182.272Z"/><path class="cls-3" d="M132.749,206.44s-.793.852-.379,1.171,1.586,1.3,2.153,1.148.9-.615.367-1.1a11.987,11.987,0,0,1-1.029-1.16A6.207,6.207,0,0,0,132.749,206.44Z"/><path class="cls-3" d="M135.86,207.41s-.248.994-.059,1.172.154.2.97.193,2.011.093,1.905-.207-.6-.554-.864-.732a6.366,6.366,0,0,0-.911-.426"/><path class="cls-6" d="M129.083,184.257a.394.394,0,0,0-.613.227.505.505,0,0,0,.045.409c.216.317.46,1.032.892,1.036.466,0-.2-1.584-.3-1.651C129.1,184.274,129.093,184.265,129.083,184.257Z"/><path class="cls-4" d="M132.918,197.917a3.408,3.408,0,0,0,.428,2.743,9.908,9.908,0,0,1,1.02,1.8c-.207.419-.255.7-.442,1.062-.315.609-.223.353-.826,1.483-.677,1.268-.64,1.529-.539,1.641.077.087.291.095.719.113a1.752,1.752,0,0,0,.764-.045c.469-.254.759-1.28,1.032-1.684.126.381.084,1.086.228,1.616s.046.921.292,1.057c.089.049.138.018.405,0,.686-.046.917.121,1.079-.023.2-.177.069-.627.022-.787a15.333,15.333,0,0,1-.715-3.826A6.847,6.847,0,0,0,137.55,201a9.659,9.659,0,0,0,.877-3.507"/><path class="cls-2" d="M131.205,185.54c.633.4.589.788,1.181,1a3.178,3.178,0,0,0,1.263.142,12.207,12.207,0,0,1,4.706.489,3.784,3.784,0,0,0,2.181.3c.091-.02.164-.04.2-.052a4.612,4.612,0,0,0,1.752-1.019,6.893,6.893,0,0,1,2.1-1.643,1.688,1.688,0,0,1,1.23.672c.326.548-1.058,1.611-1.269,2.026a5.392,5.392,0,0,1-3.039,2.347c-1.143.4-1.469.1-2,.469-1.045.736-1.122,2.891-.652,4.359a4.52,4.52,0,0,1,.387,1.854,2.1,2.1,0,0,1-.428,1.386c-.521.536-1.2.164-3,.2-1.919.043-2.474.5-3.219,0a2.81,2.81,0,0,1-.957-1.487,6.3,6.3,0,0,1-.285-2.628,17.541,17.541,0,0,1,.387-3.259c.12-.516.248-.941.346-1.243-.69-.7-1.265-1.239-1.65-1.589-.863-.785-1.234-1.053-1.243-1.528a1.2,1.2,0,0,1,.754-1.1A1.517,1.517,0,0,1,131.205,185.54Z"/><path class="cls-6" d="M134.729,186.437a2.484,2.484,0,0,1-.733-2.771c.038-.124.513-1.61,1.67-1.731a2.143,2.143,0,0,1,1.691.835,2.967,2.967,0,0,1,.693,1.813,1.961,1.961,0,0,1-.163,1.344c-.508.767-1.755.713-2.221.693A1.882,1.882,0,0,1,134.729,186.437Z"/><path class="cls-3" d="M133.76,185.169c-.369-.254-.3-.882-.254-1.285a2.684,2.684,0,0,1,.763-1.795c.8-.7,1.483-.071,2.953-.84.316-.166.706-.416.84-.293s-.2.477-.128,1.006c.078.587.572.776.471,1.056-.107.3-.768.338-1.094.357-.767.043-.988-.2-1.375,0-.211.107-.34.305-.6.7-.412.631-.359.866-.662,1.056A.888.888,0,0,1,133.76,185.169Z"/><path class="cls-3" d="M148.74,182.316c-2.231,1.814-1.263,9.519-.884,12.3a9.81,9.81,0,0,1,.1,1.848,10.326,10.326,0,0,1-.729,3.356c-.457,1.233-.818,3.271-.292,6.76l1.556.048c.323-1.263.829-3.175,1.508-5.5.986-3.368,1.356-4.358,1.8-6.128a40.732,40.732,0,0,0,1.155-7.885A17.347,17.347,0,0,1,154.1,189.6c.37.993.781,1.65.85,1.93.92,2.152,1.755,4.8,2.114,5.965a60.746,60.746,0,0,1,2.071,9.621l1.556-.39a64.255,64.255,0,0,0-.243-8.219c-.151-1.607-.576-3.571-1.361-7.44-1.55-7.632-2.062-9.008-2.332-8.975-.145.018-2.158-1.04-2.42-.692C153.241,182.856,150.757,180.677,148.74,182.316Z"/><path class="cls-6" d="M144.43,182.017a6.281,6.281,0,0,0-.014,1.479c.043.646-.349,1.4.5,1.711s.99.094,1.087-.333-.22-.571.13-.687-.339-1.479-.305-2.029"/><path class="cls-2" d="M155.5,173.511a16.64,16.64,0,0,0,.014,2.695,12.071,12.071,0,0,0,.229,1.579,13.334,13.334,0,0,0,.775,2.225c1.039,2.6,1.05,2.923.887,3.092-.238.245-.628-.117-1.567-.121-1.224-.006-1.372.6-2.658.776-1.475.2-1.761-.524-2.788-.1a11.859,11.859,0,0,0-1.685,1.178c-.839.632-.99.792-1.161.731-.433-.155-.288-1.492-.172-3.152a34.6,34.6,0,0,0,.182-5.113c-.3-2.849-1.443-3.163-1.141-5.3.02-.137.415-2.735,1.826-3.15a7.244,7.244,0,0,1,2.108-.03c.527.035.5.063.91.079,1.178.049,1.5-.182,2.125-.116a2.935,2.935,0,0,1,1.959,1.173C155.969,170.8,155.615,171.933,155.5,173.511Z"/><path class="cls-6" d="M145.163,183.871c.03-.106.928.146.955.273s.476.471.256.942a.626.626,0,0,1-.953.237"/><path class="cls-4" d="M146.527,203.931a.211.211,0,0,0-.192.281,4.8,4.8,0,0,1,.313,2.361,11.818,11.818,0,0,0,0,1.745.63.63,0,0,0,.126.469c.223.227.639.073,1.111,0,1.343-.21,1.918.422,2.379,0a.822.822,0,0,0,.19-.945c-.128-.19-.368-.16-.761-.285-.076-.025-.149-.052-.218-.081a1.024,1.024,0,0,1-.606-1.165c.124-.561.29-1.392.38-2.18C149.277,203.875,147.289,203.908,146.527,203.931Z"/><path class="cls-4" d="M158.776,203.931a.211.211,0,0,0-.192.281,4.8,4.8,0,0,1,.312,2.361,12.1,12.1,0,0,0,0,1.745.635.635,0,0,0,.127.469c.223.227.639.073,1.111,0,1.343-.21,1.918.422,2.378,0a.821.821,0,0,0,.191-.945c-.128-.19-.368-.16-.761-.285-.076-.025-.149-.052-.218-.081a1.024,1.024,0,0,1-.606-1.165c.124-.561.29-1.392.379-2.18C161.526,203.875,159.538,203.908,158.776,203.931Z"/><ellipse class="cls-6" cx="151.951" cy="165.459" rx="2.789" ry="2.069" transform="translate(-29.393 298.049) rotate(-83.609)"/><path class="cls-3" d="M153.965,164.413a.621.621,0,0,1-.612-.054c-.258-.169-.154-.384-.4-.611s-.437-.085-.923-.355c-.293-.162-.253-.232-.44-.3-.559-.2-1.158.335-1.212.258s.361-.57,1-.805a2.187,2.187,0,0,1,1.084-.108,2.4,2.4,0,0,1,1.008.44c.4.268.7.466.762.816A.7.7,0,0,1,153.965,164.413Z"/><path class="cls-6" d="M152.318,168l-.084,1.353a1.762,1.762,0,0,1-.918.184,1.88,1.88,0,0,1-.9-.334,2.324,2.324,0,0,1-.522-.462l.739-1.175"/><path class="cls-6" d="M146.132,172.549a42.128,42.128,0,0,0-1.331,4.056,44.28,44.28,0,0,0-.332,6.268l1.56.8a4.658,4.658,0,0,1-.159-1.864,32.61,32.61,0,0,0,.492-4.084c-.022-.748,1.532-3.05,1.318-4.429"/><path class="cls-2" d="M148.092,168.918s-1.663.263-1.95,1.677-1.1,2.032-.821,2.264,2.354,1.213,2.9.81"/><path class="cls-6" d="M134.8,185.6c-.024.143-.241,1.025-.241,1.025a1.788,1.788,0,0,0,1.247,1.047c.925.189.989-.076,1.094-.2.249-.3.2-1.546.2-1.546"/><path class="cls-2" d="M154.725,174.781s1.046-1.122,1.72-1.016,1.045.627,1.034.075A12.077,12.077,0,0,0,155,169.58"/><path class="cls-2" d="M123.618,187.089s3.7.413,3.09-2.811-.685-4.2-.685-4.2-2.57-.207-2.87-.207-7.371-.26-7.371-.26-.7.343-.912,2.748a37.962,37.962,0,0,0,2.028,13.4,14.1,14.1,0,0,0-1.238,2.444,23.146,23.146,0,0,0-1.04,4.033c-.194.948-.434,2.18-.685,3.638a.355.355,0,0,0,.209.41l1.049.3a.248.248,0,0,0,.279-.115,29.05,29.05,0,0,0,2.367-4.358,38.974,38.974,0,0,0,1.931-5.926c1.363-5.2,1.826-8.894,1.019-10.259Z"/><path class="cls-3" d="M116.483,163.669a3.152,3.152,0,0,1,2.477-.34,8.524,8.524,0,0,0,1.634.1,3.221,3.221,0,0,0,.557.11,9.179,9.179,0,0,0,1.891.231,6.8,6.8,0,0,1,2.234.146c.59.169,1.9.319,2.437,1.321.431.807.046,1.544-.509,3.4a28.968,28.968,0,0,0-1.244,6.038,16.924,16.924,0,0,0,0,4.363c.206,1.293.529,2.1.1,2.516-.392.382-1.071.112-2.721-.242a22.14,22.14,0,0,0-4.012-.609c-2.695-.038-3.507,1.088-4.24.543-1.213-.9,1.144-3.65.757-8.794,0-.031-.222-2.952-.142-6.374A3.123,3.123,0,0,1,116.483,163.669Z"/><path class="cls-6" d="M120.622,180.443c.652.789,1,1.051.983,1.489-.013.306-.187.3-.233.614-.12.835,1.006,1.444.834,1.768-.138.26-.957.055-1.046.032a2.337,2.337,0,0,1-1.757-2.281,3.483,3.483,0,0,0-.7-1.308c-.763-.9-1.436-1.881-2.239-2.748a36.541,36.541,0,0,1-3.261-4.216c.051-.153.122-.381.2-.661a14.449,14.449,0,0,0,.343-1.933,6.018,6.018,0,0,1,.562-2.275c.621-1,1.812-1.421,1.933-1.273.143.173-1.013,1.333-.879,1.468.042.042.154-.076.36-.085.319-.013.547.25.911.614.8.8.841.669.91.869.122.348-.032.662-.837,2.15-.154.286-.363.67-.611,1.126,1.129.949,1.842,1.867,3.894,5.821A4.934,4.934,0,0,0,120.622,180.443Z"/><path class="cls-3" d="M116.422,163.669c-.554.4-1.228.971-2.18,4.333a10.287,10.287,0,0,0-.451,1.468c-.061.462,1.129.166,2.065.564a2.134,2.134,0,0,1,1.019.812c.212.369.312.692.41.715.349.08.939-2.022,2.168-5.535l-2.522-2.668A3.756,3.756,0,0,0,116.422,163.669Z"/><path class="cls-6" d="M124.951,157.335c1.254.965.312,3.878.142,4.406-.277.855-.432,1.31-.894,1.588-.977.586-2.405-.177-2.971-.48a3.723,3.723,0,0,1-1.574-1.288,3.337,3.337,0,0,1,.105-3.731c1.01-1.229,2.8-.986,4.172-.8A2.073,2.073,0,0,1,124.951,157.335Z"/><path class="cls-4" d="M125.854,157.513c-.037.092-.236.075-.587.069a5.223,5.223,0,0,0-2.38.326c-.664.289-.552.709-1.9,2.17-.689.749-1.037,1.124-1.33,1.058-.592-.134-.848-1.683-.642-2.875a4.065,4.065,0,0,1,1.563-2.631,3.6,3.6,0,0,1,2.383-.737c1.363.11,2.466,1.1,2.374,1.333-.045.116-.372.03-.429.172C124.8,156.678,125.951,157.273,125.854,157.513Z"/><path class="cls-6" d="M120.337,161.943c-.078.3-.515,1.476-.515,1.476s.519,1.189,1.434,1.272a2.431,2.431,0,0,0,1.479-.166,7.346,7.346,0,0,0,.781-1.513"/><path class="cls-3" d="M125.371,171c.319-.032,1.831.023,2.238.037.726.025.938.184,1.092.113.357-.165.332-1.455-1.049-5.919"/></g></g></svg>