<?xml version="1.0" encoding="utf-8"?>
<!-- Generator: Adobe Illustrator 24.3.0, SVG Export Plug-In . SVG Version: 6.00 Build 0)  -->
<svg version="1.1"
	 id="svg2985" inkscape:version="0.48.5 r10040" sodipodi:docname="Bloomberg_tv_2016.png" xmlns:cc="http://creativecommons.org/ns#" xmlns:dc="http://purl.org/dc/elements/1.1/" xmlns:inkscape="http://www.inkscape.org/namespaces/inkscape" xmlns:rdf="http://www.w3.org/1999/02/22-rdf-syntax-ns#" xmlns:sodipodi="http://sodipodi.sourceforge.net/DTD/sodipodi-0.dtd" xmlns:svg="http://www.w3.org/2000/svg"
	 xmlns="http://www.w3.org/2000/svg" xmlns:xlink="http://www.w3.org/1999/xlink" x="0px" y="0px" viewBox="0 0 337.3 56.1"
	 style="enable-background:new 0 0 337.3 56.1;" xml:space="preserve">
<style type="text/css">
	.st0{fill:#BBCACC;}
	.st1{fill-rule:evenodd;clip-rule:evenodd;fill:#BBCACC;}
	.st2{fill:none;}
	.st3{fill:#FFFFFF;}
</style>
<g>
	<path class="st1" d="M290.9,13.3c0.1-0.1,0.1-0.1,0.2-0.1c1.5,0,3-0.1,4.4,0.1c1.5,0.2,3,1,3.3,2.7c0,0.2,0.1,0.4,0.2,0.6
		c0,0.2,0.1,0.4,0.3,0.1c0.8-0.9,1.7-1.8,2.7-2.4c1.4-0.9,2.9-1.5,4.6-1.7c1.2-0.2,2.3-0.1,3.4,0.1c2.9,0.5,5.1,2,6.4,4.6
		c0.3,0.6,0.4,0.6,0.8,0.1c1.2-1.6,2.7-2.8,4.4-3.6c1.2-0.6,2.4-0.9,3.7-1.1c1.2-0.2,2.4-0.1,3.6,0c3.5,0.5,6,2.3,7.2,5.6
		c0.5,1.3,0.7,2.7,0.9,4.1c0,0.1,0,0.1,0.1,0.2c0,7.2,0,14.3,0,21.5c-1.5,0-3,0-4.4,0c-1.2,0-2.3-0.3-3.2-1.3
		c-0.6-0.7-0.9-1.6-0.9-2.5c0-4.7,0-9.3,0-14c0-1.2,0-2.3-0.3-3.4c-0.3-1.3-1.1-2.3-2.8-2.4c-2.6-0.1-4.3,1.1-5.7,3.1
		c-0.8,1.2-1.2,2.6-1.5,4c-0.2,1.1-0.3,2.1-0.3,3.2c0,4.3,0,8.6,0,12.9c0,0.4-0.1,0.5-0.5,0.5c-2.5,0-5,0-7.6,0
		c-0.3,0-0.5,0-0.5-0.4c0-5.9,0-11.8,0-17.7c0-1.2-0.1-2.4-0.6-3.5c-0.7-1.6-2-2.1-3.6-2c-1.8,0.1-3.1,1.1-4.1,2.4
		c-0.9,1.3-1.5,2.7-1.8,4.2c-0.3,1.4-0.4,2.8-0.4,4.3c0,4.1,0,8.2,0,12.3c0,0.4-0.1,0.4-0.4,0.4c-2.5,0-5,0-7.6,0
		c-0.3,0-0.5-0.1-0.5-0.4c0-3.8,0-7.6,0-11.4c0-0.1,0-0.3,0-0.4c0.1,0.1,0.1,0.1,0.1,0.2c0,3.9,0,7.8,0,11.7c0,0.1,0.1,0,0,0
		c0,0,0,0,0,0c0-0.1,0-0.2,0-0.4c0-9.9,0-19.7,0-29.6C290.9,13.7,290.8,13.5,290.9,13.3z"/>
	<path class="st1" d="M138.2,0c0.6,0.2,1.2,0.3,1.8,0.7c1.8,1.1,2.9,3.2,2.5,5.3c-0.4,2.1-2,3.8-4,4.2c-2.9,0.6-5.6-1.2-6.1-4.2
		c-0.5-2.8,1.3-5.4,4.1-6c0.1,0,0.2,0,0.2-0.1C137.2,0,137.7,0,138.2,0z"/>
	<path class="st1" d="M130.8,44.1c-2.8-0.1-5.5,0.1-8.2-0.1c-1.5-0.1-2.7-0.8-3.5-2.1c-0.9-1.4-1.6-2.9-2.4-4.3
		c-1-1.8-1.9-3.6-2.9-5.4c-0.3-0.5-0.7-0.8-1.2-0.8c-0.4,0-0.8-0.1-1.2-0.1c-0.6,0-0.5-0.1-0.5,0.5c0,3.7,0,7.3,0,11
		c0,0.3,0,0.7,0,1c0,0.3,0,0.4-0.3,0.4c-2.8,0-5.5,0-8.3,0c-0.3,0-0.3-0.1-0.3-0.3c0-0.4,0-0.8,0-1.2c0-13.6,0-27.2,0-40.8
		c0-0.6-0.1-0.5,0.5-0.5c1.6,0,3.2-0.1,4.8,0.1c1.9,0.1,3,1,3.4,2.6C111,4.5,111,5,111,5.6c0,5.8,0,11.6,0,17.4c0,0.6,0,0.6,0.6,0.5
		c0.5,0,0.9,0,1.4,0c0.7-0.1,1.3-0.4,1.7-1c1.9-3,3.9-6,5.8-9c0.1-0.2,0.3-0.3,0.5-0.3c3.1,0,6.3,0,9.4,0c0.1,0,0.1,0,0.3,0
		c-0.2,0.4-0.5,0.7-0.7,1c-2.5,3.8-5,7.5-7.6,11.3c-0.4,0.6-0.8,1.2-1.4,1.7c-0.1,0.1-0.2,0.2-0.1,0.3c1.2,1.1,1.8,2.6,2.5,4
		c2,3.9,4.3,7.6,6.5,11.3C130.3,43.3,130.5,43.7,130.8,44.1z"/>
	<path class="st1" d="M155.9,16.7c0.5-0.5,1-1,1.5-1.4c2.1-1.8,4.6-2.6,7.3-2.8c1.9-0.1,3.7,0.1,5.5,0.8c2.8,1.1,4.6,3.1,5.5,6
		c0.5,1.6,0.7,3.2,0.7,4.8c0,2.9,0,5.8,0,8.6c0,3.6,0,7.2,0,10.9c0,0.6,0.1,0.5-0.5,0.5c-1.5,0-3,0.1-4.5-0.1
		c-2.3-0.2-3.7-1.6-3.8-3.9c-0.1-2.3,0-4.6,0-6.8c0-2.6,0-5.1,0-7.7c0-0.8-0.1-1.5-0.3-2.3c-0.4-1.7-1.5-2.5-3.2-2.6
		c-3.5-0.1-6.6,1.9-7.6,6c-0.2,1-0.4,2-0.4,3c0,4.6,0,9.3,0,13.9c0,0.4-0.1,0.5-0.5,0.5c-2.6,0-5.3,0-7.9,0c-0.3,0-0.4-0.1-0.4-0.4
		c0-9,0-18,0-27c0-1.1,0-2.1,0-3.2c0-0.2,0-0.3,0.2-0.3c1.6,0,3.1-0.1,4.7,0.1c1.7,0.2,3.2,1.1,3.6,3.2
		C155.8,16.5,155.9,16.6,155.9,16.7z"/>
	<path class="st1" d="M253,21.4c0,0.7,0,1.5,0,2.2c0,0.3-0.1,0.4-0.3,0.4c-1.4,0-2.8,0-4.2,0c-1.5-0.1-2.7-0.8-3.1-2.4
		c-0.2-0.6-0.7-0.9-1.3-1.1c-3-1-6.6-0.1-8.6,2.3c-0.9,1-1.4,2.2-1.7,3.6c-0.3,1.4-0.4,2.9-0.1,4.4c0.5,2.6,1.9,4.6,4.3,5.7
		c1.8,0.9,3.7,1.1,5.7,0.8c2-0.3,3.7-1.2,5.3-2.4c0.7-0.5,1.3-1,1.9-1.7c0.1-0.2,0.2-0.2,0.3,0c1.1,1.9,2.3,3.7,3.4,5.6
		c0.1,0.2,0.1,0.4-0.1,0.6c-1.1,1.2-2.3,2.2-3.7,3c-1.5,0.9-3.1,1.6-4.8,2c-2.3,0.6-4.7,0.7-7.1,0.4c-2.5-0.3-4.9-1.1-7-2.5
		c-2.8-1.8-4.8-4.3-6-7.5c-0.8-2.1-1.1-4.2-1-6.4c0.1-4.3,1.6-8,4.7-11c1.8-1.7,3.9-3,6.3-3.7c1.7-0.6,3.5-0.8,5.3-0.9
		c2.5-0.1,4.9,0.3,7.2,1.3c1.7,0.7,3.2,1.7,4.1,3.4c0.4,0.8,0.6,1.6,0.6,2.5C253,20.3,253,20.9,253,21.4C253,21.4,253,21.4,253,21.4
		z"/>
	<path class="st1" d="M133.4,28.7c0-5,0-10.1,0-15.1c0-0.2-0.1-0.4,0.3-0.4c1.6,0,3.2-0.1,4.8,0.1c2.1,0.2,3.5,1.5,3.7,3.7
		c0,0.4,0.1,0.8,0.1,1.2c0,8.5,0,17.1,0,25.6c0,0.4-0.1,0.5-0.4,0.4c-2.6,0-5.3,0-7.9,0c-0.4,0-0.4-0.1-0.4-0.5
		C133.4,38.7,133.4,33.7,133.4,28.7C133.4,28.7,133.4,28.7,133.4,28.7z"/>
	<path class="st1" d="M218.3,44.5c-2.7,0.1-5.2-2.2-5.2-5.2c0-2.9,2.4-5.1,5.1-5.2c2.8,0,5.2,2.4,5.2,5.2
		C223.5,42.1,221.1,44.6,218.3,44.5z"/>
	<path class="st1" d="M209.7,42.6c-0.1-0.2,0-0.5,0-0.7c0-9.4,0-18.7,0-28.1c0-0.6,0-0.6-0.6-0.6c-1.3,0-2.6,0-3.9,0
		c0.1-0.1,0.3-0.1,0.4-0.1c1.3,0,2.5,0,3.8,0c0.3,0,0.4,0.1,0.4,0.3c0,9.5,0,19,0,28.6C209.7,42.2,209.7,42.4,209.7,42.6z"/>
	<path class="st1" d="M290.9,13.3c0,10.2,0,20.4,0,30.7c-0.1-0.2-0.1-0.4-0.1-0.5c0-3.7,0-7.4,0-11.1c0-0.2,0-0.4,0-0.5
		c0-3.7,0-7.3,0-11c0-2.3,0-4.7,0-7C290.8,13.7,290.7,13.5,290.9,13.3z"/>
	<g>
		<path class="st0" d="M24.2,22c-0.3-0.2-0.6-0.3-0.9-0.5c0.2-0.2,0.4-0.4,0.6-0.5c0.7-0.6,1.3-1.2,1.9-1.9c1.6-2.2,2.3-4.6,2.1-7.3
			c-0.2-3.8-2-6.7-5.3-8.6c-2.3-1.3-4.9-1.8-7.6-1.8c-3.5,0-7,0-10.5,0C3,1.4,1.9,1.9,1,3.1C0.5,3.7,0.2,4.4,0,5.1C0,18.1,0,31,0,44
			c0.1,0,0.3,0,0.4,0c4.9,0,9.7,0,14.6,0c2.1,0,4.2-0.3,6.2-1c2.9-1,5.3-2.7,6.9-5.4c1.5-2.7,1.9-5.7,1.2-8.7
			C28.6,25.8,27,23.5,24.2,22z M8.2,14.5C8.2,14.5,8.2,14.5,8.2,14.5c0-1.2,0-2.3,0-3.5c0.1-1.7,0.8-2.6,2.5-2.7
			c1.6-0.1,3.3-0.2,4.9,0.1c2,0.3,3.4,1.6,3.7,3.6c0.3,1.8,0.1,3.4-1,4.9c-0.9,1.2-2.2,1.6-3.6,1.6c-2.1,0-4.1,0-6.2,0
			c-0.3,0-0.4-0.1-0.4-0.4C8.2,17,8.2,15.8,8.2,14.5z M19.9,34.8c-1,1.3-2.5,1.9-4.1,1.9c-2.4,0-4.9,0-7.3,0c-0.3,0-0.3-0.1-0.3-0.3
			c0-1.5,0-2.9,0-4.4c0,0,0,0,0,0c0-1.4,0-2.8,0-4.2c0-1.7,1-2.6,2.7-2.6c1.5,0,3.1,0,4.6,0c2,0,3.6,0.7,4.7,2.5
			C21.5,29.7,21.4,32.9,19.9,34.8z"/>
		<path class="st0" d="M209.3,13.1c-1,0-2,0-2.9,0c-0.4,0-0.8,0-1.2,0c-1.6,0-2.7,0.8-3.4,2.3c-0.6-0.6-1.2-1-1.9-1.4
			c-2.7-1.5-5.6-1.9-8.6-1.4c-5.2,0.7-8.7,3.6-10.6,8.5c-1.5,4-1.6,8.1-0.4,12.2c0.8,2.8,2.2,5.2,4.5,7.1c2.8,2.3,6,3.2,9.6,3.1
			c2.4-0.1,4.5-0.8,6.4-2.3c0,0,0.1-0.1,0.2-0.1c0,0.5,0,1.1,0,1.6c-0.2,2.1-1.2,3.8-3.2,4.7c-2.2,1-4.4,0.9-6.7,0.6
			c-1.3-0.2-2.5-0.6-3.7-1c-1.5-0.4-2.5,0-3.2,1.4c-0.1,0.1-0.1,0.3-0.2,0.4c-0.5,1.3-1,2.6-1.6,4c-0.1,0.3-0.1,0.4,0.2,0.5
			c2.3,1.2,4.7,2,7.2,2.4c0.7,0.1,1.5,0.2,2.2,0.3c1.1,0,2.2,0,3.3,0c0.1-0.1,0.1-0.1,0.2-0.1c1.1-0.1,2.1-0.3,3.2-0.5
			c2.8-0.7,5.3-1.9,7.3-3.9c2.5-2.5,3.7-5.6,3.9-9.1c0-0.2,0-0.3,0-0.5c0-9.4,0-18.9,0-28.3c0-0.1,0-0.2,0-0.2
			C209.7,13.2,209.6,13.1,209.3,13.1z M200.4,32.1c-0.8,2.3-2.7,3.6-5.2,3.6c-3.1,0-5.2-1.5-6.2-4.4c-0.8-2.6-0.9-5.1,0.1-7.6
			c0.9-2.3,2.6-3.4,5-3.5c1.3,0,2.5,0.1,3.7,0.7c1.6,0.8,2.4,2.2,2.8,3.9c0.2,1,0.3,2.1,0.3,3.2C201,29.3,200.9,30.7,200.4,32.1z"/>
		<path class="st0" d="M287.3,24.4c-0.3-1.3-0.8-2.5-1.4-3.7c-1.4-2.6-3.3-4.6-5.9-6c-2-1.1-4.2-1.8-6.5-2c-1.6-0.2-3.1-0.1-4.7,0.1
			c-1.7,0.2-3.3,0.7-4.8,1.4c-2.6,1.2-4.7,3.1-6.2,5.5c-1.7,2.7-2.5,5.7-2.5,8.9c0,0.8,0,1.6,0.1,2.4c0.2,1.8,0.7,3.4,1.5,5
			c1.2,2.4,2.8,4.3,5,5.8c2.4,1.6,5,2.5,7.8,2.7c2.8,0.3,5.5-0.1,8.2-1.1c2.5-1,4.7-2.6,6.4-4.7c1.2-1.5,2.1-3.2,2.6-5.1
			c0.4-1.2,0.6-2.4,0.7-3.7C287.8,28.1,287.7,26.2,287.3,24.4z M279,28.3c0,2.3-0.4,4.2-1.6,5.8c-1,1.4-2.3,2.3-4,2.7
			c-1.7,0.4-3.3,0.3-4.9-0.4c-1.6-0.7-2.7-1.9-3.5-3.5c-0.7-1.5-1-3.1-0.9-4.7c0.1-2.4,0.7-4.6,2.5-6.3c1.6-1.5,3.6-2.1,5.7-1.9
			c3.1,0.3,5.1,2.1,6.2,5C278.9,26.3,279.1,27.4,279,28.3z"/>
		<path class="st0" d="M90.4,14.3c-4.2-2.1-8.7-2.3-13.1-0.9c-4.6,1.5-7.8,4.5-9.5,9c-1.2,3.1-1.4,6.4-0.8,9.7
			c0.8,3.8,2.6,6.9,5.7,9.3c3,2.3,6.4,3.2,10.1,3.2c1.4,0,2.8-0.1,4.1-0.5c4.7-1.1,8.3-3.8,10.4-8.1c1.7-3.5,2.1-7.3,1.3-11.1
			C97.5,20.1,94.8,16.5,90.4,14.3z M90.3,28.6c0,2.1-0.5,4.1-1.8,5.8c-1.6,1.9-3.6,2.7-6.1,2.6c-3.5-0.1-6.1-2.6-6.8-6.2
			c-0.5-2.6-0.3-5.1,1.1-7.4c1.6-2.5,4.2-3.7,7.1-3.3c3.3,0.5,5.2,2.5,6.1,5.6C90.2,26.7,90.3,27.7,90.3,28.6z"/>
		<path class="st0" d="M55.9,14.3c-3.8-1.9-7.8-2.2-11.9-1.3c-4.9,1.2-8.4,4-10.5,8.6c-1.4,3.1-1.7,6.3-1.2,9.6
			c0.5,3.6,2.1,6.8,4.8,9.2c3.1,2.8,6.9,4,11.1,4.1c1.6,0,3.2-0.2,4.8-0.6c4.5-1.3,7.9-4,9.9-8.3c1.6-3.4,1.9-7,1.2-10.6
			C63,20.2,60.3,16.6,55.9,14.3z M54.5,33.4c-1.2,2.2-3.1,3.4-5.7,3.6c-4.1,0.4-7-2.2-7.9-6c-0.1-0.3-0.1-0.6-0.2-0.9
			c-0.1-0.5-0.1-1.1-0.1-1.6c0-2.2,0.5-4.2,1.9-5.9c1.7-2.1,4-2.8,6.6-2.5c2.9,0.4,4.9,2.1,5.9,4.8C56.1,27.9,56,30.7,54.5,33.4z"/>
	</g>
</g>
</svg>
