<?xml version="1.0" encoding="utf-8"?>
<!-- Generator: Adobe Illustrator 26.3.1, SVG Export Plug-In . SVG Version: 6.00 Build 0)  -->
<svg version="1.1" id="Layer_1" xmlns="http://www.w3.org/2000/svg" xmlns:xlink="http://www.w3.org/1999/xlink" x="0px" y="0px"
	 viewBox="0 0 121.3 32.1" style="enable-background:new 0 0 121.3 32.1;" xml:space="preserve">
<style type="text/css">
	.st0{fill:#BBCACC;}
</style>
<g>
	<path class="st0" d="M16.3,18c-4.2,0-8,1.4-11.5,3.7c-1.1,0.7-2.2,1.5-3.2,2.4c-0.3,0.2-0.6,0.6-1,0.4C0.1,24.3,0,23.8,0,23.4
		c0-0.8,0.2-1.6,0.6-2.3c1-2.3,2.7-4.1,4.5-5.8c0.8-0.7,1.6-1.4,2.4-2c0.1-0.1,0.4-0.2,0.3-0.4s-0.3-0.1-0.5-0.1
		c-1.8-0.1-2.7-0.9-3-2.4c-0.2-1.3,0.3-2.2,1.1-3c1.1-1.1,2.5-1.8,4-2c0.6-0.1,0.9,0.2,1,0.7c0.2,0.6,0.2,1.3,0.2,2
		c0,0.8,0,0.8,0.7,0.5c1.3-0.6,2.6-1,4.1-1.2c2.5-0.3,4.9,0.1,7.2,1.1c2.8,1.2,5.1,2.9,7.3,5c0.3,0.2,0.5,0.5,0.9,0.4
		c0.5-0.1,0.6-0.3,0.4-0.8c-0.6-1.1-1.4-2.2-2.2-3.2c-1.2-1.6-2.2-3.4-2.6-5.4c-0.1-0.8-0.2-1.7,0.1-2.5c0.3-1,0.9-1.2,1.7-0.5
		c0.9,0.7,1.6,1.5,2,2.5c0.9,1.9,1.5,3.9,2.2,5.9c0.3,0.7,0.5,1.4,0.8,2.1c0.1,0.3,0.2,0.5,0.6,0.3c0.3-0.1,0.5-0.2,0.4-0.6
		C33.8,10,33.3,8.5,32.8,7c-0.6-1.8-1.2-3.6-1.2-5.6c0-1.5,0.5-1.8,1.8-1c1.1,0.6,1.8,1.7,2.3,2.9c0.9,2.4,1,4.8,0.9,7.3
		c0,0.6-0.1,1.1-0.1,1.6c0,0.3,0.2,0.4,0.4,0.6c1.1,0.9,2.1,1.8,3,2.8c0.7,0.8,1.3,1.6,1.5,2.7c0.2,0.9-0.1,1.6-0.7,2.3
		c-0.9,1-2.2,1.4-3.4,1.8c-0.3,0.1-0.5,0.2-0.8,0.2C36,22.7,36,23,36.3,23.3c0.4,0.5,0.9,1.1,1.4,1.6c0.9,1.1,1.9,2.2,2.5,3.5
		c0.4,0.7,0.6,1.5,0.6,2.4c0,1.1-0.7,1.7-1.8,1.3c-0.5-0.2-1-0.5-1.4-0.8c-1.3-1.2-2.2-2.6-3.3-3.9c-3.3-4-7.3-7-12.4-8.5
		C19.9,18.3,18.1,18,16.3,18z"/>
	<path class="st0" d="M50.2,16.5c0.7-1.1,1.3-2.3,2.1-3.3c0.7-1,1.6-1.8,2.8-2.2c1.4-0.4,2.4,0.1,2.8,1.5c0.2,0.7,0.3,1.4,0.3,2.1
		c0,1.1,0.1,2.2,0.1,3.3c0,0.5,0,1.1,0.6,1.4c0.6,0.2,1-0.2,1.4-0.6c0.2-0.2,0.4-0.3,0.3-0.7c-1.1-2.9,0.8-5.8,3.5-6.7
		c3-1,6.3,0.3,7.5,3s-0.2,5.8-3.2,6.9c-2.3,0.9-4.5,0.5-6.4-1.1c-0.3-0.2-0.4-0.3-0.7,0c-0.8,0.9-1.8,1.5-3,1.5
		c-1.8,0-2.9-1.1-3.2-3.1c-0.1-1-0.1-2.1-0.2-3.1c-0.1-0.4,0-1-0.5-1.2s-0.9,0.2-1.3,0.6c-1.2,1.3-1.9,2.9-2.5,4.4
		c-0.3,0.6-0.5,1.2-0.7,1.7s-0.6,0.7-1.3,0.6c-0.5,0-0.9-0.1-1-0.8c-0.2-1.3-0.3-2.6-0.4-3.9C47,13,47,9,47.1,5
		c0-1.1,0.1-2.1,0.2-3.2c0.1-1,1.3-1.6,2.2-1.3C50,0.7,50.3,1,50.3,1.6c0.2,2.4,0.1,4.8,0.1,7.2c0,2.3-0.2,4.6-0.3,6.9
		C50.2,16,50.2,16.3,50.2,16.5z M68.6,16.5c0-1-0.2-1.6-0.6-2.2c-0.8-1.1-2.1-1.3-3.2-0.5C63.3,15,63.5,18,65.3,19
		c0.7,0.4,1.3,0.4,2,0C68.2,18.3,68.6,17.4,68.6,16.5z"/>
	<path class="st0" d="M101.5,17.3c0.2,1.1,1.1,1.8,2.4,1.9c2.2,0.2,3.9-0.7,5.1-2.5c0.6-0.8,1-1.7,1.4-2.7c0.1-0.3,0.1-0.6-0.2-0.8
		c-0.9-0.9-1.1-2.2-0.6-3.3c0.5-1,1.8-1.1,2.4-0.1c0.2,0.4,0.4,0.8,0.4,1.2c0,0.6,0.3,0.7,0.7,0.8c0.9,0.2,1.7,0.3,2.6,0.2
		c0.4,0,0.8,0,1.1,0.1c1,0.2,1.5,1,1.3,2.1s-0.7,2-1.1,3c-0.2,0.4-0.3,0.9-0.4,1.3c-0.1,0.2-0.1,0.5,0.1,0.7s0.5,0,0.7-0.1
		c0.5-0.3,0.9-0.7,1.3-1.2c0.7-0.9,1.3-1.8,1.8-2.8c0.1-0.2,0.1-0.4,0.4-0.4c0.2,0,0.3,0.3,0.3,0.4c0.2,0.7,0.2,1.4-0.1,2.1
		c-0.6,1.3-1.4,2.5-2.5,3.5c-0.7,0.6-1.5,1-2.5,1c-1.8,0-3.1-1.5-2.7-3.3c0.2-1,0.6-2,1.1-2.9c0.3-0.6,0.2-0.8-0.5-0.9
		c-0.6-0.1-1.2-0.2-1.7-0.3c-0.3-0.1-0.5,0-0.6,0.3c-0.4,1.2-0.9,2.3-1.6,3.3c-1.1,1.7-2.5,3.1-4.6,3.5c-2.2,0.4-4.2,0.1-5.9-1.4
		c-1.5-1.3-2.2-3-1.7-5c0.5-2.1,2-3.3,3.9-3.9c1.3-0.4,2.7-0.4,4,0.2c1.3,0.6,2.1,1.7,2.1,2.9c0,1.3-0.8,2.4-2.1,2.9
		c-1.2,0.5-2.5,0.5-3.7,0.2C101.9,17.5,101.7,17.4,101.5,17.3z M102.6,16.1c0.7-0.1,1.4-0.1,2-0.4c0.5-0.3,0.7-0.6,0.7-1.2
		c-0.1-0.6-0.4-0.9-0.9-1c-1-0.3-2.1,0.2-2.7,1.3C101.1,16,101.2,16,102.6,16.1z"/>
	<path class="st0" d="M88,12c0.8-0.5,1.6-0.9,2.5-1c3-0.4,6.2,1.5,6.8,4.6c0.3,1.9-0.8,4-2.7,5.1c-1.7,1-3.6,1.1-5.4,0.4
		c-0.5-0.2-0.5,0-0.5,0.4c0.2,2.8,0.3,5.6,0.2,8.4c0,0.3,0,0.6,0,1c0,0.7-0.5,1.1-1.2,1.2c-1.1,0.1-1.9-0.6-2-1.7
		c-0.2-2.2-0.3-4.4-0.4-6.6c-0.1-3.9,0.1-7.8,0.4-11.7c0.1-1.2,0.6-1.5,1.7-1.2C88,11.1,88,11.5,88,12z M88.4,16.5
		c0,0.3,0.1,0.7,0.2,1.1c0.4,1.1,1.3,1.6,2.6,1.7c1,0,1.9-0.5,2.3-1.6c0.7-1.7-0.1-3.8-1.6-4.2C90,12.9,88.4,14.3,88.4,16.5z"/>
	<path class="st0" d="M75.5,11.9c1.1-0.7,2.3-1.1,3.6-1c2.5,0.1,4.9,1.9,5.5,4.2s-0.7,4.7-3,5.8c-1.7,0.8-3.4,0.9-5.1,0.1
		c-0.4-0.2-0.5-0.1-0.5,0.3c0.2,3.1,0.3,6.3,0.2,9.4c0,0.8-0.5,1.2-1.2,1.2c-1,0-1.8-0.6-1.9-1.5c-0.3-1.9-0.3-3.8-0.4-5.6
		c-0.1-3.7,0-7.4,0.2-11.1c0.1-0.8,0.1-1.5,0.2-2.3c0-0.3,0.2-0.5,0.5-0.7C74.7,10.6,75.3,10.9,75.5,11.9z M81.2,16.3
		c0-1.6-1.1-2.9-2.5-2.9c-1.8,0-2.9,1.2-2.9,3s1.2,2.9,3,2.9C80.1,19.2,81.2,17.9,81.2,16.3z"/>
</g>
</svg>
