<?xml version="1.0" encoding="utf-8"?>
<!-- Generator: Adobe Illustrator 25.2.3, SVG Export Plug-In . SVG Version: 6.00 Build 0)  -->
<svg version="1.1" id="Group_629" xmlns="http://www.w3.org/2000/svg" xmlns:xlink="http://www.w3.org/1999/xlink" x="0px" y="0px"
	 viewBox="0 0 33.8 33.9" style="enable-background:new 0 0 33.8 33.9;" xml:space="preserve">
<style type="text/css">
	.st0{fill:#12575F;}
</style>
<path id="Path_1886" class="st0" d="M8.3,30H3.7c-0.5,0-0.9,0.3-0.9,0.8c0,0.5,0.3,0.9,0.8,0.9c0,0,0,0,0.1,0h4.6
	c0.5,0,0.8-0.4,0.8-0.9C9.1,30.4,8.8,30,8.3,30z"/>
<path id="Path_1887" class="st0" d="M7.4,32.2H4.6c-0.5,0-0.9,0.3-0.9,0.8c0,0.5,0.3,0.9,0.8,0.9c0,0,0,0,0.1,0h2.7
	c0.5,0,0.8-0.4,0.8-0.9C8.2,32.5,7.8,32.2,7.4,32.2z"/>
<path id="Path_1888" class="st0" d="M6.7,15.3c-2.4,0.1-4.3,2.1-4.2,4.5c0,0,0,0,0,0c0,0.5,0.4,0.8,0.8,0.8h0c0.5,0,0.8-0.4,0.8-0.9
	c0-1.5,1.1-2.7,2.6-2.7c0.5,0,0.8-0.4,0.8-0.9C7.6,15.6,7.2,15.3,6.7,15.3C6.7,15.3,6.7,15.3,6.7,15.3z"/>
<path id="Path_1889" class="st0" d="M32.1,3.4h-6.7V0.8C25.4,0.4,25,0,24.5,0l0,0h-9.1c-0.5,0-0.8,0.4-0.8,0.8c0,0,0,0,0,0v2.5
	c0,0,0,0.1,0,0.1H7.8c-0.9,0-1.7,0.8-1.7,1.7c0,0,0,0,0,0v7.8c-0.1,0-0.1,0-0.1,0H5.9c-3.4,0.1-6,2.9-5.9,6.3
	c0.1,1.2,0.5,2.4,1.3,3.4c1.2,1.5,1.9,3.4,2,5.4c0,0.8,0.6,1.4,1.4,1.4h2.8c0.8,0,1.4-0.6,1.4-1.4l0,0c0-1.6,0.5-3.2,1.4-4.5h22
	c0.9,0,1.7-0.8,1.7-1.7V5.1C33.8,4.1,33,3.4,32.1,3.4C32.1,3.4,32.1,3.4,32.1,3.4z M16.3,3.3V1.7h7.4v1.7L16.3,3.3
	C16.3,3.4,16.3,3.3,16.3,3.3z M7.1,27.6H4.9c-0.1-2.2-0.9-4.4-2.3-6.1C2,20.8,1.7,19.9,1.7,19c-0.1-2.4,1.8-4.4,4.2-4.5H6
	c2.4,0,4.3,1.9,4.3,4.3c0,1-0.3,1.9-1,2.7C8,23.2,7.2,25.4,7.1,27.6z M18.6,14.4v-2.7h2.7v2.7L18.6,14.4z M32.1,11.7H23v-0.9
	c0-0.5-0.4-0.8-0.8-0.8l0,0h-4.4c-0.5,0-0.8,0.4-0.8,0.8c0,0,0,0,0,0v0.9H7.8V5.1h24.3V11.7z"/>
</svg>
