<?xml version="1.0" encoding="utf-8"?>
<!-- Generator: Adobe Illustrator 25.2.1, SVG Export Plug-In . SVG Version: 6.00 Build 0)  -->
<svg version="1.1" id="Group_601" xmlns="http://www.w3.org/2000/svg" xmlns:xlink="http://www.w3.org/1999/xlink" x="0px" y="0px"
	 viewBox="0 0 33.8 21.7" style="enable-background:new 0 0 33.8 21.7;" xml:space="preserve">
<style type="text/css">
	.st0{fill:#1AB2C5;}
	.st1{fill:#C0D20F;}
	.st2{fill:#12575F;}
</style>
<path id="Path_1756_1_" class="st2" d="M32.4,0H4C3.3,0,2.7,0.6,2.7,1.4c0,0,0,0,0,0v0.4H2.2C1,1.8,0,2.7,0,3.9v15.6
	c0,1.2,1,2.2,2.2,2.2h27.2c1.2,0,2.2-1,2.2-2.2V19h0.9c0.7,0,1.4-0.6,1.4-1.4V1.4C33.8,0.6,33.2,0,32.4,0C32.4,0,32.4,0,32.4,0z
	 M27.3,17.3H9.2c-0.1-2.6-2.2-4.8-4.8-5V6.1c2.4-0.2,4.3-2,4.7-4.4h18.2C27.6,4.2,29.6,6,32,6.1v6.2C29.4,12.5,27.3,14.6,27.3,17.3z
	 M4.4,14c1.7,0.2,3,1.5,3,3.2h-3V14z M32,4.4c-1.5-0.1-2.7-1.2-3-2.7h3V4.4z M7.3,1.7C7,3.2,5.9,4.2,4.4,4.4V1.7H7.3z M29,17.3
	c0.1-1.7,1.4-3.1,3-3.2v3.2H29z"/>
<path id="Path_1757_1_" class="st2" d="M18.2,2.6c-2.8,0-5.1,3.1-5.1,6.9s2.3,6.9,5.1,6.9s5.1-3.1,5.1-6.9S21.1,2.6,18.2,2.6z
	 M18.2,14.6c-1.8,0-3.4-2.3-3.4-5.1s1.6-5.1,3.4-5.1s3.4,2.3,3.4,5.1S20.1,14.6,18.2,14.6z"/>
<path id="Path_1758_1_" class="st2" d="M18.8,6.8V6.4c0-0.1,0-0.3-0.1-0.4c-0.1-0.1-0.2-0.2-0.4-0.1c-0.1,0-0.3,0.1-0.4,0.1
	c-0.1,0.1-0.2,0.2-0.2,0.4v0.4c-0.4,0.1-0.8,0.3-1.1,0.6c-0.3,0.3-0.4,0.7-0.4,1.1c0,0.3,0.1,0.6,0.3,0.9c0.2,0.2,0.4,0.4,0.6,0.5
	c0.3,0.1,0.6,0.2,0.9,0.3c0.2,0.1,0.4,0.1,0.6,0.2c0.1,0,0.2,0.1,0.3,0.2c0.1,0.1,0.1,0.2,0.1,0.3c0,0.2-0.1,0.3-0.2,0.4
	c-0.2,0.1-0.4,0.1-0.6,0.1c-0.2,0-0.4,0-0.6-0.1c-0.2-0.1-0.4-0.1-0.6-0.3c-0.1,0-0.2-0.1-0.2-0.1c-0.1,0-0.1,0-0.2,0
	c-0.1,0-0.2,0.1-0.3,0.2C16.1,11,16,11.1,16,11.3c0,0.1,0,0.2,0.1,0.3c0,0.1,0.1,0.1,0.2,0.2c0.4,0.3,0.9,0.4,1.5,0.5v0.3
	c0,0.1,0,0.3,0.1,0.4c0.1,0.1,0.2,0.2,0.4,0.1c0.1,0,0.3,0,0.4-0.1c0.1-0.1,0.2-0.2,0.1-0.4v-0.4c0.4-0.1,0.8-0.3,1.2-0.6
	c0.3-0.3,0.4-0.7,0.4-1.1c0-0.3-0.1-0.6-0.3-0.9c-0.2-0.2-0.4-0.4-0.6-0.5C19.2,9.1,18.9,9,18.6,9c-0.3-0.1-0.5-0.1-0.8-0.2
	c-0.1-0.1-0.2-0.2-0.2-0.4c0-0.2,0.1-0.3,0.2-0.4c0.2-0.1,0.4-0.2,0.6-0.1c0.2,0,0.3,0,0.5,0.1c0.1,0,0.3,0.1,0.4,0.2
	c0.1,0.1,0.2,0.1,0.2,0.1c0.1,0,0.2,0.1,0.2,0.1c0.1,0,0.1,0,0.2,0c0.1,0,0.2-0.1,0.3-0.2c0.1-0.1,0.1-0.3,0.1-0.4
	c0-0.1,0-0.2-0.1-0.3c0-0.1-0.1-0.2-0.2-0.2C19.7,7,19.3,6.8,18.8,6.8z"/>
</svg>
