<?xml version="1.0" encoding="utf-8"?>
<!-- Generator: Adobe Illustrator 25.2.3, SVG Export Plug-In . SVG Version: 6.00 Build 0)  -->
<svg version="1.1" id="Layer_1" xmlns="http://www.w3.org/2000/svg" xmlns:xlink="http://www.w3.org/1999/xlink" x="0px" y="0px"
	 viewBox="0 0 33.2 33.8" style="enable-background:new 0 0 33.2 33.8;" xml:space="preserve">
<style type="text/css">
	.st0{fill:#12575F;}
</style>
<path id="Path_1763" class="st0" d="M29.5,21.3L29.5,21.3c-0.5,0.2-0.8,0.6-1,1c-2.1,4.5-6.6,7.3-11.6,7.4c-2.9,0-5.8-1-8.1-2.9
	c-0.7-0.6-1.3-1.2-1.9-1.9l0,0c0.9-0.5,1.8-0.9,2.7-1.3l0,0h0c0.7-0.3,1.5-0.6,2.3-0.8c0.5-0.1,1-0.3,1.5-0.4c1.3-0.3,2.6-0.5,4-0.7
	c0.5-0.1,1.7-0.2,3-0.5c0.7-0.1,1.1-0.2,1.5-0.3s0.7-0.1,1-0.2c0.3-0.1,0.6-0.1,1-0.3l0.2,0l0.1,0l0,0c0.2-0.1,0.5-0.1,0.7-0.2
	c0.3-0.1,1.1-0.3,1.9-0.6c0.8-0.3,1.4-0.5,1.8-0.7c0.4-0.2,0.7-0.3,0.9-0.4l0,0h0c0.1-0.1,0.3-0.1,0.3-0.2l0.1,0
	c0.1,0,0.1-0.1,0.2-0.1c1-0.5,1.9-1.3,2.4-2.4c0.3-0.6,0.5-1.3,0.6-2c0.1-0.7,0-1.4-0.2-2l0,0c-0.3-0.8-0.6-1.7-1-2.4
	c-3-6.1-9.4-9.8-16.2-9.3C7.3,0.6,0.5,7.3,0,15.8c0,0.6,0,1.3,0,1.9c0.1,1.1,1,2,2.1,1.9c0.3,0,0.6-0.1,0.9-0.3l0,0
	c0.7-0.4,1.1-1.1,1-1.9c0-0.2,0-0.4,0-0.6c0-7.1,5.7-12.8,12.8-12.8c5,0,9.5,2.9,11.6,7.5c0.4,0.8,0.6,1.6,0.8,2.5l0,0
	c-0.6,0.3-1.1,0.6-1.1,0.6c-0.8,0.4-1.5,0.7-1.8,0.8c-1.1,0.4-1.9,0.7-2.3,0.8v-1.4c0-0.5-0.2-1-0.6-1.3L18.2,8
	c-0.4-0.4-0.8-0.6-1.3-0.6c-0.5,0-1,0.2-1.3,0.6l-5.4,5.4c-0.4,0.4-0.6,0.8-0.6,1.3v4.4C9,19.4,8.3,19.7,7.5,20
	c-0.6,0.2-1.1,0.5-1.4,0.7c-0.8,0.4-1.3,0.7-1.5,0.8l0,0c-0.3,0.2-0.6,0.4-0.8,0.6c-1.3,1.3-1.5,3.4-0.4,4.9l0,0l0,0l0,0
	c0.5,0.7,1.1,1.3,1.7,1.9c3.1,3.1,7.4,4.8,11.7,4.8c6.6,0,12.5-3.8,15.3-9.8c0.5-1,0-2.2-1-2.7C30.6,21.1,30,21.1,29.5,21.3z
	 M16.9,12l3.5,3.5v1.5h0c-1.1,0.2-1.6,0.2-3.5,0.5c-1.5,0.2-2.4,0.3-3.6,0.6l0,0v-2.6L16.9,12z"/>
</svg>
