<?xml version="1.0" encoding="utf-8"?>
<!-- Generator: Adobe Illustrator 24.3.0, SVG Export Plug-In . SVG Version: 6.00 Build 0)  -->
<svg version="1.1" id="Layer_1" xmlns="http://www.w3.org/2000/svg" xmlns:xlink="http://www.w3.org/1999/xlink" x="0px" y="0px"
	 viewBox="0 0 11.8 11.8" style="enable-background:new 0 0 11.8 11.8;" xml:space="preserve">
<style type="text/css">
	.st0{fill:#093F46;}
</style>
<path id="Path_1707" class="st0" d="M6.8,6.8h4.1c0.5,0,0.9-0.4,0.9-0.9S11.4,5,10.9,5H6.8V0.9C6.8,0.4,6.4,0,5.9,0
	C5.4,0,5,0.4,5,0.9c0,0,0,0,0,0V5H0.9C0.4,5,0,5.4,0,5.9s0.4,0.9,0.9,0.9l0,0H5v4.1c0,0.5,0.4,0.9,0.9,0.9c0.5,0,0.9-0.4,0.9-0.9
	c0,0,0,0,0,0L6.8,6.8z"/>
</svg>
