<?xml version="1.0" encoding="utf-8"?>
<!-- Generator: Adobe Illustrator 24.3.0, SVG Export Plug-In . SVG Version: 6.00 Build 0)  -->
<svg version="1.1"
	 id="svg2985" inkscape:version="0.48.5 r10040" sodipodi:docname="Bloomberg_tv_2016.png" xmlns:cc="http://creativecommons.org/ns#" xmlns:dc="http://purl.org/dc/elements/1.1/" xmlns:inkscape="http://www.inkscape.org/namespaces/inkscape" xmlns:rdf="http://www.w3.org/1999/02/22-rdf-syntax-ns#" xmlns:sodipodi="http://sodipodi.sourceforge.net/DTD/sodipodi-0.dtd" xmlns:svg="http://www.w3.org/2000/svg"
	 xmlns="http://www.w3.org/2000/svg" xmlns:xlink="http://www.w3.org/1999/xlink" x="0px" y="0px" viewBox="0 0 183.8 59"
	 style="enable-background:new 0 0 183.8 59;" xml:space="preserve">
<style type="text/css">
	.st0{fill:#BBCACC;}
	.st1{fill-rule:evenodd;clip-rule:evenodd;fill:#BBCACC;}
	.st2{fill:none;}
	.st3{fill:#FFFFFF;}
</style>
<g>
	<path class="st0" d="M162.2,19.1L162.2,19.1c11.4,1,14.7,9.1,14.6,13.8c-0.3,13.6-10.8,24.6-27.9,25.9v0.1
		c18.7-1.1,29.7-10.8,29.9-24.7C178.8,29.2,175.1,19.8,162.2,19.1z"/>
	<path class="st0" d="M148.9,58.7c14.4-1,25.7-12.8,26-27.2c0-4.3-2.9-11.4-12.9-12.2v0.1c8.2,0.9,11.1,6.8,11,10.8
		C172.9,43.3,162.7,57.2,148.9,58.7L148.9,58.7z"/>
	<path class="st0" d="M149.1,58.4c12.1-1.3,21.9-16.8,22.1-29.7c0-3.5-2.2-8.4-9.1-9.2v0.1c5.4,0.8,7.4,4.6,7.4,7.7
		c-0.2,12.6-9.7,29.6-20.1,31L149.1,58.4z"/>
	<path class="st0" d="M149.2,58.1v0.1c8.8-1.3,18-19.9,18.2-32.3c0.1-3.2-2.3-5.9-5.5-6.1v0.1c2.2,0.4,3.8,2.4,3.6,4.7
		C165.2,36.7,156.3,56.8,149.2,58.1z"/>
	<path class="st0" d="M143.7,53.3c0.2-11.7,9.4-32.1,16.2-33.5v-0.1c-8.6,1.3-18,20.2-18.2,32.2c-0.2,3.2,2.2,6,5.3,6.2
		c0.1,0,0.1,0,0.2,0V58C144.9,57.7,143.3,55.6,143.7,53.3C143.7,53.3,143.7,53.3,143.7,53.3z"/>
	<path class="st0" d="M139.9,50.5c0.2-12.3,10.1-29.6,20.2-31v-0.1c-11.8,1.3-21.9,17.1-22.1,29.6c0,3.5,2.3,8.7,9.1,9.3v-0.1
		C141.8,57.6,139.8,53.6,139.9,50.5z"/>
	<path class="st0" d="M136.1,47.8c0.2-12.9,10.7-27.1,24.1-28.5v-0.1c-14.3,1.2-25.4,12.8-26,27.1c0,4.3,2.9,11.6,12.9,12.3v-0.1
		C138.5,57.7,136.1,51.6,136.1,47.8z"/>
	<path class="st0" d="M132.4,45c0.2-13.6,11.9-24.6,27.9-25.9V19c-17.9,1.1-29.7,10.8-29.9,24.6c-0.1,5.1,3.6,14.5,16.5,15.3
		C135.7,57.9,132.3,49.7,132.4,45z"/>
	<path class="st0" d="M123.3,19.3c-6.2-0.8-13.6,2.8-17.8,9.2l0.1,0.1c4-5.7,10.7-9.1,16.2-8.4c3.7,0.5,6.3,3.3,5.8,8.8
		c-1.3,14.1-13.2,29.9-32.2,29.9V59c17.6,0.7,32.7-12.4,34.5-29.9C130.3,22.9,127.5,19.8,123.3,19.3z"/>
	<path class="st0" d="M125.2,28.9c0.5-4.9-1.7-7.4-5.1-7.8c-4.9-0.7-10.9,2.3-14.5,7.6l0.1,0.1c3.3-4.5,8.6-7.4,12.9-6.8
		c2.9,0.4,4.9,2.6,4.4,6.9c-1.1,12.1-12.7,28.8-27.7,29.7C112.1,58.6,124,42.2,125.2,28.9z"/>
	<path class="st0" d="M95.6,58.3L95.6,58.3c13.9-1.6,24.3-18.5,25.4-29.5c0.3-3.6-1.3-5.5-3.8-5.9c-3.7-0.5-8.3,2-11.2,6V29
		c2.7-3.5,6.5-5.6,9.5-5.2c2.1,0.3,3.4,1.9,3.1,4.8C117.7,38.7,108.2,55.7,95.6,58.3z"/>
	<path class="st0" d="M95.7,58v0.1c10.3-2.8,19.9-20.6,20.6-29.5c0.2-2.3-0.8-3.6-2.4-3.8c-2.5-0.3-5.6,1.5-7.9,4.4v0.1
		c1.9-2.3,4.4-3.9,6.3-3.6c1.2,0.2,2,1.2,1.8,2.9C113.6,36.3,104.7,54.2,95.7,58z"/>
	<path class="st0" d="M94.1,47.9c-1.1,2.4-1.9,4.9-2.3,7.6c0,1,0.6,1.9,1.5,2.4c0.1,0.1,0.3,0.1,0.4,0.2v-0.1
		c-0.4-0.4-0.6-1-0.5-1.6c0.6-2.6,1.5-5.2,2.7-7.7L115,0l-2.7,0.5c0.1,0.6-5,13.3-5.2,14L94.1,47.9z"/>
	<path class="st0" d="M90.6,46.4c-1,2.3-1.7,4.8-2.1,7.3c-0.2,2.7,2.1,4.1,5.2,4.6v-0.1c-2.1-0.4-3.8-1.5-3.6-3.5
		c0.5-2.5,1.2-5,2.2-7.4l12.8-32.9c0.3-0.9,5.2-12.6,4.4-13.4l-2.6,0.5v0.1c0.1,2.9-3.2,10.7-3.9,12.5L90.6,46.4z"/>
	<path class="st0" d="M99,14.1L87,44.9c-1,2.2-1.6,4.5-2,6.8c-0.3,3.8,2.8,6.4,8.5,6.8c-1.2-0.1-2.4-0.4-3.5-0.8
		c-2.2-0.5-3.6-2.6-3.3-4.8c0.4-2.5,1.1-4.8,2.2-7.1l12.3-31.5c0.6-1.7,4.1-9.6,3.3-12.1l-2.5,0.5v0.1C103.2,4.7,99.9,12,99,14.1z"
		/>
	<path class="st0" d="M94.7,14.7L83.6,43.4c-0.9,2-1.5,4.2-1.9,6.4c-0.4,4.7,3.7,8.6,11.8,8.8c-6.8-0.4-10.5-3.6-10.1-7.8
		c0.3-2.3,1-4.5,1.9-6.6l11.5-29.5c1-2.7,4.1-9.3,2.4-11.5l-2.6,0.5v0.1C98.4,6.3,95.9,11.8,94.7,14.7z"/>
	<path class="st0" d="M93.4,58.8c-9.2-0.4-13.8-4.9-13.3-10.1c0.3-2.1,0.8-4.1,1.7-6l10.6-27.4c1.3-3.4,3.8-8.6,1.9-11.1l-2.4,0.5
		v0.1c2.1,2.3,0.1,6.1-1.3,9.9L80,41.9c-0.9,1.9-1.4,3.9-1.6,5.9C77.9,53.5,82.9,58.6,93.4,58.8L93.4,58.8z"/>
	<path class="st0" d="M81.3,24.3c-0.2-3.6-2.3-5.3-5-5.3c-4.7,0-8.8,3.7-11.4,8.8V26c-0.2-4-2.9-7-7.8-7C46.8,19,41.7,25.8,40,33.5
		h0.1c1.8-7.2,6.6-13.7,15.9-13.7c3.6-0.3,6.7,2.3,7,5.9c0,0.2,0,0.3,0,0.5c0.3,4.7-1.3,8.3-2.9,12.5l-7.5,19.7h2l7.5-19.5
		c0.5-1.3,1-2.6,1.4-3.8c1.5-3.1,3.3-6.3,4.3-6.3c0.7,0,0.9,0.6,1,1.2c0,2.9-0.8,5.8-2.2,8.4l0.1,0.1c2.3-2.6,3.7-5.8,3.9-9.3
		c0-1-0.5-1.7-1.5-1.7c-1.6,0-3.7,3.3-5.2,6.8c0.2-0.6,0.3-1.1,0.5-1.7c1.6-3.5,3.8-6.5,5.9-6.5c1.3,0,2,0.9,2.1,2.3
		c0.2,3.5-2.9,8.6-5.6,10.2l0.1,0.1c3.6-1.6,7.5-6.8,7.3-11.1c-0.1-1.9-1.1-2.9-2.7-2.9c-2.6,0-5.2,3.1-6.9,6.8
		c0-0.3,0.1-0.6,0.2-0.9c2-4.1,4.8-7.3,8-7.3c1.7,0,3.1,1.2,3.2,3.5c0.3,5.1-4.5,10.5-8.8,12l0.1,0.1c5.3-1.4,10.9-7.1,10.6-12.9
		c-0.1-2.8-1.7-4.1-3.8-4.1c-3.7,0-7,3.3-9,7.7v-0.7c2.3-4.7,6-8.3,10.3-8.3c2.3,0,4.2,1.5,4.4,4.7C80,31.9,73.7,37.6,67.4,39
		l0.1,0.1C74.8,37.9,81.7,31.8,81.3,24.3z"/>
	<path class="st0" d="M61.2,26.3c-0.1-3.3-2.7-5.9-6-5.8c-0.1,0-0.2,0-0.3,0c-8.2,0-13,6.1-14.6,13h0.1c1.8-6.4,6-12.2,13.4-12.2
		c2.8-0.3,5.3,1.8,5.6,4.6c0,0.2,0,0.3,0,0.5c0.2,3.9-1.6,8.2-3.1,12l-7.8,19.9h2.1l7.6-19.7C59.7,34.5,61.4,30.5,61.2,26.3z"/>
	<path class="st0" d="M57.5,26.4c0-2.4-2-4.4-4.4-4.4c-0.1,0-0.3,0-0.4,0c-6.5,0-10.4,5.6-12.1,11.5h0.1c1.8-5.5,5.5-10.7,10.9-10.7
		c2.1-0.1,3.9,1.4,4,3.5c0,0.1,0,0.2,0,0.2c0.2,3.1-2,8.1-3.4,11.6l-8,20.2h2.1l7.8-20.1C55.6,34.6,57.7,30,57.5,26.4z"/>
	<path class="st0" d="M53.8,26.7c0-1.7-1.3-3.1-3-3.1c-0.1,0-0.2,0-0.3,0c-4.4,0-7.9,4.8-9.6,9.9h0.1c1.8-4.5,4.8-9.1,8.4-9.1
		c1.3-0.1,2.4,0.8,2.6,2c0,0.1,0,0.2,0,0.4c0.1,2.4-2.3,8-3.5,11.1l-8.2,20.5h2.1L50.2,38C51.6,34.8,53.9,29.5,53.8,26.7z"/>
	<path class="st0" d="M50,26.9c0.1-0.9-0.6-1.8-1.5-1.8c-0.1,0-0.2,0-0.3,0c-2.6,0-5.4,4.1-7.1,8.4h0.1c1.7-3.8,4.4-7.6,5.9-7.6
		c0.6,0,1,0.3,1.1,1.1c0.1,1.7-2.7,7.9-3.8,10.6L36,58.2h2.1l8.3-20.5C47.5,34.8,50.1,28.9,50,26.9z"/>
	<path class="st0" d="M27.5,44.4l1.3-2.8l-4.5-22.9c-1.3-6.5,0.3-9.3,5.3-10.2V8.3H25c-1.4,0.7-4.2,2.7-2.6,10.3L27.5,44.4z"/>
	<path class="st0" d="M24.8,50l1.3-2.8l-5.9-28.7c-1.1-5.6-0.6-8.5,1.2-10.1V8.3h-3.2c-1,2.1-1.3,4.2-0.1,9.7L24.8,50z"/>
	<path class="st0" d="M22.1,55.5l1.3-2.7l-7.4-34.8c-1.3-5.4-1-7.9-0.5-9.6h-2.8c0,2.9,0.3,5.8,1.1,8.7L22.1,55.5z"/>
	<path class="st0" d="M10.2,8.3H6.9v0.1c1.5,1.8,1.9,4,3.1,8.8l8.8,41h2L12,17.2C11.2,14.3,10.6,11.3,10.2,8.3z"/>
	<path class="st0" d="M3.6,8.3H0v0.1c3.2,1.3,4.8,3.7,6.1,9.5l8.7,40.4h2L8.1,17.7C6.5,10.6,4.9,9.3,3.6,8.3z"/>
	<path class="st0" d="M48.8,8.3c-4.2,2.4-6.7,7-11.9,18.2l0.1,0.1c6-11.3,9.5-15.8,17.3-18.1V8.3H48.8z"/>
	<path class="st0" d="M36.6,26.3l0.1,0.1c5-11.7,6.3-14.9,8.3-18V8.3h-4v0.1C41.4,13.1,39.8,17.4,36.6,26.3z"/>
	<path class="st0" d="M36.3,26.1l0.1,0.1c3.1-10.5,4.2-15.1,1.4-17.9h-3.9v0.1C38.3,10,39.3,14.5,36.3,26.1z"/>
	<polygon class="st0" points="175.9,11.7 175.9,15.8 175.3,15.8 175.3,11.7 173.6,11.7 173.6,11.1 177.7,11.1 177.7,11.7 	"/>
	<polygon class="st0" points="182.8,15.8 182.8,11.8 181.4,15.7 180.7,15.7 179.4,11.8 179.4,15.8 178.8,15.8 179,11.1 180.1,11.1 
		181.3,15 182.6,11.1 183.6,11.1 183.8,15.8 	"/>
</g>
</svg>
