<?xml version="1.0" encoding="utf-8"?>
<!-- Generator: Adobe Illustrator 24.3.0, SVG Export Plug-In . SVG Version: 6.00 Build 0)  -->
<svg version="1.1"
	 id="svg2985" inkscape:version="0.48.5 r10040" sodipodi:docname="Bloomberg_tv_2016.png" xmlns:cc="http://creativecommons.org/ns#" xmlns:dc="http://purl.org/dc/elements/1.1/" xmlns:inkscape="http://www.inkscape.org/namespaces/inkscape" xmlns:rdf="http://www.w3.org/1999/02/22-rdf-syntax-ns#" xmlns:sodipodi="http://sodipodi.sourceforge.net/DTD/sodipodi-0.dtd" xmlns:svg="http://www.w3.org/2000/svg"
	 xmlns="http://www.w3.org/2000/svg" xmlns:xlink="http://www.w3.org/1999/xlink" x="0px" y="0px" viewBox="0 0 254.9 79.6"
	 style="enable-background:new 0 0 254.9 79.6;" xml:space="preserve">
<style type="text/css">
	.st0{fill:#BBCACC;}
	.st1{fill-rule:evenodd;clip-rule:evenodd;fill:#BBCACC;}
	.st2{fill:none;}
	.st3{fill:#FFFFFF;}
</style>
<path class="st0" d="M134.3,20c0,2.9-2.3,5.2-5.2,5.2c-2.9,0-5.2-2.3-5.2-5.2s2.2-5.2,5.2-5.2C132.1,14.9,134.3,17.2,134.3,20z
	 M113,30.4c0,0.5,0,1.3,0,1.3s-2.5-3.2-7.7-3.2c-8.7,0-15.4,6.6-15.4,15.8c0,9.1,6.7,15.8,15.4,15.8c5.3,0,7.7-3.3,7.7-3.3v1.4
	c0,0.6,0.5,1.1,1.1,1.1h6.5V29.3c0,0-5.9,0-6.5,0C113.5,29.3,113,29.9,113,30.4z M113,49.6c-1.2,1.8-3.6,3.3-6.5,3.3
	c-5.1,0-9-3.2-9-8.6s3.9-8.6,9-8.6c2.8,0,5.3,1.6,6.5,3.3V49.6z M125.3,29.3h7.6v29.9h-7.6V29.3z M239.5,28.5
	c-5.3,0-7.7,3.2-7.7,3.2V14.9h-7.6v44.4c0,0,5.9,0,6.5,0c0.6,0,1.1-0.6,1.1-1.1v-1.4l0,0c0,0,2.5,3.3,7.7,3.3
	c8.7,0,15.4-6.7,15.4-15.8C254.9,35.2,248.1,28.5,239.5,28.5z M238.3,52.8c-2.9,0-5.3-1.5-6.5-3.3V38.9c1.2-1.6,3.7-3.3,6.5-3.3
	c5.1,0,9,3.2,9,8.6S243.4,52.8,238.3,52.8z M220.2,41.5v17.8h-7.6v-17c0-4.9-1.6-6.9-5.9-6.9c-2.3,0-4.7,1.2-6.2,2.9v20.9h-7.6V29.3
	h6.1c0.6,0,1.1,0.6,1.1,1.1v1.3c2.2-2.3,5.2-3.2,8.1-3.2c3.3,0,6.1,1,8.4,2.9C219.2,33.6,220.2,36.5,220.2,41.5z M174.2,28.5
	c-5.3,0-7.7,3.2-7.7,3.2V14.9h-7.6v44.4c0,0,5.9,0,6.5,0c0.6,0,1.1-0.6,1.1-1.1v-1.4l0,0c0,0,2.5,3.3,7.7,3.3
	c8.7,0,15.4-6.7,15.4-15.8C189.7,35.2,182.9,28.5,174.2,28.5z M173,52.8c-2.9,0-5.3-1.5-6.5-3.3V38.9c1.2-1.6,3.7-3.3,6.5-3.3
	c5.1,0,9,3.2,9,8.6S178.1,52.8,173,52.8z M152.3,28.5c2.3,0,3.5,0.4,3.5,0.4V36c0,0-6.4-2.2-10.4,2.4v20.9h-7.6v-30c0,0,5.9,0,6.5,0
	c0.6,0,1.1,0.6,1.1,1.1v1.3C146.8,30,149.9,28.5,152.3,28.5z M72.9,56.5c-0.4-1-0.8-2-1.2-2.9c-0.6-1.4-1.3-2.8-1.8-4.1l-0.1-0.1
	c-5.5-11.9-11.4-24-17.6-36l-0.2-0.5c-0.6-1.2-1.3-2.5-1.9-3.7c-0.8-1.4-1.6-2.9-2.9-4.4C44.6,1.8,40.9,0,37,0
	c-4,0-7.6,1.8-10.2,4.8c-1.2,1.4-2.1,2.9-2.9,4.4c-0.6,1.3-1.3,2.5-1.9,3.7l-0.2,0.5c-6.1,11.9-12.1,24-17.6,36l-0.1,0.2
	c-0.6,1.3-1.2,2.6-1.8,4.1c-0.4,0.9-0.8,1.8-1.2,2.9c-1,2.9-1.4,5.7-1,8.6C1,71,5,76,10.5,78.3c2.1,0.9,4.2,1.3,6.5,1.3
	c0.6,0,1.4-0.1,2.1-0.2c2.6-0.3,5.3-1.2,8-2.7c3.3-1.8,6.4-4.5,9.9-8.3c3.5,3.8,6.7,6.5,9.9,8.3c2.6,1.5,5.3,2.4,8,2.7
	c0.6,0.1,1.4,0.2,2.1,0.2c2.2,0,4.5-0.4,6.5-1.3c5.6-2.2,9.5-7.3,10.4-13.2C74.2,62.3,73.9,59.5,72.9,56.5z M37,60.7
	c-4.3-5.4-7.1-10.5-8-14.8c-0.4-1.8-0.5-3.4-0.2-4.9c0.2-1.3,0.6-2.4,1.3-3.3c1.5-2.2,4.1-3.5,7-3.5c2.9,0,5.6,1.3,7,3.5
	c0.6,1,1.1,2.1,1.3,3.3c0.2,1.4,0.2,3.1-0.2,4.9C44,50.1,41.3,55.2,37,60.7z M68.7,64.4c-0.6,4.1-3.3,7.7-7.2,9.3
	c-1.9,0.8-4,1-6.1,0.8c-2-0.2-4-0.9-6.1-2.1c-2.9-1.6-5.7-4.1-9.1-7.7c5.3-6.5,8.4-12.3,9.6-17.6c0.6-2.5,0.6-4.7,0.4-6.8
	c-0.3-2-1-3.8-2.2-5.4c-2.5-3.6-6.6-5.7-11.2-5.7s-8.8,2.2-11.2,5.7c-1.1,1.6-1.8,3.4-2.2,5.4c-0.3,2.1-0.2,4.4,0.4,6.8
	c1.2,5.3,4.5,11.2,9.6,17.7c-3.3,3.7-6.2,6.1-9.1,7.7c-2.1,1.2-4.1,1.8-6.1,2.1c-2.2,0.2-4.2-0.1-6.1-0.8c-3.9-1.6-6.7-5.2-7.2-9.3
	c-0.2-2-0.1-4,0.7-6.2c0.2-0.8,0.6-1.6,1-2.5c0.6-1.3,1.2-2.6,1.8-4l0.1-0.2c5.5-11.9,11.4-24,17.5-35.8l0.2-0.5
	c0.6-1.2,1.3-2.5,1.9-3.7c0.6-1.3,1.4-2.5,2.2-3.5c1.7-1.9,3.9-2.9,6.4-2.9c2.5,0,4.7,1,6.4,2.9c0.9,1,1.6,2.2,2.2,3.5
	c0.6,1.2,1.3,2.5,1.9,3.7l0.2,0.5c6.1,11.9,11.9,24,17.4,35.8v0.1c0.6,1.3,1.2,2.7,1.8,4c0.4,1,0.8,1.8,1,2.5
	C68.8,60.4,69,62.4,68.7,64.4z"/>
</svg>
