<?xml version="1.0" encoding="utf-8"?>
<!-- Generator: Adobe Illustrator 25.2.1, SVG Export Plug-In . SVG Version: 6.00 Build 0)  -->
<svg version="1.1" id="Layer_1" xmlns="http://www.w3.org/2000/svg" xmlns:xlink="http://www.w3.org/1999/xlink" x="0px" y="0px"
	 viewBox="0 0 157.1 296.1" style="enable-background:new 0 0 157.1 296.1;" xml:space="preserve">
<style type="text/css">
	.st0{fill:#DDF0F2;}
</style>
<g id="Group_104" transform="translate(-548.772 -1406.451)">
	<path id="Path_134" class="st0" d="M704.9,1456.9l-4.5,4.5c-0.3,0.3-0.7,0.3-1,0c0,0,0,0,0,0l-2.2-2.2c-0.3-0.3-0.3-0.7,0-1
		l3.9-3.9l0.2-6.2l-6.2,0.2l-3.9,3.9c-0.3,0.3-0.7,0.3-1,0l-2.2-2.2c-0.3-0.3-0.3-0.7,0-1l4.5-4.5c0.4-0.4,1-0.6,1.5-0.7l9.5-0.3
		c1.3,0,2.3,0.9,2.3,2.2c0,0,0,0.1,0,0.1l-0.3,9.5C705.6,1456,705.3,1456.5,704.9,1456.9z"/>
	<path id="Path_135" class="st0" d="M649.3,1456.9l-4.5,4.5c-0.3,0.3-0.7,0.3-1,0c0,0,0,0,0,0l-2.2-2.2c-0.3-0.3-0.3-0.7,0-1
		c0,0,0,0,0,0l3.9-3.9l0.2-6.2l-6.2,0.2l-3.9,3.9c-0.3,0.3-0.7,0.3-1,0l-2.2-2.2c-0.3-0.3-0.3-0.7,0-1l4.5-4.5
		c0.4-0.4,1-0.6,1.5-0.7l9.5-0.3c1.3,0,2.3,0.9,2.3,2.2c0,0,0,0.1,0,0.1l-0.3,9.5C650,1456,649.8,1456.5,649.3,1456.9z"/>
	<path id="Path_136" class="st0" d="M704.9,1419.9l-4.5,4.5c-0.3,0.3-0.7,0.3-1,0c0,0,0,0,0,0l-2.2-2.2c-0.3-0.3-0.3-0.7,0-1
		l3.9-3.9l0.2-6.2l-6.2,0.2l-3.9,3.9c-0.3,0.3-0.7,0.3-1,0l-2.2-2.2c-0.3-0.3-0.3-0.7,0-1l4.5-4.5c0.4-0.4,1-0.6,1.5-0.7l9.5-0.3
		c1.3,0,2.3,0.9,2.3,2.2c0,0,0,0.1,0,0.1l-0.3,9.5C705.6,1418.9,705.3,1419.5,704.9,1419.9z"/>
	<path id="Path_137" class="st0" d="M677.1,1438.4l-4.5,4.5c-0.3,0.3-0.7,0.3-1,0c0,0,0,0,0,0l-2.2-2.2c-0.3-0.3-0.3-0.7,0-1
		l3.9-3.9l0.2-6.2l-6.2,0.2l-3.9,3.9c-0.3,0.3-0.7,0.3-1,0l-2.2-2.2c-0.3-0.3-0.3-0.7,0-1l4.5-4.5c0.4-0.4,1-0.6,1.5-0.7l9.5-0.3
		c1.3,0,2.3,0.9,2.3,2.2c0,0,0,0.1,0,0.1l-0.3,9.5C677.8,1437.4,677.6,1438,677.1,1438.4z"/>
	<path id="Path_138" class="st0" d="M649.3,1419.9l-4.5,4.5c-0.3,0.3-0.7,0.3-1,0c0,0,0,0,0,0l-2.2-2.2c-0.3-0.3-0.3-0.7,0-1
		c0,0,0,0,0,0l3.9-3.9l0.2-6.2l-6.2,0.2l-3.9,3.9c-0.3,0.3-0.7,0.3-1,0l-2.2-2.2c-0.3-0.3-0.3-0.7,0-1l4.5-4.5
		c0.4-0.4,1-0.6,1.5-0.7l9.5-0.3c1.3,0,2.3,0.9,2.3,2.2c0,0,0,0.1,0,0.1l-0.3,9.5C650,1418.9,649.8,1419.5,649.3,1419.9z"/>
	<path id="Path_139" class="st0" d="M704.9,1494l-4.5,4.5c-0.3,0.3-0.7,0.3-1,0c0,0,0,0,0,0l-2.2-2.2c-0.3-0.3-0.3-0.7,0-1l3.9-3.9
		l0.2-6.2l-6.2,0.2l-3.9,3.9c-0.3,0.3-0.7,0.3-1,0l-2.2-2.2c-0.3-0.3-0.3-0.7,0-1l4.5-4.5c0.4-0.4,1-0.6,1.5-0.7l9.5-0.3
		c1.3,0,2.3,0.9,2.3,2.2c0,0,0,0.1,0,0.1l-0.3,9.5C705.6,1493,705.3,1493.6,704.9,1494z"/>
	<path id="Path_140" class="st0" d="M649.3,1494l-4.5,4.5c-0.3,0.3-0.7,0.3-1,0c0,0,0,0,0,0l-2.2-2.2c-0.3-0.3-0.3-0.7,0-1l3.9-3.9
		l0.2-6.2l-6.2,0.2l-3.9,3.9c-0.3,0.3-0.7,0.3-1,0l-2.2-2.2c-0.3-0.3-0.3-0.7,0-1l4.5-4.5c0.4-0.4,1-0.6,1.5-0.7l9.5-0.3
		c1.3,0,2.3,0.9,2.3,2.2c0,0,0,0.1,0,0.1l-0.3,9.5C650,1493,649.8,1493.6,649.3,1494z"/>
	<path id="Path_141" class="st0" d="M704.9,1456.9l-4.5,4.5c-0.3,0.3-0.7,0.3-1,0c0,0,0,0,0,0l-2.2-2.2c-0.3-0.3-0.3-0.7,0-1
		l3.9-3.9l0.2-6.2l-6.2,0.2l-3.9,3.9c-0.3,0.3-0.7,0.3-1,0l-2.2-2.2c-0.3-0.3-0.3-0.7,0-1l4.5-4.5c0.4-0.4,1-0.6,1.5-0.7l9.5-0.3
		c1.3,0,2.3,0.9,2.3,2.2c0,0,0,0.1,0,0.1l-0.3,9.5C705.6,1456,705.3,1456.5,704.9,1456.9z"/>
	<path id="Path_142" class="st0" d="M677.1,1475.5l-4.5,4.5c-0.3,0.3-0.7,0.3-1,0c0,0,0,0,0,0l-2.2-2.2c-0.3-0.3-0.3-0.7,0-1
		l3.9-3.9l0.2-6.2l-6.2,0.2l-3.9,3.9c-0.3,0.3-0.7,0.3-1,0l-2.2-2.2c-0.3-0.3-0.3-0.7,0-1c0,0,0,0,0,0l4.5-4.5
		c0.4-0.4,1-0.6,1.5-0.7l9.5-0.3c1.3,0,2.3,0.9,2.3,2.2c0,0,0,0.1,0,0.1l-0.3,9.5C677.8,1474.5,677.6,1475,677.1,1475.5z"/>
	<path id="Path_143" class="st0" d="M649.3,1456.9l-4.5,4.5c-0.3,0.3-0.7,0.3-1,0c0,0,0,0,0,0l-2.2-2.2c-0.3-0.3-0.3-0.7,0-1
		c0,0,0,0,0,0l3.9-3.9l0.2-6.2l-6.2,0.2l-3.9,3.9c-0.3,0.3-0.7,0.3-1,0l-2.2-2.2c-0.3-0.3-0.3-0.7,0-1l4.5-4.5
		c0.4-0.4,1-0.6,1.5-0.7l9.5-0.3c1.3,0,2.3,0.9,2.3,2.2c0,0,0,0.1,0,0.1l-0.3,9.5C650,1456,649.8,1456.5,649.3,1456.9z"/>
	<path id="Path_144" class="st0" d="M704.9,1531l-4.5,4.5c-0.3,0.3-0.7,0.3-1,0c0,0,0,0,0,0l-2.2-2.2c-0.3-0.3-0.3-0.7,0-1l3.9-3.9
		l0.2-6.2l-6.2,0.2l-3.9,3.9c-0.3,0.3-0.7,0.3-1,0l-2.2-2.2c-0.3-0.3-0.3-0.7,0-1l4.5-4.5c0.4-0.4,1-0.6,1.5-0.7l9.5-0.3
		c1.3,0,2.3,0.9,2.3,2.2c0,0,0,0.1,0,0.1l-0.3,9.5C705.6,1530.1,705.3,1530.6,704.9,1531z"/>
	<path id="Path_145" class="st0" d="M649.3,1531l-4.5,4.5c-0.3,0.3-0.7,0.3-1,0c0,0,0,0,0,0l-2.2-2.2c-0.3-0.3-0.3-0.7,0-1
		c0,0,0,0,0,0l3.9-3.9l0.2-6.2l-6.2,0.2l-3.9,3.9c-0.3,0.3-0.7,0.3-1,0l-2.2-2.2c-0.3-0.3-0.3-0.7,0-1l4.5-4.5
		c0.4-0.4,1-0.6,1.5-0.7l9.5-0.3c1.3,0,2.3,0.9,2.3,2.2c0,0,0,0.1,0,0.1l-0.3,9.5C650,1530.1,649.8,1530.6,649.3,1531z"/>
	<path id="Path_146" class="st0" d="M704.9,1494l-4.5,4.5c-0.3,0.3-0.7,0.3-1,0c0,0,0,0,0,0l-2.2-2.2c-0.3-0.3-0.3-0.7,0-1l3.9-3.9
		l0.2-6.2l-6.2,0.2l-3.9,3.9c-0.3,0.3-0.7,0.3-1,0l-2.2-2.2c-0.3-0.3-0.3-0.7,0-1l4.5-4.5c0.4-0.4,1-0.6,1.5-0.7l9.5-0.3
		c1.3,0,2.3,0.9,2.3,2.2c0,0,0,0.1,0,0.1l-0.3,9.5C705.6,1493,705.3,1493.6,704.9,1494z"/>
	<path id="Path_147" class="st0" d="M677.1,1512.5l-4.5,4.5c-0.3,0.3-0.7,0.3-1,0c0,0,0,0,0,0l-2.2-2.2c-0.3-0.3-0.3-0.7,0-1
		l3.9-3.9l0.2-6.2l-6.2,0.2l-3.9,3.9c-0.3,0.3-0.7,0.3-1,0l-2.2-2.2c-0.3-0.3-0.3-0.7,0-1l4.5-4.5c0.4-0.4,1-0.6,1.5-0.7l9.5-0.3
		c1.3,0,2.3,0.9,2.3,2.2c0,0,0,0.1,0,0.1l-0.3,9.5C677.8,1511.5,677.6,1512.1,677.1,1512.5z"/>
	<path id="Path_148" class="st0" d="M649.3,1494l-4.5,4.5c-0.3,0.3-0.7,0.3-1,0c0,0,0,0,0,0l-2.2-2.2c-0.3-0.3-0.3-0.7,0-1l3.9-3.9
		l0.2-6.2l-6.2,0.2l-3.9,3.9c-0.3,0.3-0.7,0.3-1,0l-2.2-2.2c-0.3-0.3-0.3-0.7,0-1l4.5-4.5c0.4-0.4,1-0.6,1.5-0.7l9.5-0.3
		c1.3,0,2.3,0.9,2.3,2.2c0,0,0,0.1,0,0.1l-0.3,9.5C650,1493,649.8,1493.6,649.3,1494z"/>
	<path id="Path_149" class="st0" d="M704.9,1568.1l-4.5,4.5c-0.3,0.3-0.7,0.3-1,0c0,0,0,0,0,0l-2.2-2.2c-0.3-0.3-0.3-0.7,0-1
		l3.9-3.9l0.2-6.2l-6.2,0.2l-3.9,3.9c-0.3,0.3-0.7,0.3-1,0l-2.2-2.2c-0.3-0.3-0.3-0.7,0-1l4.5-4.5c0.4-0.4,1-0.6,1.5-0.7l9.5-0.3
		c1.3,0,2.3,0.9,2.3,2.2c0,0,0,0.1,0,0.1l-0.3,9.5C705.6,1567.1,705.3,1567.7,704.9,1568.1z"/>
	<path id="Path_150" class="st0" d="M649.3,1568.1l-4.5,4.5c-0.3,0.3-0.7,0.3-1,0c0,0,0,0,0,0l-2.2-2.2c-0.3-0.3-0.3-0.7,0-1
		c0,0,0,0,0,0l3.9-3.9l0.2-6.2l-6.2,0.2l-3.9,3.9c-0.3,0.3-0.7,0.3-1,0l-2.2-2.2c-0.3-0.3-0.3-0.7,0-1l4.5-4.5
		c0.4-0.4,1-0.6,1.5-0.7l9.5-0.3c1.3,0,2.3,0.9,2.3,2.2c0,0,0,0.1,0,0.1l-0.3,9.5C650,1567.1,649.8,1567.7,649.3,1568.1z"/>
	<path id="Path_151" class="st0" d="M704.9,1531l-4.5,4.5c-0.3,0.3-0.7,0.3-1,0c0,0,0,0,0,0l-2.2-2.2c-0.3-0.3-0.3-0.7,0-1l3.9-3.9
		l0.2-6.2l-6.2,0.2l-3.9,3.9c-0.3,0.3-0.7,0.3-1,0l-2.2-2.2c-0.3-0.3-0.3-0.7,0-1l4.5-4.5c0.4-0.4,1-0.6,1.5-0.7l9.5-0.3
		c1.3,0,2.3,0.9,2.3,2.2c0,0,0,0.1,0,0.1l-0.3,9.5C705.6,1530.1,705.3,1530.6,704.9,1531z"/>
	<path id="Path_152" class="st0" d="M677.1,1549.6l-4.5,4.5c-0.3,0.3-0.7,0.3-1,0c0,0,0,0,0,0l-2.2-2.2c-0.3-0.3-0.3-0.7,0-1
		l3.9-3.9l0.2-6.2l-6.2,0.2l-3.9,3.9c-0.3,0.3-0.7,0.3-1,0l-2.2-2.2c-0.3-0.3-0.3-0.7,0-1l4.5-4.5c0.4-0.4,1-0.6,1.5-0.7l9.5-0.3
		c1.3,0,2.3,0.9,2.3,2.2c0,0,0,0.1,0,0.1l-0.3,9.5C677.8,1548.6,677.6,1549.2,677.1,1549.6z"/>
	<path id="Path_153" class="st0" d="M649.3,1531l-4.5,4.5c-0.3,0.3-0.7,0.3-1,0c0,0,0,0,0,0l-2.2-2.2c-0.3-0.3-0.3-0.7,0-1
		c0,0,0,0,0,0l3.9-3.9l0.2-6.2l-6.2,0.2l-3.9,3.9c-0.3,0.3-0.7,0.3-1,0l-2.2-2.2c-0.3-0.3-0.3-0.7,0-1l4.5-4.5
		c0.4-0.4,1-0.6,1.5-0.7l9.5-0.3c1.3,0,2.3,0.9,2.3,2.2c0,0,0,0.1,0,0.1l-0.3,9.5C650,1530.1,649.8,1530.6,649.3,1531z"/>
	<path id="Path_154" class="st0" d="M704.9,1605.2l-4.5,4.5c-0.3,0.3-0.7,0.3-1,0l-2.2-2.2c-0.3-0.3-0.3-0.7,0-1l3.9-3.9l0.2-6.2
		l-6.2,0.2l-3.9,3.9c-0.3,0.3-0.7,0.3-1,0l-2.2-2.2c-0.3-0.3-0.3-0.7,0-1l4.5-4.5c0.4-0.4,1-0.6,1.5-0.7l9.5-0.3
		c1.3,0,2.3,0.9,2.3,2.2c0,0,0,0.1,0,0.1l-0.3,9.5C705.6,1604.2,705.3,1604.7,704.9,1605.2z"/>
	<path id="Path_155" class="st0" d="M649.3,1605.2l-4.5,4.5c-0.3,0.3-0.7,0.3-1,0l-2.2-2.2c-0.3-0.3-0.3-0.7,0-1c0,0,0,0,0,0
		l3.9-3.9l0.2-6.2l-6.2,0.2l-3.9,3.9c-0.3,0.3-0.7,0.3-1,0l-2.2-2.2c-0.3-0.3-0.3-0.7,0-1l4.5-4.5c0.4-0.4,1-0.6,1.5-0.7l9.5-0.3
		c1.3,0,2.3,0.9,2.3,2.2c0,0,0,0.1,0,0.1l-0.3,9.5C650,1604.2,649.8,1604.7,649.3,1605.2z"/>
	<path id="Path_156" class="st0" d="M704.9,1568.1l-4.5,4.5c-0.3,0.3-0.7,0.3-1,0c0,0,0,0,0,0l-2.2-2.2c-0.3-0.3-0.3-0.7,0-1
		l3.9-3.9l0.2-6.2l-6.2,0.2l-3.9,3.9c-0.3,0.3-0.7,0.3-1,0l-2.2-2.2c-0.3-0.3-0.3-0.7,0-1l4.5-4.5c0.4-0.4,1-0.6,1.5-0.7l9.5-0.3
		c1.3,0,2.3,0.9,2.3,2.2c0,0,0,0.1,0,0.1l-0.3,9.5C705.6,1567.1,705.3,1567.7,704.9,1568.1z"/>
	<path id="Path_157" class="st0" d="M677.1,1586.6l-4.5,4.5c-0.3,0.3-0.7,0.3-1,0c0,0,0,0,0,0l-2.2-2.2c-0.3-0.3-0.3-0.7,0-1
		l3.9-3.9l0.2-6.2l-6.2,0.2l-3.9,3.9c-0.3,0.3-0.7,0.3-1,0l-2.2-2.2c-0.3-0.3-0.3-0.7,0-1l4.5-4.5c0.4-0.4,1-0.6,1.5-0.7l9.5-0.3
		c1.3,0,2.3,0.9,2.3,2.2c0,0,0,0.1,0,0.1l-0.3,9.5C677.8,1585.7,677.6,1586.2,677.1,1586.6z"/>
	<path id="Path_158" class="st0" d="M649.3,1568.1l-4.5,4.5c-0.3,0.3-0.7,0.3-1,0c0,0,0,0,0,0l-2.2-2.2c-0.3-0.3-0.3-0.7,0-1
		c0,0,0,0,0,0l3.9-3.9l0.2-6.2l-6.2,0.2l-3.9,3.9c-0.3,0.3-0.7,0.3-1,0l-2.2-2.2c-0.3-0.3-0.3-0.7,0-1l4.5-4.5
		c0.4-0.4,1-0.6,1.5-0.7l9.5-0.3c1.3,0,2.3,0.9,2.3,2.2c0,0,0,0.1,0,0.1l-0.3,9.5C650,1567.1,649.8,1567.7,649.3,1568.1z"/>
	<path id="Path_159" class="st0" d="M704.9,1642.2l-4.5,4.5c-0.3,0.3-0.7,0.3-1,0c0,0,0,0,0,0l-2.2-2.2c-0.3-0.3-0.3-0.7,0-1
		l3.9-3.9l0.2-6.2l-6.2,0.2l-3.9,3.9c-0.3,0.3-0.7,0.3-1,0l-2.2-2.2c-0.3-0.3-0.3-0.7,0-1l4.5-4.5c0.4-0.4,1-0.6,1.5-0.7l9.5-0.3
		c1.3,0,2.3,0.9,2.3,2.2c0,0,0,0.1,0,0.1l-0.3,9.5C705.6,1641.3,705.3,1641.8,704.9,1642.2z"/>
	<path id="Path_160" class="st0" d="M649.3,1642.2l-4.5,4.5c-0.3,0.3-0.7,0.3-1,0c0,0,0,0,0,0l-2.2-2.2c-0.3-0.3-0.3-0.7,0-1
		c0,0,0,0,0,0l3.9-3.9l0.2-6.2l-6.2,0.2l-3.9,3.9c-0.3,0.3-0.7,0.3-1,0l-2.2-2.2c-0.3-0.3-0.3-0.7,0-1l4.5-4.5
		c0.4-0.4,1-0.6,1.5-0.7l9.5-0.3c1.3,0,2.3,0.9,2.3,2.2c0,0,0,0.1,0,0.1l-0.3,9.5C650,1641.3,649.8,1641.8,649.3,1642.2z"/>
	<path id="Path_161" class="st0" d="M704.9,1605.2l-4.5,4.5c-0.3,0.3-0.7,0.3-1,0l-2.2-2.2c-0.3-0.3-0.3-0.7,0-1l3.9-3.9l0.2-6.2
		l-6.2,0.2l-3.9,3.9c-0.3,0.3-0.7,0.3-1,0l-2.2-2.2c-0.3-0.3-0.3-0.7,0-1l4.5-4.5c0.4-0.4,1-0.6,1.5-0.7l9.5-0.3
		c1.3,0,2.3,0.9,2.3,2.2c0,0,0,0.1,0,0.1l-0.3,9.5C705.6,1604.2,705.3,1604.7,704.9,1605.2z"/>
	<path id="Path_162" class="st0" d="M677.1,1623.7l-4.5,4.5c-0.3,0.3-0.7,0.3-1,0c0,0,0,0,0,0l-2.2-2.2c-0.3-0.3-0.3-0.7,0-1
		l3.9-3.9l0.2-6.2l-6.2,0.2l-3.9,3.9c-0.3,0.3-0.7,0.3-1,0l-2.2-2.2c-0.3-0.3-0.3-0.7,0-1l4.5-4.5c0.4-0.4,1-0.6,1.5-0.7l9.5-0.3
		c1.3,0,2.3,0.9,2.3,2.2c0,0,0,0.1,0,0.1l-0.3,9.5C677.8,1622.7,677.6,1623.3,677.1,1623.7z"/>
	<path id="Path_163" class="st0" d="M649.3,1605.2l-4.5,4.5c-0.3,0.3-0.7,0.3-1,0l-2.2-2.2c-0.3-0.3-0.3-0.7,0-1c0,0,0,0,0,0
		l3.9-3.9l0.2-6.2l-6.2,0.2l-3.9,3.9c-0.3,0.3-0.7,0.3-1,0l-2.2-2.2c-0.3-0.3-0.3-0.7,0-1l4.5-4.5c0.4-0.4,1-0.6,1.5-0.7l9.5-0.3
		c1.3,0,2.3,0.9,2.3,2.2c0,0,0,0.1,0,0.1l-0.3,9.5C650,1604.2,649.8,1604.7,649.3,1605.2z"/>
	<path id="Path_164" class="st0" d="M704.9,1679.3l-4.5,4.5c-0.3,0.3-0.7,0.3-1,0c0,0,0,0,0,0l-2.2-2.2c-0.3-0.3-0.3-0.7,0-1
		l3.9-3.9l0.2-6.2l-6.2,0.2l-3.9,3.9c-0.3,0.3-0.7,0.3-1,0l-2.2-2.2c-0.3-0.3-0.3-0.7,0-1l4.5-4.5c0.4-0.4,1-0.6,1.5-0.7l9.5-0.3
		c1.3,0,2.3,0.9,2.3,2.2c0,0,0,0.1,0,0.1l-0.3,9.5C705.6,1678.3,705.3,1678.9,704.9,1679.3z"/>
	<path id="Path_165" class="st0" d="M649.3,1679.3l-4.5,4.5c-0.3,0.3-0.7,0.3-1,0c0,0,0,0,0,0l-2.2-2.2c-0.3-0.3-0.3-0.7,0-1
		c0,0,0,0,0,0l3.9-3.9l0.2-6.2l-6.2,0.2l-3.9,3.9c-0.3,0.3-0.7,0.3-1,0l-2.2-2.2c-0.3-0.3-0.3-0.7,0-1l4.5-4.5
		c0.4-0.4,1-0.6,1.5-0.7l9.5-0.3c1.3,0,2.3,0.9,2.3,2.2c0,0,0,0.1,0,0.1l-0.3,9.5C650,1678.3,649.8,1678.9,649.3,1679.3z"/>
	<path id="Path_166" class="st0" d="M704.9,1642.2l-4.5,4.5c-0.3,0.3-0.7,0.3-1,0c0,0,0,0,0,0l-2.2-2.2c-0.3-0.3-0.3-0.7,0-1
		l3.9-3.9l0.2-6.2l-6.2,0.2l-3.9,3.9c-0.3,0.3-0.7,0.3-1,0l-2.2-2.2c-0.3-0.3-0.3-0.7,0-1l4.5-4.5c0.4-0.4,1-0.6,1.5-0.7l9.5-0.3
		c1.3,0,2.3,0.9,2.3,2.2c0,0,0,0.1,0,0.1l-0.3,9.5C705.6,1641.3,705.3,1641.8,704.9,1642.2z"/>
	<path id="Path_167" class="st0" d="M677.1,1660.7l-4.5,4.5c-0.3,0.3-0.7,0.3-1,0c0,0,0,0,0,0l-2.2-2.2c-0.3-0.3-0.3-0.7,0-1
		l3.9-3.9l0.2-6.2l-6.2,0.2l-3.9,3.9c-0.3,0.3-0.7,0.3-1,0l-2.2-2.2c-0.3-0.3-0.3-0.7,0-1l4.5-4.5c0.4-0.4,1-0.6,1.5-0.7l9.5-0.3
		c1.3,0,2.3,0.9,2.3,2.2c0,0,0,0.1,0,0.1l-0.3,9.5C677.8,1659.8,677.6,1660.3,677.1,1660.7z"/>
	<path id="Path_168" class="st0" d="M649.3,1642.2l-4.5,4.5c-0.3,0.3-0.7,0.3-1,0c0,0,0,0,0,0l-2.2-2.2c-0.3-0.3-0.3-0.7,0-1
		c0,0,0,0,0,0l3.9-3.9l0.2-6.2l-6.2,0.2l-3.9,3.9c-0.3,0.3-0.7,0.3-1,0l-2.2-2.2c-0.3-0.3-0.3-0.7,0-1l4.5-4.5
		c0.4-0.4,1-0.6,1.5-0.7l9.5-0.3c1.3,0,2.3,0.9,2.3,2.2c0,0,0,0.1,0,0.1l-0.3,9.5C650,1641.3,649.8,1641.8,649.3,1642.2z"/>
	<path id="Path_169" class="st0" d="M704.9,1679.3l-4.5,4.5c-0.3,0.3-0.7,0.3-1,0c0,0,0,0,0,0l-2.2-2.2c-0.3-0.3-0.3-0.7,0-1
		l3.9-3.9l0.2-6.2l-6.2,0.2l-3.9,3.9c-0.3,0.3-0.7,0.3-1,0l-2.2-2.2c-0.3-0.3-0.3-0.7,0-1l4.5-4.5c0.4-0.4,1-0.6,1.5-0.7l9.5-0.3
		c1.3,0,2.3,0.9,2.3,2.2c0,0,0,0.1,0,0.1l-0.3,9.5C705.6,1678.3,705.3,1678.9,704.9,1679.3z"/>
	<path id="Path_170" class="st0" d="M677.1,1697.8l-4.5,4.5c-0.3,0.3-0.7,0.3-1,0c0,0,0,0,0,0l-2.2-2.2c-0.3-0.3-0.3-0.7,0-1
		c0,0,0,0,0,0l3.9-3.9l0.2-6.2l-6.2,0.2l-3.9,3.9c-0.3,0.3-0.7,0.3-1,0l-2.2-2.2c-0.3-0.3-0.3-0.7,0-1c0,0,0,0,0,0l4.5-4.5
		c0.4-0.4,1-0.6,1.5-0.7l9.5-0.3c1.3,0,2.3,0.9,2.3,2.2c0,0,0,0.1,0,0.1l-0.3,9.5C677.8,1696.8,677.6,1697.4,677.1,1697.8z"/>
	<path id="Path_171" class="st0" d="M649.3,1679.3l-4.5,4.5c-0.3,0.3-0.7,0.3-1,0c0,0,0,0,0,0l-2.2-2.2c-0.3-0.3-0.3-0.7,0-1
		c0,0,0,0,0,0l3.9-3.9l0.2-6.2l-6.2,0.2l-3.9,3.9c-0.3,0.3-0.7,0.3-1,0l-2.2-2.2c-0.3-0.3-0.3-0.7,0-1l4.5-4.5
		c0.4-0.4,1-0.6,1.5-0.7l9.5-0.3c1.3,0,2.3,0.9,2.3,2.2c0,0,0,0.1,0,0.1l-0.3,9.5C650,1678.3,649.8,1678.9,649.3,1679.3z"/>
	<path id="Path_172" class="st0" d="M649.3,1456.9l-4.5,4.5c-0.3,0.3-0.7,0.3-1,0c0,0,0,0,0,0l-2.2-2.2c-0.3-0.3-0.3-0.7,0-1
		c0,0,0,0,0,0l3.9-3.9l0.2-6.2l-6.2,0.2l-3.9,3.9c-0.3,0.3-0.7,0.3-1,0l-2.2-2.2c-0.3-0.3-0.3-0.7,0-1l4.5-4.5
		c0.4-0.4,1-0.6,1.5-0.7l9.5-0.3c1.3,0,2.3,0.9,2.3,2.2c0,0,0,0.1,0,0.1l-0.3,9.5C650,1456,649.8,1456.5,649.3,1456.9z"/>
	<path id="Path_173" class="st0" d="M593.8,1456.9l-4.5,4.5c-0.3,0.3-0.7,0.3-1,0c0,0,0,0,0,0l-2.2-2.2c-0.3-0.3-0.3-0.7,0-1
		c0,0,0,0,0,0l3.9-3.9l0.2-6.2l-6.2,0.2l-3.9,3.9c-0.3,0.3-0.7,0.3-1,0l-2.2-2.2c-0.3-0.3-0.3-0.7,0-1c0,0,0,0,0,0l4.5-4.5
		c0.4-0.4,1-0.6,1.5-0.7l9.5-0.3c1.3,0,2.3,0.9,2.3,2.2c0,0,0,0.1,0,0.1l-0.3,9.5C594.4,1456,594.2,1456.5,593.8,1456.9z"/>
	<path id="Path_174" class="st0" d="M649.3,1419.9l-4.5,4.5c-0.3,0.3-0.7,0.3-1,0c0,0,0,0,0,0l-2.2-2.2c-0.3-0.3-0.3-0.7,0-1
		c0,0,0,0,0,0l3.9-3.9l0.2-6.2l-6.2,0.2l-3.9,3.9c-0.3,0.3-0.7,0.3-1,0l-2.2-2.2c-0.3-0.3-0.3-0.7,0-1l4.5-4.5
		c0.4-0.4,1-0.6,1.5-0.7l9.5-0.3c1.3,0,2.3,0.9,2.3,2.2c0,0,0,0.1,0,0.1l-0.3,9.5C650,1418.9,649.8,1419.5,649.3,1419.9z"/>
	<path id="Path_175" class="st0" d="M621.6,1438.4l-4.5,4.5c-0.3,0.3-0.7,0.3-1,0c0,0,0,0,0,0l-2.2-2.2c-0.3-0.3-0.3-0.7,0-1
		l3.9-3.9l0.2-6.2l-6.2,0.2l-3.9,3.9c-0.3,0.3-0.7,0.3-1,0l-2.2-2.2c-0.3-0.3-0.3-0.7,0-1l4.5-4.5c0.4-0.4,1-0.6,1.5-0.7l9.5-0.3
		c1.3,0,2.3,0.9,2.3,2.2c0,0,0,0.1,0,0.1l-0.3,9.5C622.2,1437.4,622,1438,621.6,1438.4z"/>
	<path id="Path_176" class="st0" d="M593.8,1419.9l-4.5,4.5c-0.3,0.3-0.7,0.3-1,0c0,0,0,0,0,0l-2.2-2.2c-0.3-0.3-0.3-0.7,0-1
		c0,0,0,0,0,0l3.9-3.9l0.2-6.2l-6.2,0.2l-3.9,3.9c-0.3,0.3-0.7,0.3-1,0l-2.2-2.2c-0.3-0.3-0.3-0.7,0-1c0,0,0,0,0,0l4.5-4.5
		c0.4-0.4,1-0.6,1.5-0.7l9.5-0.3c1.3,0,2.3,0.9,2.3,2.2c0,0,0,0.1,0,0.1l-0.3,9.5C594.4,1418.9,594.2,1419.5,593.8,1419.9z"/>
	<path id="Path_177" class="st0" d="M649.3,1494l-4.5,4.5c-0.3,0.3-0.7,0.3-1,0c0,0,0,0,0,0l-2.2-2.2c-0.3-0.3-0.3-0.7,0-1l3.9-3.9
		l0.2-6.2l-6.2,0.2l-3.9,3.9c-0.3,0.3-0.7,0.3-1,0l-2.2-2.2c-0.3-0.3-0.3-0.7,0-1l4.5-4.5c0.4-0.4,1-0.6,1.5-0.7l9.5-0.3
		c1.3,0,2.3,0.9,2.3,2.2c0,0,0,0.1,0,0.1l-0.3,9.5C650,1493,649.8,1493.6,649.3,1494z"/>
	<path id="Path_178" class="st0" d="M593.8,1494l-4.5,4.5c-0.3,0.3-0.7,0.3-1,0c0,0,0,0,0,0l-2.2-2.2c-0.3-0.3-0.3-0.7,0-1l3.9-3.9
		l0.2-6.2l-6.2,0.2l-3.9,3.9c-0.3,0.3-0.7,0.3-1,0l-2.2-2.2c-0.3-0.3-0.3-0.7,0-1c0,0,0,0,0,0l4.5-4.5c0.4-0.4,1-0.6,1.5-0.7
		l9.5-0.3c1.3,0,2.3,0.9,2.3,2.2c0,0,0,0.1,0,0.1l-0.3,9.5C594.4,1493,594.2,1493.6,593.8,1494z"/>
	<path id="Path_179" class="st0" d="M649.3,1456.9l-4.5,4.5c-0.3,0.3-0.7,0.3-1,0c0,0,0,0,0,0l-2.2-2.2c-0.3-0.3-0.3-0.7,0-1
		c0,0,0,0,0,0l3.9-3.9l0.2-6.2l-6.2,0.2l-3.9,3.9c-0.3,0.3-0.7,0.3-1,0l-2.2-2.2c-0.3-0.3-0.3-0.7,0-1l4.5-4.5
		c0.4-0.4,1-0.6,1.5-0.7l9.5-0.3c1.3,0,2.3,0.9,2.3,2.2c0,0,0,0.1,0,0.1l-0.3,9.5C650,1456,649.8,1456.5,649.3,1456.9z"/>
	<path id="Path_180" class="st0" d="M621.6,1475.5l-4.5,4.5c-0.3,0.3-0.7,0.3-1,0c0,0,0,0,0,0l-2.2-2.2c-0.3-0.3-0.3-0.7,0-1
		l3.9-3.9l0.2-6.2l-6.2,0.2l-3.9,3.9c-0.3,0.3-0.7,0.3-1,0l-2.2-2.2c-0.3-0.3-0.3-0.7,0-1l4.5-4.5c0.4-0.4,1-0.6,1.5-0.7l9.5-0.3
		c1.3,0,2.3,0.9,2.3,2.2c0,0,0,0.1,0,0.1l-0.3,9.5C622.2,1474.5,622,1475,621.6,1475.5z"/>
	<path id="Path_181" class="st0" d="M593.8,1456.9l-4.5,4.5c-0.3,0.3-0.7,0.3-1,0c0,0,0,0,0,0l-2.2-2.2c-0.3-0.3-0.3-0.7,0-1
		c0,0,0,0,0,0l3.9-3.9l0.2-6.2l-6.2,0.2l-3.9,3.9c-0.3,0.3-0.7,0.3-1,0l-2.2-2.2c-0.3-0.3-0.3-0.7,0-1c0,0,0,0,0,0l4.5-4.5
		c0.4-0.4,1-0.6,1.5-0.7l9.5-0.3c1.3,0,2.3,0.9,2.3,2.2c0,0,0,0.1,0,0.1l-0.3,9.5C594.4,1456,594.2,1456.5,593.8,1456.9z"/>
	<path id="Path_182" class="st0" d="M649.3,1531l-4.5,4.5c-0.3,0.3-0.7,0.3-1,0c0,0,0,0,0,0l-2.2-2.2c-0.3-0.3-0.3-0.7,0-1
		c0,0,0,0,0,0l3.9-3.9l0.2-6.2l-6.2,0.2l-3.9,3.9c-0.3,0.3-0.7,0.3-1,0l-2.2-2.2c-0.3-0.3-0.3-0.7,0-1l4.5-4.5
		c0.4-0.4,1-0.6,1.5-0.7l9.5-0.3c1.3,0,2.3,0.9,2.3,2.2c0,0,0,0.1,0,0.1l-0.3,9.5C650,1530.1,649.8,1530.6,649.3,1531z"/>
	<path id="Path_183" class="st0" d="M593.8,1531l-4.5,4.5c-0.3,0.3-0.7,0.3-1,0c0,0,0,0,0,0l-2.2-2.2c-0.3-0.3-0.3-0.7,0-1
		c0,0,0,0,0,0l3.9-3.9l0.2-6.2l-6.2,0.2l-3.9,3.9c-0.3,0.3-0.7,0.3-1,0l-2.2-2.2c-0.3-0.3-0.3-0.7,0-1c0,0,0,0,0,0l4.5-4.5
		c0.4-0.4,1-0.6,1.5-0.7l9.5-0.3c1.3,0,2.3,0.9,2.3,2.2c0,0,0,0.1,0,0.1l-0.3,9.5C594.4,1530.1,594.2,1530.6,593.8,1531z"/>
	<path id="Path_184" class="st0" d="M649.3,1494l-4.5,4.5c-0.3,0.3-0.7,0.3-1,0c0,0,0,0,0,0l-2.2-2.2c-0.3-0.3-0.3-0.7,0-1l3.9-3.9
		l0.2-6.2l-6.2,0.2l-3.9,3.9c-0.3,0.3-0.7,0.3-1,0l-2.2-2.2c-0.3-0.3-0.3-0.7,0-1l4.5-4.5c0.4-0.4,1-0.6,1.5-0.7l9.5-0.3
		c1.3,0,2.3,0.9,2.3,2.2c0,0,0,0.1,0,0.1l-0.3,9.5C650,1493,649.8,1493.6,649.3,1494z"/>
	<path id="Path_185" class="st0" d="M621.6,1512.5l-4.5,4.5c-0.3,0.3-0.7,0.3-1,0c0,0,0,0,0,0l-2.2-2.2c-0.3-0.3-0.3-0.7,0-1
		l3.9-3.9l0.2-6.2l-6.2,0.2l-3.9,3.9c-0.3,0.3-0.7,0.3-1,0l-2.2-2.2c-0.3-0.3-0.3-0.7,0-1l4.5-4.5c0.4-0.4,1-0.6,1.5-0.7l9.5-0.3
		c1.3,0,2.3,0.9,2.3,2.2c0,0,0,0.1,0,0.1l-0.3,9.5C622.2,1511.5,622,1512.1,621.6,1512.5z"/>
	<path id="Path_186" class="st0" d="M593.8,1494l-4.5,4.5c-0.3,0.3-0.7,0.3-1,0c0,0,0,0,0,0l-2.2-2.2c-0.3-0.3-0.3-0.7,0-1l3.9-3.9
		l0.2-6.2l-6.2,0.2l-3.9,3.9c-0.3,0.3-0.7,0.3-1,0l-2.2-2.2c-0.3-0.3-0.3-0.7,0-1c0,0,0,0,0,0l4.5-4.5c0.4-0.4,1-0.6,1.5-0.7
		l9.5-0.3c1.3,0,2.3,0.9,2.3,2.2c0,0,0,0.1,0,0.1l-0.3,9.5C594.4,1493,594.2,1493.6,593.8,1494z"/>
	<path id="Path_187" class="st0" d="M649.3,1568.1l-4.5,4.5c-0.3,0.3-0.7,0.3-1,0c0,0,0,0,0,0l-2.2-2.2c-0.3-0.3-0.3-0.7,0-1
		c0,0,0,0,0,0l3.9-3.9l0.2-6.2l-6.2,0.2l-3.9,3.9c-0.3,0.3-0.7,0.3-1,0l-2.2-2.2c-0.3-0.3-0.3-0.7,0-1l4.5-4.5
		c0.4-0.4,1-0.6,1.5-0.7l9.5-0.3c1.3,0,2.3,0.9,2.3,2.2c0,0,0,0.1,0,0.1l-0.3,9.5C650,1567.1,649.8,1567.7,649.3,1568.1z"/>
	<path id="Path_188" class="st0" d="M593.8,1568.1l-4.5,4.5c-0.3,0.3-0.7,0.3-1,0c0,0,0,0,0,0l-2.2-2.2c-0.3-0.3-0.3-0.7,0-1
		c0,0,0,0,0,0l3.9-3.9l0.2-6.2l-6.2,0.2l-3.9,3.9c-0.3,0.3-0.7,0.3-1,0l-2.2-2.2c-0.3-0.3-0.3-0.7,0-1c0,0,0,0,0,0l4.5-4.5
		c0.4-0.4,1-0.6,1.5-0.7l9.5-0.3c1.3,0,2.3,0.9,2.3,2.2c0,0,0,0.1,0,0.1l-0.3,9.5C594.4,1567.1,594.2,1567.7,593.8,1568.1z"/>
	<path id="Path_189" class="st0" d="M649.3,1531l-4.5,4.5c-0.3,0.3-0.7,0.3-1,0c0,0,0,0,0,0l-2.2-2.2c-0.3-0.3-0.3-0.7,0-1
		c0,0,0,0,0,0l3.9-3.9l0.2-6.2l-6.2,0.2l-3.9,3.9c-0.3,0.3-0.7,0.3-1,0l-2.2-2.2c-0.3-0.3-0.3-0.7,0-1l4.5-4.5
		c0.4-0.4,1-0.6,1.5-0.7l9.5-0.3c1.3,0,2.3,0.9,2.3,2.2c0,0,0,0.1,0,0.1l-0.3,9.5C650,1530.1,649.8,1530.6,649.3,1531z"/>
	<path id="Path_190" class="st0" d="M621.6,1549.6l-4.5,4.5c-0.3,0.3-0.7,0.3-1,0c0,0,0,0,0,0l-2.2-2.2c-0.3-0.3-0.3-0.7,0-1
		l3.9-3.9l0.2-6.2l-6.2,0.2l-3.9,3.9c-0.3,0.3-0.7,0.3-1,0l-2.2-2.2c-0.3-0.3-0.3-0.7,0-1l4.5-4.5c0.4-0.4,1-0.6,1.5-0.7l9.5-0.3
		c1.3,0,2.3,0.9,2.3,2.2c0,0,0,0.1,0,0.1l-0.3,9.5C622.2,1548.6,622,1549.2,621.6,1549.6z"/>
	<path id="Path_191" class="st0" d="M593.8,1531l-4.5,4.5c-0.3,0.3-0.7,0.3-1,0c0,0,0,0,0,0l-2.2-2.2c-0.3-0.3-0.3-0.7,0-1
		c0,0,0,0,0,0l3.9-3.9l0.2-6.2l-6.2,0.2l-3.9,3.9c-0.3,0.3-0.7,0.3-1,0l-2.2-2.2c-0.3-0.3-0.3-0.7,0-1c0,0,0,0,0,0l4.5-4.5
		c0.4-0.4,1-0.6,1.5-0.7l9.5-0.3c1.3,0,2.3,0.9,2.3,2.2c0,0,0,0.1,0,0.1l-0.3,9.5C594.4,1530.1,594.2,1530.6,593.8,1531z"/>
	<path id="Path_192" class="st0" d="M649.3,1605.2l-4.5,4.5c-0.3,0.3-0.7,0.3-1,0l-2.2-2.2c-0.3-0.3-0.3-0.7,0-1c0,0,0,0,0,0
		l3.9-3.9l0.2-6.2l-6.2,0.2l-3.9,3.9c-0.3,0.3-0.7,0.3-1,0l-2.2-2.2c-0.3-0.3-0.3-0.7,0-1l4.5-4.5c0.4-0.4,1-0.6,1.5-0.7l9.5-0.3
		c1.3,0,2.3,0.9,2.3,2.2c0,0,0,0.1,0,0.1l-0.3,9.5C650,1604.2,649.8,1604.7,649.3,1605.2z"/>
	<path id="Path_193" class="st0" d="M593.8,1605.2l-4.5,4.5c-0.3,0.3-0.7,0.3-1,0l-2.2-2.2c-0.3-0.3-0.3-0.7,0-1c0,0,0,0,0,0
		l3.9-3.9l0.2-6.2l-6.2,0.2l-3.9,3.9c-0.3,0.3-0.7,0.3-1,0l-2.2-2.2c-0.3-0.3-0.3-0.7,0-1l4.5-4.5c0.4-0.4,1-0.6,1.5-0.7l9.5-0.3
		c1.3,0,2.3,0.9,2.3,2.2c0,0,0,0.1,0,0.1l-0.3,9.5C594.4,1604.2,594.2,1604.7,593.8,1605.2z"/>
	<path id="Path_194" class="st0" d="M649.3,1568.1l-4.5,4.5c-0.3,0.3-0.7,0.3-1,0c0,0,0,0,0,0l-2.2-2.2c-0.3-0.3-0.3-0.7,0-1
		c0,0,0,0,0,0l3.9-3.9l0.2-6.2l-6.2,0.2l-3.9,3.9c-0.3,0.3-0.7,0.3-1,0l-2.2-2.2c-0.3-0.3-0.3-0.7,0-1l4.5-4.5
		c0.4-0.4,1-0.6,1.5-0.7l9.5-0.3c1.3,0,2.3,0.9,2.3,2.2c0,0,0,0.1,0,0.1l-0.3,9.5C650,1567.1,649.8,1567.7,649.3,1568.1z"/>
	<path id="Path_195" class="st0" d="M621.6,1586.6l-4.5,4.5c-0.3,0.3-0.7,0.3-1,0c0,0,0,0,0,0l-2.2-2.2c-0.3-0.3-0.3-0.7,0-1
		l3.9-3.9l0.2-6.2l-6.2,0.2l-3.9,3.9c-0.3,0.3-0.7,0.3-1,0l-2.2-2.2c-0.3-0.3-0.3-0.7,0-1l4.5-4.5c0.4-0.4,1-0.6,1.5-0.7l9.5-0.3
		c1.3,0,2.3,0.9,2.3,2.2c0,0,0,0.1,0,0.1l-0.3,9.5C622.2,1585.7,622,1586.2,621.6,1586.6z"/>
	<path id="Path_196" class="st0" d="M593.8,1568.1l-4.5,4.5c-0.3,0.3-0.7,0.3-1,0c0,0,0,0,0,0l-2.2-2.2c-0.3-0.3-0.3-0.7,0-1
		c0,0,0,0,0,0l3.9-3.9l0.2-6.2l-6.2,0.2l-3.9,3.9c-0.3,0.3-0.7,0.3-1,0l-2.2-2.2c-0.3-0.3-0.3-0.7,0-1c0,0,0,0,0,0l4.5-4.5
		c0.4-0.4,1-0.6,1.5-0.7l9.5-0.3c1.3,0,2.3,0.9,2.3,2.2c0,0,0,0.1,0,0.1l-0.3,9.5C594.4,1567.1,594.2,1567.7,593.8,1568.1z"/>
	<path id="Path_197" class="st0" d="M649.3,1642.2l-4.5,4.5c-0.3,0.3-0.7,0.3-1,0c0,0,0,0,0,0l-2.2-2.2c-0.3-0.3-0.3-0.7,0-1
		c0,0,0,0,0,0l3.9-3.9l0.2-6.2l-6.2,0.2l-3.9,3.9c-0.3,0.3-0.7,0.3-1,0l-2.2-2.2c-0.3-0.3-0.3-0.7,0-1l4.5-4.5
		c0.4-0.4,1-0.6,1.5-0.7l9.5-0.3c1.3,0,2.3,0.9,2.3,2.2c0,0,0,0.1,0,0.1l-0.3,9.5C650,1641.3,649.8,1641.8,649.3,1642.2z"/>
	<path id="Path_198" class="st0" d="M593.8,1642.2l-4.5,4.5c-0.3,0.3-0.7,0.3-1,0c0,0,0,0,0,0l-2.2-2.2c-0.3-0.3-0.3-0.7,0-1
		c0,0,0,0,0,0l3.9-3.9l0.2-6.2l-6.2,0.2l-3.9,3.9c-0.3,0.3-0.7,0.3-1,0l-2.2-2.2c-0.3-0.3-0.3-0.7,0-1c0,0,0,0,0,0l4.5-4.5
		c0.4-0.4,1-0.6,1.5-0.7l9.5-0.3c1.3,0,2.3,0.9,2.3,2.2c0,0,0,0.1,0,0.1l-0.3,9.5C594.4,1641.3,594.2,1641.8,593.8,1642.2z"/>
	<path id="Path_199" class="st0" d="M649.3,1605.2l-4.5,4.5c-0.3,0.3-0.7,0.3-1,0l-2.2-2.2c-0.3-0.3-0.3-0.7,0-1c0,0,0,0,0,0
		l3.9-3.9l0.2-6.2l-6.2,0.2l-3.9,3.9c-0.3,0.3-0.7,0.3-1,0l-2.2-2.2c-0.3-0.3-0.3-0.7,0-1l4.5-4.5c0.4-0.4,1-0.6,1.5-0.7l9.5-0.3
		c1.3,0,2.3,0.9,2.3,2.2c0,0,0,0.1,0,0.1l-0.3,9.5C650,1604.2,649.8,1604.7,649.3,1605.2z"/>
	<path id="Path_200" class="st0" d="M621.6,1623.7l-4.5,4.5c-0.3,0.3-0.7,0.3-1,0c0,0,0,0,0,0l-2.2-2.2c-0.3-0.3-0.3-0.7,0-1
		l3.9-3.9l0.2-6.2l-6.2,0.2l-3.9,3.9c-0.3,0.3-0.7,0.3-1,0l-2.2-2.2c-0.3-0.3-0.3-0.7,0-1l4.5-4.5c0.4-0.4,1-0.6,1.5-0.7l9.5-0.3
		c1.3,0,2.3,0.9,2.3,2.2c0,0,0,0.1,0,0.1l-0.3,9.5C622.2,1622.7,622,1623.3,621.6,1623.7z"/>
	<path id="Path_201" class="st0" d="M593.8,1605.2l-4.5,4.5c-0.3,0.3-0.7,0.3-1,0l-2.2-2.2c-0.3-0.3-0.3-0.7,0-1c0,0,0,0,0,0
		l3.9-3.9l0.2-6.2l-6.2,0.2l-3.9,3.9c-0.3,0.3-0.7,0.3-1,0l-2.2-2.2c-0.3-0.3-0.3-0.7,0-1l4.5-4.5c0.4-0.4,1-0.6,1.5-0.7l9.5-0.3
		c1.3,0,2.3,0.9,2.3,2.2c0,0,0,0.1,0,0.1l-0.3,9.5C594.4,1604.2,594.2,1604.7,593.8,1605.2z"/>
	<path id="Path_202" class="st0" d="M649.3,1679.3l-4.5,4.5c-0.3,0.3-0.7,0.3-1,0c0,0,0,0,0,0l-2.2-2.2c-0.3-0.3-0.3-0.7,0-1
		c0,0,0,0,0,0l3.9-3.9l0.2-6.2l-6.2,0.2l-3.9,3.9c-0.3,0.3-0.7,0.3-1,0l-2.2-2.2c-0.3-0.3-0.3-0.7,0-1l4.5-4.5
		c0.4-0.4,1-0.6,1.5-0.7l9.5-0.3c1.3,0,2.3,0.9,2.3,2.2c0,0,0,0.1,0,0.1l-0.3,9.5C650,1678.3,649.8,1678.9,649.3,1679.3z"/>
	<path id="Path_203" class="st0" d="M593.8,1679.3l-4.5,4.5c-0.3,0.3-0.7,0.3-1,0c0,0,0,0,0,0l-2.2-2.2c-0.3-0.3-0.3-0.7,0-1
		c0,0,0,0,0,0l3.9-3.9l0.2-6.2l-6.2,0.2l-3.9,3.9c-0.3,0.3-0.7,0.3-1,0l-2.2-2.2c-0.3-0.3-0.3-0.7,0-1c0,0,0,0,0,0l4.5-4.5
		c0.4-0.4,1-0.6,1.5-0.7l9.5-0.3c1.3,0,2.3,0.9,2.3,2.2c0,0,0,0.1,0,0.1l-0.3,9.5C594.4,1678.3,594.2,1678.9,593.8,1679.3z"/>
	<path id="Path_204" class="st0" d="M649.3,1642.2l-4.5,4.5c-0.3,0.3-0.7,0.3-1,0c0,0,0,0,0,0l-2.2-2.2c-0.3-0.3-0.3-0.7,0-1
		c0,0,0,0,0,0l3.9-3.9l0.2-6.2l-6.2,0.2l-3.9,3.9c-0.3,0.3-0.7,0.3-1,0l-2.2-2.2c-0.3-0.3-0.3-0.7,0-1l4.5-4.5
		c0.4-0.4,1-0.6,1.5-0.7l9.5-0.3c1.3,0,2.3,0.9,2.3,2.2c0,0,0,0.1,0,0.1l-0.3,9.5C650,1641.3,649.8,1641.8,649.3,1642.2z"/>
	<path id="Path_205" class="st0" d="M621.6,1660.7l-4.5,4.5c-0.3,0.3-0.7,0.3-1,0c0,0,0,0,0,0l-2.2-2.2c-0.3-0.3-0.3-0.7,0-1
		l3.9-3.9l0.2-6.2l-6.2,0.2l-3.9,3.9c-0.3,0.3-0.7,0.3-1,0l-2.2-2.2c-0.3-0.3-0.3-0.7,0-1l4.5-4.5c0.4-0.4,1-0.6,1.5-0.7l9.5-0.3
		c1.3,0,2.3,0.9,2.3,2.2c0,0,0,0.1,0,0.1l-0.3,9.5C622.2,1659.8,622,1660.3,621.6,1660.7z"/>
	<path id="Path_206" class="st0" d="M593.8,1642.2l-4.5,4.5c-0.3,0.3-0.7,0.3-1,0c0,0,0,0,0,0l-2.2-2.2c-0.3-0.3-0.3-0.7,0-1
		c0,0,0,0,0,0l3.9-3.9l0.2-6.2l-6.2,0.2l-3.9,3.9c-0.3,0.3-0.7,0.3-1,0l-2.2-2.2c-0.3-0.3-0.3-0.7,0-1c0,0,0,0,0,0l4.5-4.5
		c0.4-0.4,1-0.6,1.5-0.7l9.5-0.3c1.3,0,2.3,0.9,2.3,2.2c0,0,0,0.1,0,0.1l-0.3,9.5C594.4,1641.3,594.2,1641.8,593.8,1642.2z"/>
	<path id="Path_207" class="st0" d="M649.3,1679.3l-4.5,4.5c-0.3,0.3-0.7,0.3-1,0c0,0,0,0,0,0l-2.2-2.2c-0.3-0.3-0.3-0.7,0-1
		c0,0,0,0,0,0l3.9-3.9l0.2-6.2l-6.2,0.2l-3.9,3.9c-0.3,0.3-0.7,0.3-1,0l-2.2-2.2c-0.3-0.3-0.3-0.7,0-1l4.5-4.5
		c0.4-0.4,1-0.6,1.5-0.7l9.5-0.3c1.3,0,2.3,0.9,2.3,2.2c0,0,0,0.1,0,0.1l-0.3,9.5C650,1678.3,649.8,1678.9,649.3,1679.3z"/>
	<path id="Path_208" class="st0" d="M621.6,1697.8l-4.5,4.5c-0.3,0.3-0.7,0.3-1,0c0,0,0,0,0,0l-2.2-2.2c-0.3-0.3-0.3-0.7,0-1
		c0,0,0,0,0,0l3.9-3.9l0.2-6.2l-6.2,0.2l-3.9,3.9c-0.3,0.3-0.7,0.3-1,0l-2.2-2.2c-0.3-0.3-0.3-0.7,0-1l4.5-4.5
		c0.4-0.4,1-0.6,1.5-0.7l9.5-0.3c1.3,0,2.3,0.9,2.3,2.2c0,0,0,0.1,0,0.1l-0.3,9.5C622.2,1696.8,622,1697.4,621.6,1697.8z"/>
	<path id="Path_209" class="st0" d="M593.8,1679.3l-4.5,4.5c-0.3,0.3-0.7,0.3-1,0c0,0,0,0,0,0l-2.2-2.2c-0.3-0.3-0.3-0.7,0-1
		c0,0,0,0,0,0l3.9-3.9l0.2-6.2l-6.2,0.2l-3.9,3.9c-0.3,0.3-0.7,0.3-1,0l-2.2-2.2c-0.3-0.3-0.3-0.7,0-1c0,0,0,0,0,0l4.5-4.5
		c0.4-0.4,1-0.6,1.5-0.7l9.5-0.3c1.3,0,2.3,0.9,2.3,2.2c0,0,0,0.1,0,0.1l-0.3,9.5C594.4,1678.3,594.2,1678.9,593.8,1679.3z"/>
	<path id="Path_210" class="st0" d="M593.8,1456.9l-4.5,4.5c-0.3,0.3-0.7,0.3-1,0c0,0,0,0,0,0l-2.2-2.2c-0.3-0.3-0.3-0.7,0-1
		c0,0,0,0,0,0l3.9-3.9l0.2-6.2l-6.2,0.2l-3.9,3.9c-0.3,0.3-0.7,0.3-1,0l-2.2-2.2c-0.3-0.3-0.3-0.7,0-1c0,0,0,0,0,0l4.5-4.5
		c0.4-0.4,1-0.6,1.5-0.7l9.5-0.3c1.3,0,2.3,0.9,2.3,2.2c0,0,0,0.1,0,0.1l-0.3,9.5C594.4,1456,594.2,1456.5,593.8,1456.9z"/>
	<path id="Path_211" class="st0" d="M593.8,1419.9l-4.5,4.5c-0.3,0.3-0.7,0.3-1,0c0,0,0,0,0,0l-2.2-2.2c-0.3-0.3-0.3-0.7,0-1
		c0,0,0,0,0,0l3.9-3.9l0.2-6.2l-6.2,0.2l-3.9,3.9c-0.3,0.3-0.7,0.3-1,0l-2.2-2.2c-0.3-0.3-0.3-0.7,0-1c0,0,0,0,0,0l4.5-4.5
		c0.4-0.4,1-0.6,1.5-0.7l9.5-0.3c1.3,0,2.3,0.9,2.3,2.2c0,0,0,0.1,0,0.1l-0.3,9.5C594.4,1418.9,594.2,1419.5,593.8,1419.9z"/>
	<path id="Path_212" class="st0" d="M566,1438.4l-4.5,4.5c-0.3,0.3-0.7,0.3-1,0c0,0,0,0,0,0l-2.2-2.2c-0.3-0.3-0.3-0.7,0-1
		c0,0,0,0,0,0l3.9-3.9l0.2-6.2l-6.2,0.2l-3.9,3.9c-0.3,0.3-0.7,0.3-1,0l-2.2-2.2c-0.3-0.3-0.3-0.7,0-1c0,0,0,0,0,0l4.5-4.5
		c0.4-0.4,1-0.6,1.5-0.7l9.5-0.3c1.3,0,2.3,0.9,2.3,2.2c0,0,0,0.1,0,0.1l-0.3,9.5C566.6,1437.4,566.4,1438,566,1438.4z"/>
	<path id="Path_213" class="st0" d="M593.8,1494l-4.5,4.5c-0.3,0.3-0.7,0.3-1,0c0,0,0,0,0,0l-2.2-2.2c-0.3-0.3-0.3-0.7,0-1l3.9-3.9
		l0.2-6.2l-6.2,0.2l-3.9,3.9c-0.3,0.3-0.7,0.3-1,0l-2.2-2.2c-0.3-0.3-0.3-0.7,0-1c0,0,0,0,0,0l4.5-4.5c0.4-0.4,1-0.6,1.5-0.7
		l9.5-0.3c1.3,0,2.3,0.9,2.3,2.2c0,0,0,0.1,0,0.1l-0.3,9.5C594.4,1493,594.2,1493.6,593.8,1494z"/>
	<path id="Path_214" class="st0" d="M593.8,1456.9l-4.5,4.5c-0.3,0.3-0.7,0.3-1,0c0,0,0,0,0,0l-2.2-2.2c-0.3-0.3-0.3-0.7,0-1
		c0,0,0,0,0,0l3.9-3.9l0.2-6.2l-6.2,0.2l-3.9,3.9c-0.3,0.3-0.7,0.3-1,0l-2.2-2.2c-0.3-0.3-0.3-0.7,0-1c0,0,0,0,0,0l4.5-4.5
		c0.4-0.4,1-0.6,1.5-0.7l9.5-0.3c1.3,0,2.3,0.9,2.3,2.2c0,0,0,0.1,0,0.1l-0.3,9.5C594.4,1456,594.2,1456.5,593.8,1456.9z"/>
	<path id="Path_215" class="st0" d="M566,1475.5l-4.5,4.5c-0.3,0.3-0.7,0.3-1,0c0,0,0,0,0,0l-2.2-2.2c-0.3-0.3-0.3-0.7,0-1l3.9-3.9
		l0.2-6.2l-6.2,0.2l-3.9,3.9c-0.3,0.3-0.7,0.3-1,0l-2.2-2.2c-0.3-0.3-0.3-0.7,0-1c0,0,0,0,0,0l4.5-4.5c0.4-0.4,1-0.6,1.5-0.7
		l9.5-0.3c1.3,0,2.3,0.9,2.3,2.2c0,0,0,0.1,0,0.1l-0.3,9.5C566.6,1474.5,566.4,1475,566,1475.5z"/>
	<path id="Path_216" class="st0" d="M593.8,1531l-4.5,4.5c-0.3,0.3-0.7,0.3-1,0c0,0,0,0,0,0l-2.2-2.2c-0.3-0.3-0.3-0.7,0-1
		c0,0,0,0,0,0l3.9-3.9l0.2-6.2l-6.2,0.2l-3.9,3.9c-0.3,0.3-0.7,0.3-1,0l-2.2-2.2c-0.3-0.3-0.3-0.7,0-1c0,0,0,0,0,0l4.5-4.5
		c0.4-0.4,1-0.6,1.5-0.7l9.5-0.3c1.3,0,2.3,0.9,2.3,2.2c0,0,0,0.1,0,0.1l-0.3,9.5C594.4,1530.1,594.2,1530.6,593.8,1531z"/>
	<path id="Path_217" class="st0" d="M593.8,1494l-4.5,4.5c-0.3,0.3-0.7,0.3-1,0c0,0,0,0,0,0l-2.2-2.2c-0.3-0.3-0.3-0.7,0-1l3.9-3.9
		l0.2-6.2l-6.2,0.2l-3.9,3.9c-0.3,0.3-0.7,0.3-1,0l-2.2-2.2c-0.3-0.3-0.3-0.7,0-1c0,0,0,0,0,0l4.5-4.5c0.4-0.4,1-0.6,1.5-0.7
		l9.5-0.3c1.3,0,2.3,0.9,2.3,2.2c0,0,0,0.1,0,0.1l-0.3,9.5C594.4,1493,594.2,1493.6,593.8,1494z"/>
	<path id="Path_218" class="st0" d="M566,1512.5l-4.5,4.5c-0.3,0.3-0.7,0.3-1,0c0,0,0,0,0,0l-2.2-2.2c-0.3-0.3-0.3-0.7,0-1l3.9-3.9
		l0.2-6.2l-6.2,0.2l-3.9,3.9c-0.3,0.3-0.7,0.3-1,0l-2.2-2.2c-0.3-0.3-0.3-0.7,0-1c0,0,0,0,0,0l4.5-4.5c0.4-0.4,1-0.6,1.5-0.7
		l9.5-0.3c1.3,0,2.3,0.9,2.3,2.2c0,0,0,0.1,0,0.1l-0.3,9.5C566.6,1511.5,566.4,1512.1,566,1512.5z"/>
	<path id="Path_219" class="st0" d="M593.8,1568.1l-4.5,4.5c-0.3,0.3-0.7,0.3-1,0c0,0,0,0,0,0l-2.2-2.2c-0.3-0.3-0.3-0.7,0-1
		c0,0,0,0,0,0l3.9-3.9l0.2-6.2l-6.2,0.2l-3.9,3.9c-0.3,0.3-0.7,0.3-1,0l-2.2-2.2c-0.3-0.3-0.3-0.7,0-1c0,0,0,0,0,0l4.5-4.5
		c0.4-0.4,1-0.6,1.5-0.7l9.5-0.3c1.3,0,2.3,0.9,2.3,2.2c0,0,0,0.1,0,0.1l-0.3,9.5C594.4,1567.1,594.2,1567.7,593.8,1568.1z"/>
	<path id="Path_220" class="st0" d="M593.8,1531l-4.5,4.5c-0.3,0.3-0.7,0.3-1,0c0,0,0,0,0,0l-2.2-2.2c-0.3-0.3-0.3-0.7,0-1
		c0,0,0,0,0,0l3.9-3.9l0.2-6.2l-6.2,0.2l-3.9,3.9c-0.3,0.3-0.7,0.3-1,0l-2.2-2.2c-0.3-0.3-0.3-0.7,0-1c0,0,0,0,0,0l4.5-4.5
		c0.4-0.4,1-0.6,1.5-0.7l9.5-0.3c1.3,0,2.3,0.9,2.3,2.2c0,0,0,0.1,0,0.1l-0.3,9.5C594.4,1530.1,594.2,1530.6,593.8,1531z"/>
	<path id="Path_221" class="st0" d="M566,1549.6l-4.5,4.5c-0.3,0.3-0.7,0.3-1,0c0,0,0,0,0,0l-2.2-2.2c-0.3-0.3-0.3-0.7,0-1
		c0,0,0,0,0,0l3.9-3.9l0.2-6.2l-6.2,0.2l-3.9,3.9c-0.3,0.3-0.7,0.3-1,0l-2.2-2.2c-0.3-0.3-0.3-0.7,0-1c0,0,0,0,0,0l4.5-4.5
		c0.4-0.4,1-0.6,1.5-0.7l9.5-0.3c1.3,0,2.3,0.9,2.3,2.2c0,0,0,0.1,0,0.1l-0.3,9.5C566.6,1548.6,566.4,1549.2,566,1549.6z"/>
	<path id="Path_222" class="st0" d="M593.8,1605.2l-4.5,4.5c-0.3,0.3-0.7,0.3-1,0l-2.2-2.2c-0.3-0.3-0.3-0.7,0-1c0,0,0,0,0,0
		l3.9-3.9l0.2-6.2l-6.2,0.2l-3.9,3.9c-0.3,0.3-0.7,0.3-1,0l-2.2-2.2c-0.3-0.3-0.3-0.7,0-1l4.5-4.5c0.4-0.4,1-0.6,1.5-0.7l9.5-0.3
		c1.3,0,2.3,0.9,2.3,2.2c0,0,0,0.1,0,0.1l-0.3,9.5C594.4,1604.2,594.2,1604.7,593.8,1605.2z"/>
	<path id="Path_223" class="st0" d="M593.8,1568.1l-4.5,4.5c-0.3,0.3-0.7,0.3-1,0c0,0,0,0,0,0l-2.2-2.2c-0.3-0.3-0.3-0.7,0-1
		c0,0,0,0,0,0l3.9-3.9l0.2-6.2l-6.2,0.2l-3.9,3.9c-0.3,0.3-0.7,0.3-1,0l-2.2-2.2c-0.3-0.3-0.3-0.7,0-1c0,0,0,0,0,0l4.5-4.5
		c0.4-0.4,1-0.6,1.5-0.7l9.5-0.3c1.3,0,2.3,0.9,2.3,2.2c0,0,0,0.1,0,0.1l-0.3,9.5C594.4,1567.1,594.2,1567.7,593.8,1568.1z"/>
	<path id="Path_224" class="st0" d="M566,1586.6l-4.5,4.5c-0.3,0.3-0.7,0.3-1,0c0,0,0,0,0,0l-2.2-2.2c-0.3-0.3-0.3-0.7,0-1
		c0,0,0,0,0,0l3.9-3.9l0.2-6.2l-6.2,0.2l-3.9,3.9c-0.3,0.3-0.7,0.3-1,0l-2.2-2.2c-0.3-0.3-0.3-0.7,0-1c0,0,0,0,0,0l4.5-4.5
		c0.4-0.4,1-0.6,1.5-0.7l9.5-0.3c1.3,0,2.3,0.9,2.3,2.2c0,0,0,0.1,0,0.1l-0.3,9.5C566.6,1585.7,566.4,1586.2,566,1586.6z"/>
	<path id="Path_225" class="st0" d="M593.8,1642.2l-4.5,4.5c-0.3,0.3-0.7,0.3-1,0c0,0,0,0,0,0l-2.2-2.2c-0.3-0.3-0.3-0.7,0-1
		c0,0,0,0,0,0l3.9-3.9l0.2-6.2l-6.2,0.2l-3.9,3.9c-0.3,0.3-0.7,0.3-1,0l-2.2-2.2c-0.3-0.3-0.3-0.7,0-1c0,0,0,0,0,0l4.5-4.5
		c0.4-0.4,1-0.6,1.5-0.7l9.5-0.3c1.3,0,2.3,0.9,2.3,2.2c0,0,0,0.1,0,0.1l-0.3,9.5C594.4,1641.3,594.2,1641.8,593.8,1642.2z"/>
	<path id="Path_226" class="st0" d="M593.8,1605.2l-4.5,4.5c-0.3,0.3-0.7,0.3-1,0l-2.2-2.2c-0.3-0.3-0.3-0.7,0-1c0,0,0,0,0,0
		l3.9-3.9l0.2-6.2l-6.2,0.2l-3.9,3.9c-0.3,0.3-0.7,0.3-1,0l-2.2-2.2c-0.3-0.3-0.3-0.7,0-1l4.5-4.5c0.4-0.4,1-0.6,1.5-0.7l9.5-0.3
		c1.3,0,2.3,0.9,2.3,2.2c0,0,0,0.1,0,0.1l-0.3,9.5C594.4,1604.2,594.2,1604.7,593.8,1605.2z"/>
	<path id="Path_227" class="st0" d="M566,1623.7l-4.5,4.5c-0.3,0.3-0.7,0.3-1,0c0,0,0,0,0,0l-2.2-2.2c-0.3-0.3-0.3-0.7,0-1
		c0,0,0,0,0,0l3.9-3.9l0.2-6.2l-6.2,0.2l-3.9,3.9c-0.3,0.3-0.7,0.3-1,0l-2.2-2.2c-0.3-0.3-0.3-0.7,0-1l4.5-4.5
		c0.4-0.4,1-0.6,1.5-0.7l9.5-0.3c1.3,0,2.3,0.9,2.3,2.2c0,0,0,0.1,0,0.1l-0.3,9.5C566.6,1622.7,566.4,1623.3,566,1623.7z"/>
	<path id="Path_228" class="st0" d="M593.8,1679.3l-4.5,4.5c-0.3,0.3-0.7,0.3-1,0c0,0,0,0,0,0l-2.2-2.2c-0.3-0.3-0.3-0.7,0-1
		c0,0,0,0,0,0l3.9-3.9l0.2-6.2l-6.2,0.2l-3.9,3.9c-0.3,0.3-0.7,0.3-1,0l-2.2-2.2c-0.3-0.3-0.3-0.7,0-1c0,0,0,0,0,0l4.5-4.5
		c0.4-0.4,1-0.6,1.5-0.7l9.5-0.3c1.3,0,2.3,0.9,2.3,2.2c0,0,0,0.1,0,0.1l-0.3,9.5C594.4,1678.3,594.2,1678.9,593.8,1679.3z"/>
	<path id="Path_229" class="st0" d="M593.8,1642.2l-4.5,4.5c-0.3,0.3-0.7,0.3-1,0c0,0,0,0,0,0l-2.2-2.2c-0.3-0.3-0.3-0.7,0-1
		c0,0,0,0,0,0l3.9-3.9l0.2-6.2l-6.2,0.2l-3.9,3.9c-0.3,0.3-0.7,0.3-1,0l-2.2-2.2c-0.3-0.3-0.3-0.7,0-1c0,0,0,0,0,0l4.5-4.5
		c0.4-0.4,1-0.6,1.5-0.7l9.5-0.3c1.3,0,2.3,0.9,2.3,2.2c0,0,0,0.1,0,0.1l-0.3,9.5C594.4,1641.3,594.2,1641.8,593.8,1642.2z"/>
	<path id="Path_230" class="st0" d="M566,1660.7l-4.5,4.5c-0.3,0.3-0.7,0.3-1,0c0,0,0,0,0,0l-2.2-2.2c-0.3-0.3-0.3-0.7,0-1
		c0,0,0,0,0,0l3.9-3.9l0.2-6.2l-6.2,0.2l-3.9,3.9c-0.3,0.3-0.7,0.3-1,0l-2.2-2.2c-0.3-0.3-0.3-0.7,0-1c0,0,0,0,0,0l4.5-4.5
		c0.4-0.4,1-0.6,1.5-0.7l9.5-0.3c1.3,0,2.3,0.9,2.3,2.2c0,0,0,0.1,0,0.1l-0.3,9.5C566.6,1659.8,566.4,1660.3,566,1660.7z"/>
	<path id="Path_231" class="st0" d="M593.8,1679.3l-4.5,4.5c-0.3,0.3-0.7,0.3-1,0c0,0,0,0,0,0l-2.2-2.2c-0.3-0.3-0.3-0.7,0-1
		c0,0,0,0,0,0l3.9-3.9l0.2-6.2l-6.2,0.2l-3.9,3.9c-0.3,0.3-0.7,0.3-1,0l-2.2-2.2c-0.3-0.3-0.3-0.7,0-1c0,0,0,0,0,0l4.5-4.5
		c0.4-0.4,1-0.6,1.5-0.7l9.5-0.3c1.3,0,2.3,0.9,2.3,2.2c0,0,0,0.1,0,0.1l-0.3,9.5C594.4,1678.3,594.2,1678.9,593.8,1679.3z"/>
	<path id="Path_232" class="st0" d="M566,1697.8l-4.5,4.5c-0.3,0.3-0.7,0.3-1,0c0,0,0,0,0,0l-2.2-2.2c-0.3-0.3-0.3-0.7,0-1
		c0,0,0,0,0,0l3.9-3.9l0.2-6.2l-6.2,0.2l-3.9,3.9c-0.3,0.3-0.7,0.3-1,0l-2.2-2.2c-0.3-0.3-0.3-0.7,0-1c0,0,0,0,0,0l4.5-4.5
		c0.4-0.4,1-0.6,1.5-0.7l9.5-0.3c1.3,0,2.3,0.9,2.3,2.2c0,0,0,0.1,0,0.1l-0.3,9.5C566.6,1696.8,566.4,1697.4,566,1697.8z"/>
</g>
</svg>
