<?xml version="1.0" encoding="utf-8"?>
<!-- Generator: Adobe Illustrator 26.0.1, SVG Export Plug-In . SVG Version: 6.00 Build 0)  -->
<svg version="1.1" id="Layer_1" xmlns="http://www.w3.org/2000/svg" xmlns:xlink="http://www.w3.org/1999/xlink" x="0px" y="0px"
	 viewBox="0 0 923.1 303.9" style="enable-background:new 0 0 923.1 303.9;" xml:space="preserve">
<style type="text/css">
	.st0{fill:#FFFFFF;}
	.st1{fill:#BBCACC;}
</style>
<g>
	<path class="st1" d="M395,159.9c0,43.7-34.2,75.9-76.2,75.9s-76.2-32.2-76.2-75.9c0-44,34.2-75.9,76.2-75.9S395,115.9,395,159.9z
		 M361.7,159.9c0-27.3-19.8-46-42.8-46s-42.8,18.7-42.8,46c0,27,19.8,46,42.8,46S361.7,186.9,361.7,159.9z"/>
	<path class="st1" d="M559.3,159.9c0,43.7-34.2,75.9-76.2,75.9S407,203.6,407,159.9c0-44,34.2-75.9,76.2-75.9
		S559.3,115.9,559.3,159.9z M526,159.9c0-27.3-19.8-46-42.8-46s-42.8,18.7-42.8,46c0,27,19.8,46,42.8,46S526,186.9,526,159.9z"/>
	<path class="st1" d="M716.8,88.6v136.3c0,56.1-33.1,79-72.2,79c-36.8,0-59-24.6-67.3-44.7l29-12.1c5.2,12.4,17.8,26.9,38.2,26.9
		c25,0,40.5-15.4,40.5-44.5v-10.9H684c-7.5,9.2-21.8,17.3-40,17.3c-38,0-72.7-33.1-72.7-75.6C571.3,117.3,606,84,644,84
		c18.1,0,32.5,8,40,17h1.2V88.6L716.8,88.6L716.8,88.6z M687.5,160.2c0-26.7-17.8-46.3-40.5-46.3c-23,0-42.3,19.5-42.3,46.3
		c0,26.5,19.3,45.7,42.3,45.7C669.7,205.9,687.5,186.6,687.5,160.2z"/>
	<path class="st1" d="M769,8.7v222.5h-32.5V8.7L769,8.7z"/>
	<path class="st1" d="M895.8,184.9l25.9,17.3c-8.4,12.4-28.5,33.7-63.3,33.7c-43.1,0-75.3-33.3-75.3-75.9
		c0-45.2,32.5-75.9,71.6-75.9c39.4,0,58.7,31.4,65,48.3l3.5,8.6l-101.5,42c7.8,15.2,19.9,23,36.8,23
		C875.4,205.9,887.1,197.6,895.8,184.9L895.8,184.9z M816.1,157.6l67.9-28.2c-3.7-9.5-15-16.1-28.2-16.1
		C838.8,113.3,815.2,128.3,816.1,157.6z"/>
	<path class="st1" d="M119.6,140.2v-32.2h108.6c1.1,5.6,1.6,12.3,1.6,19.4c0,24.2-6.6,54.1-27.9,75.3
		c-20.7,21.6-47.2,33.1-82.2,33.1C54.6,235.8,0,182.9,0,117.9S54.6,0,119.6,0c35.9,0,61.6,14.1,80.8,32.5l-22.7,22.7
		c-13.8-12.9-32.5-23-58.1-23C72.1,32.2,35,70.5,35,117.9s37.1,85.7,84.6,85.7c30.8,0,48.3-12.4,59.5-23.6
		c9.1-9.1,15.1-22.1,17.5-39.9L119.6,140.2z"/>
</g>
</svg>
