<?xml version="1.0" encoding="utf-8"?>
<!-- Generator: Adobe Illustrator 25.2.1, SVG Export Plug-In . SVG Version: 6.00 Build 0)  -->
<svg version="1.1" id="Group_601" xmlns="http://www.w3.org/2000/svg" xmlns:xlink="http://www.w3.org/1999/xlink" x="0px" y="0px"
	 viewBox="0 0 33.8 33.8" style="enable-background:new 0 0 33.8 33.8;" xml:space="preserve">
<style type="text/css">
	.st0{fill:#1AB2C5;}
	.st1{fill:#C0D20F;}
	.st2{fill:#12575F;}
</style>
<g>
	<path id="Path_1771_1_" class="st2" d="M23.6,25.3H26c0.5,0,0.8-0.4,0.8-0.8c0,0,0,0,0,0v-3.1c0-0.5-0.4-0.8-0.8-0.8c0,0,0,0,0,0
		h-2.4c-0.5,0-0.8,0.4-0.8,0.8c0,0,0,0,0,0v3.1C22.8,25,23.1,25.3,23.6,25.3L23.6,25.3z M24.5,22.2h0.7v1.4h-0.7V22.2z M10.3,20.5
		H7.9c-0.5,0-0.8,0.4-0.8,0.8c0,0,0,0,0,0v3.1c0,0.5,0.4,0.8,0.8,0.8l0,0h2.4c0.5,0,0.8-0.4,0.8-0.8l0,0v-3.1
		C11.2,20.9,10.8,20.5,10.3,20.5C10.4,20.5,10.3,20.5,10.3,20.5L10.3,20.5z M9.5,23.7H8.8v-1.4h0.7L9.5,23.7z M32.9,18
		c0.5,0,0.8-0.4,0.8-0.8c0,0,0,0,0,0V5.5c0-0.5-0.4-0.8-0.8-0.8l0,0H9.8V0.8C9.8,0.4,9.4,0,9,0l0,0H5C4.6,0,4.2,0.4,4.2,0.8l0,0v3.8
		H0.9c-0.5,0-0.8,0.4-0.8,0.8l0,0v11.7c0,0.5,0.4,0.8,0.8,0.8c0,0,0,0,0,0h0.7v11.6H1.5c-0.8,0-1.5,0.9-1.5,2.1s0.7,2.1,1.5,2.1
		h30.8c0.8,0,1.5-0.9,1.5-2.1s-0.7-2.1-1.5-2.1h-0.2V18L32.9,18z M5.9,1.7h2.3v2.9H5.9L5.9,1.7z M19.7,20.5L19.7,20.5l-5.4,0.1
		c-0.5,0-0.8,0.4-0.8,0.8v8.2H3.3V18h27.1v11.6h-9.8v-8.2C20.6,20.9,20.2,20.5,19.7,20.5L19.7,20.5z M8.3,12.5v-2.3
		c0-0.5,0.4-0.8,0.8-0.8c0,0,0,0,0,0c0.5,0,0.8,0.4,0.8,0.8c0,0,0,0,0,0v1.4h14v-1.4c0-0.5,0.4-0.8,0.8-0.8c0,0,0,0,0,0
		c0.5,0,0.8,0.4,0.8,0.8c0,0,0,0,0,0v2.3c0,0.5-0.4,0.8-0.8,0.8l0,0H9.1C8.7,13.4,8.3,13,8.3,12.5C8.3,12.5,8.3,12.5,8.3,12.5z"/>
</g>
</svg>
