<?xml version="1.0" encoding="utf-8"?>
<!-- Generator: Adobe Illustrator 25.2.1, SVG Export Plug-In . SVG Version: 6.00 Build 0)  -->
<svg version="1.1" id="Layer_1" xmlns="http://www.w3.org/2000/svg" xmlns:xlink="http://www.w3.org/1999/xlink" x="0px" y="0px"
	 viewBox="0 0 33.8 33.8" style="enable-background:new 0 0 33.8 33.8;" xml:space="preserve">
<style type="text/css">
	.st0{fill:#093F46;}
</style>
<path id="Path_1821" class="st0" d="M18.1,24.1l1.8,1c0.7,0.4,1.6,0.3,2.2-0.2l3.7-3.3c0.8-0.7,2-0.6,2.7,0.1l4.6,5
	c1,1,0.9,2.7-0.2,3.6c0,0-0.1,0.1-0.1,0.1l-1.5,1.2c-2.9,2.4-7,2.8-10.3,1.1L17.8,31c-6.4-3.4-11.7-8.6-15.1-15.1l-1.7-3.2
	C-0.7,9.4-0.3,5.3,2.1,2.4l1.2-1.5C4.2-0.2,5.9-0.3,7,0.6c0,0,0.1,0.1,0.1,0.1l5,4.6C12.9,6,12.9,7.2,12.2,8l-3.3,3.7
	c-0.5,0.6-0.6,1.5-0.2,2.2l1.1,2C11.7,19.3,14.6,22.2,18.1,24.1z"/>
</svg>
