<?xml version="1.0" encoding="utf-8"?>
<!-- Generator: Adobe Illustrator 24.3.0, SVG Export Plug-In . SVG Version: 6.00 Build 0)  -->
<svg version="1.1" id="Layer_1" xmlns="http://www.w3.org/2000/svg" xmlns:xlink="http://www.w3.org/1999/xlink" x="0px" y="0px"
	 viewBox="0 0 100.1 102.5" style="enable-background:new 0 0 100.1 102.5;" xml:space="preserve">
<style type="text/css">
	.st0{fill:#DDF0F2;}
	.st1{clip-path:url(#SVGID_2_);}
	.st2{fill:#086C78;}
	.st3{fill:#FFFFFF;}
	.st4{fill:#FFFFFF;stroke:#006E7A;stroke-width:1.01;stroke-miterlimit:10;}
	.st5{fill:none;stroke:#006E7A;stroke-width:0.757;stroke-linecap:round;stroke-linejoin:round;}
	.st6{fill:url(#Path_2280_1_);}
	.st7{fill:url(#Path_2281_1_);}
	.st8{fill:#006E7A;}
	.st9{clip-path:url(#SVGID_4_);}
	.st10{fill:#F9A11E;}
	.st11{clip-path:url(#SVGID_6_);}
	.st12{fill:#1AB2C5;}
	.st13{fill:#12575F;}
	.st14{fill:#C0D20F;}
	.st15{fill:#C1DADD;}
	.st16{fill:#14A1B2;}
	.st17{fill:#96C1C6;}
	.st18{fill:#13575F;}
	.st19{fill:#066D78;}
	.st20{fill:#093F46;}
	.st21{fill:#0D8695;}
	.st22{clip-path:url(#SVGID_8_);}
	.st23{clip-path:url(#SVGID_10_);}
	.st24{opacity:0.5;fill:#FFFFFF;enable-background:new    ;}
	.st25{fill:#DCF0F2;}
	.st26{opacity:0.12;fill:#D34F45;enable-background:new    ;}
	.st27{fill:#E7B9AE;}
	.st28{fill:#FAC9BC;}
	.st29{fill:#83251D;}
	.st30{fill:#631012;}
	.st31{fill:#D34F45;}
	.st32{opacity:0.5;fill:#83251D;enable-background:new    ;}
	.st33{fill:#9C302B;}
	.st34{fill:#B73F38;}
	.st35{fill:#F06459;}
	.st36{opacity:0.94;fill:#D34F45;enable-background:new    ;}
	.st37{fill:#B84038;}
	.st38{fill:#F69F8D;}
	.st39{opacity:0.6;fill:#D34F45;enable-background:new    ;}
	.st40{fill:#D7615A;}
	.st41{fill:#451215;}
	.st42{opacity:0.7;fill:#631012;enable-background:new    ;}
	.st43{fill:#D14E45;}
	.st44{fill:#B74038;}
	.st45{fill:#E7A597;}
	.st46{fill:#BA453E;}
	.st47{fill:#481A15;}
	.st48{opacity:0.2;fill:#D9E026;enable-background:new    ;}
	.st49{opacity:0.46;fill:#C0D20F;enable-background:new    ;}
	.st50{fill:#D9E026;}
	.st51{fill:#84BE31;}
	.st52{opacity:0.56;fill:#84BE31;enable-background:new    ;}
	.st53{fill:none;}
	.st54{fill:#219E49;}
	.st55{opacity:0.37;fill:#0B8595;enable-background:new    ;}
	.st56{fill:#338266;}
	.st57{fill:#DCF0F1;}
	.st58{opacity:0.72;fill:#81D1E6;enable-background:new    ;}
	.st59{opacity:0.1;fill:#C0D20F;enable-background:new    ;}
	.st60{opacity:0.15;fill:#066D78;enable-background:new    ;}
	.st61{opacity:0.3;fill:#12A0B1;enable-background:new    ;}
	.st62{opacity:0.14;fill:#066D78;enable-background:new    ;}
	.st63{opacity:0.14;fill:#12A0B1;enable-background:new    ;}
	.st64{fill:#B97D2B;}
	.st65{fill:#D39329;}
	.st66{opacity:0.72;fill:#0B8595;enable-background:new    ;}
	.st67{fill:#5CB147;}
	.st68{fill:#A2C820;}
	.st69{opacity:0.26;}
	.st70{opacity:0.6;fill:#093F46;enable-background:new    ;}
	.st71{fill:none;stroke:#093F46;stroke-linecap:round;stroke-miterlimit:10;}
	.st72{fill:#118594;}
	.st73{opacity:0.3;fill:#FFFFFF;enable-background:new    ;}
	.st74{fill:none;stroke:#093F46;stroke-miterlimit:10;}
	.st75{clip-path:url(#SVGID_12_);}
	.st76{opacity:0.63;fill:#0B6C78;enable-background:new    ;}
	.st77{fill:#219E49;stroke:#219E49;stroke-linecap:round;stroke-linejoin:round;}
	.st78{clip-path:url(#SVGID_14_);}
	.st79{fill:#DBEFF1;}
	.st80{fill:#209D49;}
	.st81{fill:#C3DBDD;}
	.st82{fill:#5BB047;}
	.st83{fill:#BDD031;}
	.st84{fill:#83BD41;}
	.st85{fill:#086E78;}
	.st86{fill:#DDF0F2;stroke:#066D78;stroke-linecap:round;stroke-linejoin:round;}
	.st87{fill:none;stroke:#066D78;stroke-linecap:round;stroke-linejoin:round;}
	.st88{opacity:0.14;fill:none;stroke:#066D78;stroke-linecap:round;stroke-linejoin:round;enable-background:new    ;}
</style>
<g id="Group_1332" transform="translate(-658.87 -981)">
	<g id="Layer_2_2_" transform="translate(671.602 980.761)">
		<g id="Layer_1_2_" transform="translate(0 0)">
			<circle id="Ellipse_230" class="st0" cx="43.7" cy="43.7" r="43.4"/>
			<g>
				<defs>
					<circle id="SVGID_3_" cx="43.9" cy="43.7" r="43.5"/>
				</defs>
				<clipPath id="SVGID_2_">
					<use xlink:href="#SVGID_3_"  style="overflow:visible;"/>
				</clipPath>
				<g id="Group_1242" class="st1">
					<path id="Path_2247" class="st3" d="M57.1,79.9c0,0,1.5-3.1,1.5-3.1c-3.7-2-3.2-11.2-3.4-15.9l0.7-2.3c0,0-7.4,2.9-8.1,3
						s-9.5-0.9-9.5-0.9l-0.6,0.2c1.1,5.2,0.6,13.6-3,17l0,0c0,0,12.7,10,13.1,9.9S57.1,79.9,57.1,79.9z"/>
					<path id="Path_2248" class="st8" d="M47.8,88.7c-0.7,0-2.3-1.1-13.8-10.1l-1-0.8l0.9-0.9c3-2.9,3.8-10.6,2.7-16l-0.2-1l1.7-0.5
						l0.2,0c4.1,0.5,8.8,1,9.3,0.9c0.4-0.1,4.3-1.6,7.8-2.9l2.1-0.8l-1.3,4.3c0,0.7,0,1.5,0,2.3c0.1,4.4,0.2,11.2,2.8,12.6l0.3,0.2
						l0.1,0.4c0.2,0.4,0.2,0.4-0.9,2.6c-0.1,0.3-0.3,0.6-0.4,0.8l0.2,0.3l-0.7,0.6c-9.2,7.8-9.4,7.9-9.7,8
						C48,88.7,47.9,88.7,47.8,88.7z M36.3,77.6c4,3.2,9.7,7.5,11.4,8.7c1.5-1.2,5.7-4.8,8.5-7.2c0.1-0.3,0.3-0.7,0.5-1.2
						c0.2-0.3,0.3-0.6,0.4-0.9c-2.9-2.6-3-8.8-3.1-13.9c0-0.9,0-1.7-0.1-2.4l0-0.2l0.1-0.4c-2.7,1-5.7,2.2-6.3,2.3
						c-0.6,0.1-5-0.4-8.9-0.8C39.7,66.5,39.3,73.7,36.3,77.6z"/>
					<path id="Path_2249" class="st3" d="M31.2,39c-0.1,2,0.1,4.1,0.5,6.1c0.2,1.4,0.5,2.9,0.7,4.3c0.1,1.2,0.2,2.4,0.6,3.6
						c1.6,4.4,4.5,8.2,8.4,10.8c1.3,0.9,2.7,1.6,4.1,2.1c1.2,0.5,2.5,0.8,3.8,0.7c4.6-0.2,7-4.9,8.4-8.7c2-5.5,3.1-11.2,3.3-17.1
						c0.1-2.9,0-6-1.3-8.6c-1.6-2.9-4.2-5.1-7.3-6.2c-2.9-1.1-6.1-1.2-9.1-0.5c-3.1,1-5.9,2.7-8.1,5.1c-1.7,1.6-2.9,3.7-3.7,5.9
						C31.4,37.5,31.2,38.2,31.2,39L31.2,39z"/>
					<path id="Path_2250" class="st8" d="M48.9,67.7c-1.3,0-2.6-0.3-3.8-0.8c-1.5-0.6-3-1.3-4.3-2.2c-4.1-2.7-7.2-6.7-8.9-11.4
						c-0.3-0.9-0.5-1.9-0.5-2.9c0-0.3-0.1-0.6-0.1-0.9c-0.1-1-0.3-2.1-0.5-3.1l-0.2-1.1c-0.4-2.1-0.6-4.2-0.5-6.4
						c0.1-0.9,0.2-1.7,0.5-2.5c0.8-2.4,2.1-4.6,3.9-6.4c2.3-2.6,5.3-4.4,8.6-5.4c3.2-0.8,6.6-0.7,9.7,0.5c3.4,1.1,6.2,3.5,7.9,6.7
						c1.5,3,1.5,6.3,1.4,9.1c-0.2,5.9-1.4,11.8-3.4,17.4c-2.2,6.1-5.3,9.2-9.4,9.4C49.2,67.7,49,67.7,48.9,67.7z M47.1,26.3
						c-1.2,0-2.3,0.1-3.5,0.5c-2.9,0.9-5.5,2.6-7.6,4.8c-1.6,1.5-2.7,3.4-3.4,5.5c-0.2,0.7-0.3,1.4-0.4,2.1l0,0
						c-0.1,2,0.1,3.9,0.5,5.8l0.2,1.1c0.2,1.1,0.4,2.2,0.5,3.2c0,0.3,0.1,0.7,0.1,1c0,0.8,0.2,1.6,0.4,2.3c1.5,4.2,4.3,7.8,8,10.3
						c1.2,0.8,2.5,1.5,3.9,2c1.1,0.5,2.2,0.7,3.3,0.7c3.1-0.2,5.6-2.8,7.5-8c1.9-5.4,3-11,3.3-16.7c0.1-2.6,0-5.6-1.2-8.1
						c-1.4-2.7-3.8-4.7-6.7-5.6C50.4,26.6,48.8,26.3,47.1,26.3L47.1,26.3z"/>
					<path id="Path_2251" class="st2" d="M41.6,55.5c1,2.2,3.1,3.7,5.6,4c4,0.3,6.3-4.1,6.3-4.1C49.9,57.6,45.3,57.7,41.6,55.5z"/>
					<path id="Path_2252" class="st8" d="M54.5,41.4c-0.6,0.1-1.1,0.6-1,1.3c0.1,0.6,0.6,1.1,1.3,1c0.6-0.1,1.1-0.6,1-1.3
						c0-0.3-0.2-0.6-0.4-0.8C55.1,41.4,54.8,41.3,54.5,41.4z"/>
					<path id="Path_2253" class="st8" d="M40.2,42.1c-0.6,0.1-1.1,0.6-1,1.3c0.1,0.6,0.6,1.1,1.3,1c0.6-0.1,1.1-0.6,1-1.3
						c0,0,0,0,0,0C41.4,42.5,40.8,42.1,40.2,42.1z"/>
					<path id="Path_2254" class="st8" d="M57.5,38.7c-1.6-0.7-3.4-0.9-5.1-0.3c-0.4,0.1-0.7,0.6-0.5,1c0.1,0.4,0.6,0.7,1,0.5
						c0,0,0,0,0,0c1.3-0.4,2.6-0.4,3.8,0.2c0.4,0.2,0.9,0.1,1.1-0.3C58.1,39.4,57.9,38.9,57.5,38.7C57.5,38.7,57.5,38.7,57.5,38.7
						L57.5,38.7z"/>
					<path id="Path_2255" class="st8" d="M48.7,39.1c-0.1-0.4-0.6-0.7-1-0.6c-0.4,0.1-0.7,0.6-0.6,1c0.4,2.3,0.9,4.5,1.5,6.8
						c0.1,0.5,0.3,1.1,0.4,1.6c0.2,0.4,0.2,0.9,0.2,1.3c-0.2,0.6-0.6,1.4-1.4,1.4c-1,0-1,1.6,0,1.6c1,0,1.9-0.5,2.4-1.4
						c0.3-0.5,0.5-1,0.6-1.5c0-0.7,0-1.3-0.3-2C49.8,44.6,49.1,41.9,48.7,39.1z"/>
					<path id="Path_2256" class="st8" d="M41.1,38.5c-1.8-0.2-3.5,0.2-5,1.3c-0.3,0.3-0.4,0.8-0.1,1.1c0.3,0.3,0.8,0.4,1.1,0.1
						c1.1-0.8,2.4-1.1,3.7-0.9c0.4,0,0.8-0.3,0.9-0.7C41.8,38.9,41.6,38.5,41.1,38.5L41.1,38.5z"/>
					<path id="Path_2257" class="st8" d="M64.3,37.5c0-0.2,0-0.5,0-0.7c0,0,0,0,0-0.1c0-0.2,0-0.3,0-0.5c0-1-0.1-1.9-0.2-2.9
						c0-0.2-0.1-0.4-0.1-0.5c-0.1-0.3-0.1-0.7-0.2-1c-0.1-0.5-0.3-1-0.4-1.5c-0.8-1-1.7-2.1-2.7-3.4c-3.4-4-8.1-6.8-13.3-7.8
						c1.8-2.1,2.6-4.8,2.3-7.5c-0.3-3.5-2.5-7.1-6.2-7.5c-2.3-1.5-5.2-1.1-7.1,0.8c-1.6,0.1-3.1,0.6-4.4,1.4
						c-2.6,1.8-3.5,4.7-3.7,7.7c0,0.2,0,0.3,0,0.5c-0.4,1.7-0.1,3.5,0.8,4.9c0.6,1,1.3,1.8,2.2,2.5c0,0.1,0.1,0.1,0.1,0.2l0,0
						c-0.9,0.9-1.9,1.7-2.8,2.5c-1.8,1.5-3.1,3.5-3.8,5.8c-0.1,0.3-0.1,0.6-0.1,1c-0.9,1.3-1.4,2.8-1.7,4.3c-0.4,2.9,0,5.8,1.2,8.5
						c0.3,0.7,0.6,1.4,0.9,2.1c0.1,0.7,0.1,1.4,0.1,2.1c0.2,1.5,1,2.9,2.4,3.6c0.2,0.1,0.3,0.2,0.5,0.2c0.1,0.1,0.2,0.2,0.3,0.3
						c0.5,0.4,1,0.8,1.6,1.1c0.6,0.3,1.2,0.6,1.8,0.9c0.5,0.3,1.2,0.1,1.5-0.4s0.1-1.2-0.4-1.5l0,0l-0.6-0.3l0.1-0.1
						c0.1-0.2,0.1-0.4,0.1-0.5v-0.1c0-0.1,0-0.3-0.1-0.4c0-0.1-0.1-0.3-0.2-0.3c0,0-0.1-0.1-0.1-0.1c0.3-0.5,0.4-1,0.4-1.6
						c-0.2-2.1-0.5-4.1-1.1-6.1c1.3-2.1,2.9-4.1,4.6-5.9c1.7-2,3.6-3.9,5.5-5.7c0.7-0.3,1.4-0.7,2.1-1.2c1-0.7,1.9-1.6,2.7-2.6
						c0.9,1,1.9,1.9,3,2.7c2.4,1.9,5.1,3.6,7.8,5c0.5,0.4,1,0.8,1.5,1.3c1,1,1.6,2.3,1.7,3.8c0.2,1.6,0.1,3.2-0.3,4.7
						c-0.1,0.4,0,0.8,0.3,1.1c0.1,1,1.8,1,2.1,0c0.1-0.4,0.2-0.8,0.2-1.2c0.2-1.1,0.4-2.2,0.7-3.3c0.4-1.3,0.6-2.6,0.7-3.9v0
						c0,0,0.1,0,0.2,0C64.3,37.8,64.3,37.6,64.3,37.5z"/>
					<path id="Path_2258" class="st10" d="M50.6,81.3C50.5,81.3,50.5,81.4,50.6,81.3L50.6,81.3C50.5,81.4,50.5,81.3,50.6,81.3z"/>
					<path id="Path_2259" class="st10" d="M84.5,91c0-0.5-0.2-1-0.4-1.4c-1.2-2.3-1.9-4.7-2.3-7.2c-0.1-0.5-0.1-0.9-0.1-1.4
						c0-0.8-0.2-1.6-0.3-2.4c-0.4-1.6-1.4-2.9-2.8-3.8c-2.3-1.3-5.2-1.8-7.8-2.2c-2.9-0.4-5.9-0.5-8.8-0.3c-0.7,0.1-1.4,0.3-1.9,0.8
						c-0.4,0.1-0.8,0.3-1.2,0.5c-0.6,0.1-1.2,0.4-1.6,0.9c-1.7,1.8-3.5,3.7-5.2,5.5c-0.4,0.4-0.8,0.8-1.2,1.2c0,0-0.1,0.1-0.2,0.1
						c0.1-0.1,0.2-0.1,0,0l-0.1,0.1c0,0,0,0-0.1,0.1c0,0,0,0,0,0c-0.2,0.1-0.4,0.3-0.6,0.4c-0.2,0.1-0.5,0.3-0.7,0.4l0,0
						c0,0-0.2,0.1-0.3,0.1s-0.1,0-0.2,0.1c-1.1-0.5-2.1-1.2-3.1-1.9c-0.6-0.4-1.2-0.9-1.8-1.3c-0.3-0.2-0.6-0.4-0.8-0.6
						c-0.1-0.1-0.3-0.2-0.4-0.3l-0.1,0l0,0c-2.3-1.9-4.5-3.9-6.5-6c-0.8-0.8-2-1.1-3.1-0.8c-2.7,0.1-5.4,0.5-8,1.2l-0.3,0
						c-1.5,0-3,0.2-4.4,0.5c-1.3,0.5-2.5,1.2-3.5,2c-2.1,1.6-4.1,3.5-5.9,5.4c-1.9,2-3.4,4.3-3.5,7.3c0,1.5,1,2.8,2.4,3.2
						c0.2,0.4,0.6,0.8,1,1.1c2.5,1.8,5.4,2.4,8.2,3.2c2.9,0.7,5.4,2.3,8.2,3.3c6.2,2.3,13.4,3.1,19.9,3.7c6.6,0.6,13.3,0.7,19.8-0.8
						c3.2-0.8,6.4-1.9,9.5-3.2c0.9-0.4,1.9-0.7,2.8-1.1c0.1,0,0.2,0.1,0.3,0.1c1.5,0.3,3.6-0.5,3.8-2.3c0-0.1,0-0.3,0-0.4
						c0.3-0.3,0.6-0.7,0.9-1.2C84.6,92.7,84.7,91.8,84.5,91L84.5,91z"/>
					<path id="Path_2260" class="st10" d="M48.7,17.6c-6.3,0.7-12.6,4.7-19.1,3.2c-1.4-0.3-1.9,1.8-0.6,2.1c6.9,1.5,13-2.4,19.6-3.1
						C50.1,19.6,50.1,17.4,48.7,17.6z"/>
				</g>
			</g>
		</g>
	</g>
	<g id="Group_1247" transform="translate(4 22)">
		<path id="Path_2284" class="st3" d="M660.4,1014.1v-4.3l4.7,0.4v4.8l25.7,0.6l-1.2,11.5v16.1h-31.8v-17L660.4,1014.1z"/>
		<path id="Path_2262" class="st2" d="M680.9,1036.9h2.6c0.5,0,0.9-0.4,0.9-0.9c0,0,0,0,0,0v-3.4c0-0.5-0.4-0.9-0.9-0.9c0,0,0,0,0,0
			h-2.6c-0.5,0-0.9,0.4-0.9,0.9c0,0,0,0,0,0v3.4C680,1036.4,680.4,1036.9,680.9,1036.9z M681.9,1033.4h0.8v1.6h-0.8L681.9,1033.4z
			 M666.3,1031.6h-2.6c-0.5,0-0.9,0.4-0.9,0.9c0,0,0,0,0,0v3.4c0,0.5,0.4,0.9,0.9,0.9h2.6c0.5,0,0.9-0.4,0.9-0.9v-3.4
			C667.2,1032,666.8,1031.6,666.3,1031.6C666.3,1031.6,666.3,1031.6,666.3,1031.6L666.3,1031.6z M665.4,1035h-0.8v-1.6h0.8V1035z
			 M691.2,1028.8c0.5,0,0.9-0.4,0.9-0.9c0,0,0,0,0,0V1015c0-0.5-0.4-0.9-0.9-0.9h-25.5v-4.2c0-0.5-0.4-0.9-0.9-0.9h-4.4
			c-0.5,0-0.9,0.4-0.9,0.9v4.2h-3.6c-0.5,0-0.9,0.4-0.9,0.9v12.9c0,0.5,0.4,0.9,0.9,0.9c0,0,0,0,0,0h0.8v12.8h-0.2
			c-0.9,0-1.7,1-1.7,2.3s0.7,2.3,1.7,2.3h34c0.9,0,1.7-1,1.7-2.3s-0.7-2.3-1.7-2.3h-0.2v-12.8L691.2,1028.8z M661.3,1010.7h2.5v3.2
			h-2.5L661.3,1010.7z M676.7,1031.5L676.7,1031.5l-5.9,0.1c-0.5,0-0.9,0.4-0.9,0.9v9h-11.3v-12.8h29.9v12.8h-10.9v-9.1
			C677.6,1032,677.2,1031.5,676.7,1031.5z M664,1022.7v-2.5c0-0.5,0.4-0.9,0.9-0.9c0,0,0,0,0,0c0.5,0,0.9,0.4,0.9,0.9c0,0,0,0,0,0
			v1.6h15.4v-1.6c0-0.5,0.4-0.9,0.9-0.9c0,0,0,0,0,0c0.5,0,0.9,0.4,0.9,0.9c0,0,0,0,0,0v2.5c0,0.5-0.4,0.9-0.9,0.9H665
			C664.5,1023.6,664,1023.2,664,1022.7L664,1022.7z"/>
	</g>
</g>
</svg>
