<?xml version="1.0" encoding="utf-8"?>
<!-- Generator: Adobe Illustrator 24.3.0, SVG Export Plug-In . SVG Version: 6.00 Build 0)  -->
<svg version="1.1" id="Layer_1" xmlns="http://www.w3.org/2000/svg" xmlns:xlink="http://www.w3.org/1999/xlink" x="0px" y="0px"
	 viewBox="0 0 88 92.4" style="enable-background:new 0 0 88 92.4;" xml:space="preserve">
<style type="text/css">
	.st0{fill:#DDF0F2;}
	.st1{clip-path:url(#SVGID_2_);}
	.st2{fill:#086C78;}
	.st3{fill:#FFFFFF;}
	.st4{fill:#FFFFFF;stroke:#006E7A;stroke-width:1.01;stroke-miterlimit:10;}
	.st5{fill:none;stroke:#006E7A;stroke-width:0.757;stroke-linecap:round;stroke-linejoin:round;}
	.st6{fill:url(#Path_2280_1_);}
	.st7{fill:url(#Path_2281_1_);}
	.st8{fill:#006E7A;}
	.st9{clip-path:url(#SVGID_4_);}
	.st10{fill:#F9A11E;}
	.st11{clip-path:url(#SVGID_6_);}
	.st12{fill:#1AB2C5;}
	.st13{fill:#12575F;}
	.st14{fill:#C0D20F;}
	.st15{fill:#C1DADD;}
	.st16{fill:#14A1B2;}
	.st17{fill:#96C1C6;}
	.st18{fill:#13575F;}
	.st19{fill:#066D78;}
	.st20{fill:#093F46;}
	.st21{fill:#0D8695;}
	.st22{clip-path:url(#SVGID_8_);}
	.st23{clip-path:url(#SVGID_10_);}
	.st24{opacity:0.5;fill:#FFFFFF;enable-background:new    ;}
	.st25{fill:#DCF0F2;}
	.st26{opacity:0.12;fill:#D34F45;enable-background:new    ;}
	.st27{fill:#E7B9AE;}
	.st28{fill:#FAC9BC;}
	.st29{fill:#83251D;}
	.st30{fill:#631012;}
	.st31{fill:#D34F45;}
	.st32{opacity:0.5;fill:#83251D;enable-background:new    ;}
	.st33{fill:#9C302B;}
	.st34{fill:#B73F38;}
	.st35{fill:#F06459;}
	.st36{opacity:0.94;fill:#D34F45;enable-background:new    ;}
	.st37{fill:#B84038;}
	.st38{fill:#F69F8D;}
	.st39{opacity:0.6;fill:#D34F45;enable-background:new    ;}
	.st40{fill:#D7615A;}
	.st41{fill:#451215;}
	.st42{opacity:0.7;fill:#631012;enable-background:new    ;}
	.st43{fill:#D14E45;}
	.st44{fill:#B74038;}
	.st45{fill:#E7A597;}
	.st46{fill:#BA453E;}
	.st47{fill:#481A15;}
	.st48{opacity:0.2;fill:#D9E026;enable-background:new    ;}
	.st49{opacity:0.46;fill:#C0D20F;enable-background:new    ;}
	.st50{fill:#D9E026;}
	.st51{fill:#84BE31;}
	.st52{opacity:0.56;fill:#84BE31;enable-background:new    ;}
	.st53{fill:none;}
	.st54{fill:#219E49;}
	.st55{opacity:0.37;fill:#0B8595;enable-background:new    ;}
	.st56{fill:#338266;}
	.st57{fill:#DCF0F1;}
	.st58{opacity:0.72;fill:#81D1E6;enable-background:new    ;}
	.st59{opacity:0.1;fill:#C0D20F;enable-background:new    ;}
	.st60{opacity:0.15;fill:#066D78;enable-background:new    ;}
	.st61{opacity:0.3;fill:#12A0B1;enable-background:new    ;}
	.st62{opacity:0.14;fill:#066D78;enable-background:new    ;}
	.st63{opacity:0.14;fill:#12A0B1;enable-background:new    ;}
	.st64{fill:#B97D2B;}
	.st65{fill:#D39329;}
	.st66{opacity:0.72;fill:#0B8595;enable-background:new    ;}
	.st67{fill:#5CB147;}
	.st68{fill:#A2C820;}
	.st69{opacity:0.26;}
	.st70{opacity:0.6;fill:#093F46;enable-background:new    ;}
	.st71{fill:none;stroke:#093F46;stroke-linecap:round;stroke-miterlimit:10;}
	.st72{fill:#118594;}
	.st73{opacity:0.3;fill:#FFFFFF;enable-background:new    ;}
	.st74{fill:none;stroke:#093F46;stroke-miterlimit:10;}
	.st75{clip-path:url(#SVGID_12_);}
	.st76{opacity:0.63;fill:#0B6C78;enable-background:new    ;}
	.st77{fill:#219E49;stroke:#219E49;stroke-linecap:round;stroke-linejoin:round;}
	.st78{clip-path:url(#SVGID_14_);}
	.st79{fill:#DBEFF1;}
	.st80{fill:#209D49;}
	.st81{fill:#C3DBDD;}
	.st82{fill:#5BB047;}
	.st83{fill:#BDD031;}
	.st84{fill:#83BD41;}
	.st85{fill:#086E78;}
	.st86{fill:#DDF0F2;stroke:#066D78;stroke-linecap:round;stroke-linejoin:round;}
	.st87{fill:none;stroke:#066D78;stroke-linecap:round;stroke-linejoin:round;}
	.st88{opacity:0.14;fill:none;stroke:#066D78;stroke-linecap:round;stroke-linejoin:round;enable-background:new    ;}
</style>
<g id="Group_1333" transform="translate(-962 -981)">
	<g id="Layer_2_3_" transform="translate(962.341 980.761)">
		<g id="Layer_1_3_">
			<ellipse id="Ellipse_231" class="st0" cx="43.7" cy="43.7" rx="44" ry="43.5"/>
			<g>
				<defs>
					<ellipse id="SVGID_5_" cx="43.7" cy="43.7" rx="44" ry="43.5"/>
				</defs>
				<clipPath id="SVGID_2_">
					<use xlink:href="#SVGID_5_"  style="overflow:visible;"/>
				</clipPath>
				<g id="Group_1244" class="st1">
					<path id="Path_2263" class="st3" d="M30.8,67.4c1.1-1.5,2-3,2.8-4.6c1.3-3.2,2.1-6.7,2.4-10.2c0,0,7.5,2.1,8.2,2.2
						c2.4,0.3,4.8,0.6,7.2,0.9c0.9,0.1,2.6-5.3,3.4-4.8c1.2,0.7,1,11,1.2,12.4c0.1,1.1,0.4,2.1,0.9,3.1l2.5,4.7
						c0.1,0.1-8.4,5.6-9.1,6.1c-1.4,0.9-2.7,1.8-4.1,2.7c-0.3,0.2-1.6,1.3-2,1.2c-0.5-0.1-1.2-1.1-1.6-1.5c-1.2-1.2-2.4-2.4-3.6-3.6
						C36.2,73.1,33.5,70.3,30.8,67.4z"/>
					<path id="Path_2264" class="st8" d="M44.2,82c-0.1,0-0.2,0-0.3,0c-0.7-0.3-1.4-0.8-1.8-1.4c-0.1-0.1-0.2-0.3-0.3-0.3
						c-1.1-1.1-2.2-2.2-3.4-3.4l-0.2-0.2c-2.5-2.5-5-5.1-7.5-7.7L30,68.2c-0.4-0.4-0.4-0.9-0.1-1.4c1-1.4,1.9-2.9,2.7-4.5
						c1.3-3.1,2.1-6.4,2.3-9.8c0-0.6,0.5-1.1,1.1-1c0.1,0,0.2,0,0.2,0c3.5,1,7.6,2.1,8.1,2.1l6.8,0.9c0.4-0.6,0.7-1.2,1-1.8
						c0.9-1.8,1.4-2.7,2.2-2.9c0.3-0.1,0.7,0,1,0.1c1.1,0.7,1.4,3,1.6,11c0,1.1,0,1.9,0.1,2.3c0.1,0.9,0.3,1.8,0.8,2.6l2.5,4.7
						c0.6,1,0.6,1-8.6,7L50.8,78c-1.4,0.9-2.7,1.8-4.1,2.7c-0.1,0-0.2,0.1-0.3,0.2C45.8,81.5,45,81.9,44.2,82z M32.2,67.3L32.2,67.3
						c2.6,2.7,5.1,5.2,7.6,7.8l0.2,0.2c1.1,1.1,2.2,2.2,3.3,3.3c0.1,0.1,0.3,0.3,0.4,0.5c0.1,0.2,0.4,0.4,0.6,0.6
						c0.3-0.2,0.7-0.5,0.8-0.6s0.3-0.2,0.4-0.3c1.4-0.9,2.7-1.8,4.1-2.7l0.8-0.5c3.8-2.5,6.3-4.1,7.5-4.9l-2.1-3.9
						c-0.6-1.1-0.9-2.2-1-3.5c0-0.4-0.1-1.3-0.1-2.4c0-1.7-0.1-5.6-0.4-7.9c-0.1,0.2-0.2,0.4-0.3,0.6c-1,1.9-1.6,3.2-2.8,3.1
						L44,55.8c-0.7-0.1-4.7-1.2-7.1-1.8c-0.3,3.2-1.1,6.3-2.3,9.2C33.9,64.7,33.1,66,32.2,67.3L32.2,67.3z"/>
					<path id="Path_2265" class="st3" d="M36.8,20c-3.7,1.4-8.1,3.6-8.5,7.8c-0.1,1.5,0.1,3,0.4,4.5c0.8,4.7,1.2,9.4,2.6,13.9
						s3.8,8.9,7.7,11.6s9.4,3.3,13.3,0.6c3.3-2.3,4.9-6.3,5.7-10.2c2.3-10.6,0.7-21.6-4.5-31.1c-0.1-0.3-0.3-0.5-0.6-0.7
						c-0.3-0.1-0.7-0.1-1,0c-4.6,0.6-9.2,1.7-13.7,3.1C37.8,19.7,37.3,19.8,36.8,20z"/>
					<path id="Path_2266" class="st8" d="M46.5,61.3c-2.9,0-5.7-0.9-8.1-2.5c-3.7-2.5-6.5-6.7-8.1-12.1c-1-3.5-1.7-7.1-2.1-10.7
						c-0.2-1.1-0.3-2.3-0.5-3.4l0-0.3c-0.3-1.5-0.4-3-0.3-4.5c0.4-4.8,5.1-7.2,9.2-8.7l0,0c0.5-0.2,1-0.4,1.5-0.5
						c4.5-1.5,9.2-2.5,13.9-3.2c1.1-0.3,2.3,0.2,2.7,1.3c5.3,9.7,7,21.1,4.7,31.9c-1.2,5.3-3.2,8.8-6.2,10.9
						C51,60.6,48.8,61.3,46.5,61.3z M52.4,17.4c0,0-0.2,0.1-0.3,0.1c-4.6,0.6-9.1,1.7-13.5,3.1c-0.5,0.2-1,0.3-1.5,0.5l0,0
						c-3.4,1.3-7.4,3.3-7.8,6.9c-0.1,1.3,0.1,2.7,0.3,4l0,0.3c0.2,1.1,0.3,2.3,0.5,3.4c0.4,3.5,1.1,7,2.1,10.4
						c1.1,3.5,3.2,8.2,7.3,11c3.8,2.6,8.8,2.9,12.1,0.6c2.5-1.7,4.3-4.8,5.3-9.5c2.2-10.3,0.6-21.1-4.4-30.4
						C52.5,17.6,52.5,17.5,52.4,17.4L52.4,17.4z"/>
					<path id="Path_2267" class="st12" d="M65.1,85.9c5.4-4.5,15.6-11.3,14-15.5c-1.7-4.6-11.8-6.4-16.4-6.6
						c-2.3-0.1-5.3,1.8-6.9,3.5c-3.4,3.6-0.1,6.4-10.5,6.4c-9.7,0-8.3-5.8-12.7-10.8c-1.7-1.9-6.9-0.8-9.4-0.2
						c-8.3,2-12.8,7.1-13.9,10.8c-1.3,4.3,19.4,17.1,19.4,17.1h30.3C59.1,90.5,61.8,88.6,65.1,85.9z"/>
					<circle id="Ellipse_232" class="st2" cx="52.5" cy="34.1" r="1.2"/>
					<circle id="Ellipse_233" class="st2" cx="38.3" cy="35.9" r="1.2"/>
					<path id="Path_2268" class="st2" d="M40.3,48.9c0,0,3.4,3.9,6.6,3.3c2.6-0.5,4.7-2.3,5.6-4.8C48.4,48.1,44.4,48.6,40.3,48.9z"
						/>
					<path id="Path_2269" class="st8" d="M45.4,44.5c-0.5,0-0.8-0.4-0.8-0.8s0.4-0.8,0.8-0.8c1.3,0,1.8-0.3,2-0.6
						c0.1-0.1,0.3-0.3,0.2-1c-0.2-0.8-0.5-1.6-1-2.3c-0.4-0.7-0.8-1.5-1-2.3c-0.3-1-0.5-2-0.6-3.1c-0.1-0.4,0.3-0.9,0.7-0.9
						c0.4-0.1,0.9,0.3,0.9,0.7c0,0,0,0,0,0c0.1,0.9,0.3,1.9,0.5,2.8c0.2,0.7,0.5,1.3,0.9,1.9c0.5,0.9,0.9,1.8,1.1,2.8
						c0.2,0.8,0,1.7-0.5,2.3C47.8,44.2,46.6,44.6,45.4,44.5L45.4,44.5z"/>
					<path id="Path_2270" class="st8" d="M33.6,32.8c-0.5,0-0.8-0.4-0.8-0.8c0-0.3,0.2-0.6,0.5-0.7c1-0.5,4.4-2.1,6-1.8
						c0.4,0.1,0.7,0.5,0.6,1c0,0,0,0,0,0c-0.1,0.4-0.5,0.7-1,0.6c-0.7-0.2-3.1,0.7-4.9,1.6C33.9,32.8,33.7,32.8,33.6,32.8z"/>
					<path id="Path_2271" class="st8" d="M55.6,29.9c0,0-0.1,0-0.1,0c-1.9-0.3-4.3-0.5-4.9-0.2c-0.4,0.2-0.9,0-1.1-0.4
						c-0.2-0.4,0-0.9,0.4-1.1c1.4-0.7,5.1-0.1,5.9,0c0.4,0.1,0.7,0.5,0.7,0.9C56.4,29.6,56,29.9,55.6,29.9L55.6,29.9z"/>
					<path id="Path_2272" class="st8" d="M63.1,34.8c1.6-0.3,2-2.4,1.9-3.9c-0.2-3.4-1.1-6.8-2.7-9.9c-1-2.2-2.6-4.1-4.6-5.4
						c-2.1-1-4.3-1.4-6.6-1.4c-4.1-0.3-8.3-0.2-12.4,0.4c-6.6,1.2-13.6,4.9-14,12c-0.2,2.5,0.3,5.1,0.3,7.6c0,2.3-0.3,4.5-0.9,6.7
						c-0.4,1-0.5,2.1-0.4,3.2c0.3,1,1.7,1.8,2.6,1.2c-0.1,0.8,0.1,1.7,0.4,2.5c0.3,0.8,1.1,1.4,2,1.4c1.6,0,2.3-2.1,2.3-3.6
						c0.1-1.6,0.1-3.1,0-4.7c0-0.6-0.1-1.1-0.4-1.6c-0.3-0.3-0.5-0.6-0.8-0.9c-0.2-0.6-0.2-1.2,0-1.7c1.3-5,4.3-9.5,8.5-12.7
						c4.3-3.2,9.9-4.3,15.1-3c1,0.2,1.9,0.7,2.5,1.5c0.4,0.6,0.6,1.2,0.7,1.9l2.7,14.4c0.1,1.3,0.6,2.5,1.4,3.6
						c0.9,0.9,2.8,1.1,3.5,0.1c0.4-0.8,0.5-1.8,0.2-2.6L63.1,34.8z"/>
				</g>
			</g>
		</g>
	</g>
	<g id="Group_1253" transform="translate(2393.462 3916.689)">
		<g id="Group_1243" transform="translate(-1428.627 -2855.827)">
			<path id="Path_1846" class="st2" d="M0.6,6l1.3,1.2L2.8,8l-0.6,3.2c-0.1,0.3,0,0.6,0.2,0.8c0.2,0.2,0.5,0.3,0.8,0.4
				c0,0,0,0,0.1,0c0.2,0,0.3,0,0.5-0.1l3.1-1.5l3,1.5c0.2,0.1,0.3,0.1,0.5,0.1c0.3,0,0.6-0.1,0.8-0.4c0.2-0.2,0.3-0.5,0.2-0.8
				l-0.6-3.2l2.5-2.3c0.3-0.3,0.4-0.7,0.3-1.1c-0.1-0.4-0.5-0.7-0.9-0.7L9.3,3.5L8.5,2L7.9,0.7l0-0.1C7.5,0,6.9-0.2,6.3,0.1
				C6.1,0.2,6,0.4,5.9,0.6l0,0.1L5.1,2L4.3,3.5l-1,0.1L2,3.8L0.9,4C0.8,4,0.7,4,0.6,4.1C0.4,4.2,0.1,4.4,0.1,4.7
				C-0.1,5,0,5.5,0.3,5.7L0.6,6z"/>
		</g>
		<g id="Group_1249" transform="translate(-1411.439 -2855.827)">
			<path id="Path_1846-2" class="st2" d="M0.6,6l1.3,1.2L2.8,8l-0.6,3.2c-0.1,0.3,0,0.6,0.2,0.8c0.2,0.2,0.5,0.3,0.8,0.4
				c0,0,0,0,0.1,0c0.2,0,0.3,0,0.5-0.1l3.1-1.5l3,1.5c0.2,0.1,0.3,0.1,0.5,0.1c0.3,0,0.6-0.1,0.8-0.4c0.2-0.2,0.3-0.5,0.2-0.8
				l-0.6-3.2l2.5-2.3c0.3-0.3,0.4-0.7,0.3-1.1c-0.1-0.4-0.5-0.7-0.9-0.7L9.3,3.5L8.5,2L7.9,0.7l0-0.1C7.5,0,6.9-0.2,6.3,0.1
				C6.1,0.2,6,0.4,5.9,0.6l0,0.1L5.1,2L4.3,3.5l-1,0.1L2,3.8L0.9,4C0.8,4,0.7,4,0.6,4.1C0.4,4.2,0.1,4.4,0.1,4.7
				C-0.1,5,0,5.5,0.3,5.7L0.6,6z"/>
		</g>
		<g id="Group_1250" transform="translate(-1394.251 -2855.827)">
			<path id="Path_1846-3" class="st2" d="M0.6,6l1.3,1.2L2.8,8l-0.6,3.2c-0.1,0.3,0,0.6,0.2,0.8c0.2,0.2,0.5,0.3,0.8,0.4
				c0,0,0,0,0.1,0c0.2,0,0.3,0,0.5-0.1l3.1-1.5l3,1.5c0.2,0.1,0.3,0.1,0.5,0.1c0.3,0,0.6-0.1,0.8-0.4c0.2-0.2,0.3-0.5,0.2-0.8
				l-0.6-3.2l2.5-2.3c0.3-0.3,0.4-0.7,0.3-1.1c-0.1-0.4-0.5-0.7-0.9-0.7L9.3,3.5L8.5,2L7.9,0.7l0-0.1C7.5,0,6.9-0.2,6.3,0.1
				C6.1,0.2,6,0.4,5.9,0.6l0,0.1L5.1,2L4.3,3.5l-1,0.1L2,3.8L0.9,4C0.8,4,0.7,4,0.6,4.1C0.4,4.2,0.1,4.4,0.1,4.7
				C-0.1,5,0,5.5,0.3,5.7L0.6,6z"/>
		</g>
		<g id="Group_1251" transform="translate(-1377.062 -2855.827)">
			<path id="Path_1846-4" class="st2" d="M0.6,6l1.3,1.2L2.8,8l-0.6,3.2c-0.1,0.3,0,0.6,0.2,0.8c0.2,0.2,0.5,0.3,0.8,0.4
				c0,0,0,0,0.1,0c0.2,0,0.3,0,0.5-0.1l3.1-1.5l3,1.5c0.2,0.1,0.3,0.1,0.5,0.1c0.3,0,0.6-0.1,0.8-0.4c0.2-0.2,0.3-0.5,0.2-0.8
				l-0.6-3.2l2.5-2.3c0.3-0.3,0.4-0.7,0.3-1.1c-0.1-0.4-0.5-0.7-0.9-0.7L9.3,3.5L8.5,2L7.9,0.7l0-0.1C7.5,0,6.9-0.2,6.3,0.1
				C6.1,0.2,6,0.4,5.9,0.6l0,0.1L5.1,2L4.3,3.5l-1,0.1L2,3.8L0.9,4C0.8,4,0.7,4,0.6,4.1C0.4,4.2,0.1,4.4,0.1,4.7
				C-0.1,5,0,5.5,0.3,5.7L0.6,6z"/>
		</g>
		<g id="Group_1252" transform="translate(-1359.874 -2855.827)">
			<path id="Path_1846-5" class="st2" d="M0.6,6l1.3,1.2L2.8,8l-0.6,3.2c-0.1,0.3,0,0.6,0.2,0.8c0.2,0.2,0.5,0.3,0.8,0.4
				c0,0,0,0,0.1,0c0.2,0,0.3,0,0.5-0.1l3.1-1.5l3,1.5c0.2,0.1,0.3,0.1,0.5,0.1c0.3,0,0.6-0.1,0.8-0.4c0.2-0.2,0.3-0.5,0.2-0.8
				l-0.6-3.2l2.5-2.3c0.3-0.3,0.4-0.7,0.3-1.1c-0.1-0.4-0.5-0.7-0.9-0.7L9.3,3.5L8.5,2L7.9,0.7l0-0.1C7.5,0,6.9-0.2,6.3,0.1
				C6.1,0.2,6,0.4,5.9,0.6l0,0.1L5.1,2L4.3,3.5l-1,0.1L2,3.8L0.9,4C0.8,4,0.7,4,0.6,4.1C0.4,4.2,0.1,4.4,0.1,4.7
				C-0.1,5,0,5.5,0.3,5.7L0.6,6z"/>
		</g>
	</g>
</g>
</svg>
