<?xml version="1.0" encoding="utf-8"?>
<!-- Generator: Adobe Illustrator 24.3.0, SVG Export Plug-In . SVG Version: 6.00 Build 0)  -->
<svg version="1.1" id="Layer_1" xmlns="http://www.w3.org/2000/svg" xmlns:xlink="http://www.w3.org/1999/xlink" x="0px" y="0px"
	 viewBox="0 0 108.1 105.6" style="enable-background:new 0 0 108.1 105.6;" xml:space="preserve">
<style type="text/css">
	.st0{fill:#DDF0F2;}
	.st1{clip-path:url(#SVGID_2_);}
	.st2{fill:#086C78;}
	.st3{fill:#FFFFFF;}
	.st4{fill:#FFFFFF;stroke:#006E7A;stroke-width:1.01;stroke-miterlimit:10;}
	.st5{fill:none;stroke:#006E7A;stroke-width:0.757;stroke-linecap:round;stroke-linejoin:round;}
	.st6{fill:url(#Path_2280_1_);}
	.st7{fill:url(#Path_2281_1_);}
	.st8{fill:#006E7A;}
	.st9{clip-path:url(#SVGID_4_);}
	.st10{fill:#F9A11E;}
	.st11{clip-path:url(#SVGID_6_);}
	.st12{fill:#1AB2C5;}
	.st13{fill:#12575F;}
	.st14{fill:#C0D20F;}
	.st15{fill:#C1DADD;}
	.st16{fill:#14A1B2;}
	.st17{fill:#96C1C6;}
	.st18{fill:#13575F;}
	.st19{fill:#066D78;}
	.st20{fill:#093F46;}
	.st21{fill:#0D8695;}
	.st22{clip-path:url(#SVGID_8_);}
	.st23{clip-path:url(#SVGID_10_);}
	.st24{opacity:0.5;fill:#FFFFFF;enable-background:new    ;}
	.st25{fill:#DCF0F2;}
	.st26{opacity:0.12;fill:#D34F45;enable-background:new    ;}
	.st27{fill:#E7B9AE;}
	.st28{fill:#FAC9BC;}
	.st29{fill:#83251D;}
	.st30{fill:#631012;}
	.st31{fill:#D34F45;}
	.st32{opacity:0.5;fill:#83251D;enable-background:new    ;}
	.st33{fill:#9C302B;}
	.st34{fill:#B73F38;}
	.st35{fill:#F06459;}
	.st36{opacity:0.94;fill:#D34F45;enable-background:new    ;}
	.st37{fill:#B84038;}
	.st38{fill:#F69F8D;}
	.st39{opacity:0.6;fill:#D34F45;enable-background:new    ;}
	.st40{fill:#D7615A;}
	.st41{fill:#451215;}
	.st42{opacity:0.7;fill:#631012;enable-background:new    ;}
	.st43{fill:#D14E45;}
	.st44{fill:#B74038;}
	.st45{fill:#E7A597;}
	.st46{fill:#BA453E;}
	.st47{fill:#481A15;}
	.st48{opacity:0.2;fill:#D9E026;enable-background:new    ;}
	.st49{opacity:0.46;fill:#C0D20F;enable-background:new    ;}
	.st50{fill:#D9E026;}
	.st51{fill:#84BE31;}
	.st52{opacity:0.56;fill:#84BE31;enable-background:new    ;}
	.st53{fill:none;}
	.st54{fill:#219E49;}
	.st55{opacity:0.37;fill:#0B8595;enable-background:new    ;}
	.st56{fill:#338266;}
	.st57{fill:#DCF0F1;}
	.st58{opacity:0.72;fill:#81D1E6;enable-background:new    ;}
	.st59{opacity:0.1;fill:#C0D20F;enable-background:new    ;}
	.st60{opacity:0.15;fill:#066D78;enable-background:new    ;}
	.st61{opacity:0.3;fill:#12A0B1;enable-background:new    ;}
	.st62{opacity:0.14;fill:#066D78;enable-background:new    ;}
	.st63{opacity:0.14;fill:#12A0B1;enable-background:new    ;}
	.st64{fill:#B97D2B;}
	.st65{fill:#D39329;}
	.st66{opacity:0.72;fill:#0B8595;enable-background:new    ;}
	.st67{fill:#5CB147;}
	.st68{fill:#A2C820;}
	.st69{opacity:0.26;}
	.st70{opacity:0.6;fill:#093F46;enable-background:new    ;}
	.st71{fill:none;stroke:#093F46;stroke-linecap:round;stroke-miterlimit:10;}
	.st72{fill:#118594;}
	.st73{opacity:0.3;fill:#FFFFFF;enable-background:new    ;}
	.st74{fill:none;stroke:#093F46;stroke-miterlimit:10;}
	.st75{clip-path:url(#SVGID_12_);}
	.st76{opacity:0.63;fill:#0B6C78;enable-background:new    ;}
	.st77{fill:#219E49;stroke:#219E49;stroke-linecap:round;stroke-linejoin:round;}
	.st78{clip-path:url(#SVGID_14_);}
	.st79{fill:#DBEFF1;}
	.st80{fill:#209D49;}
	.st81{fill:#C3DBDD;}
	.st82{fill:#5BB047;}
	.st83{fill:#BDD031;}
	.st84{fill:#83BD41;}
	.st85{fill:#086E78;}
	.st86{fill:#DDF0F2;stroke:#066D78;stroke-linecap:round;stroke-linejoin:round;}
	.st87{fill:none;stroke:#066D78;stroke-linecap:round;stroke-linejoin:round;}
	.st88{opacity:0.14;fill:none;stroke:#066D78;stroke-linecap:round;stroke-linejoin:round;enable-background:new    ;}
</style>
<g id="Group_1331" transform="translate(-359.87 -981)">
	<g id="Layer_2_1_" transform="translate(380 980.761)">
		<g id="Layer_1_1_">
			<circle id="Ellipse_235" class="st0" cx="44" cy="44.2" r="44"/>
			<g>
				<defs>
					<circle id="SVGID_1_" cx="44" cy="44.2" r="44"/>
				</defs>
				<clipPath id="SVGID_2_">
					<use xlink:href="#SVGID_1_"  style="overflow:visible;"/>
				</clipPath>
				<g id="Group_1245" class="st1">
					<path id="Path_2273" class="st2" d="M63.4,72.9c4.7-5.5,6.8-5.2,7.9-8.7c1.5-4.7-1.8-6.1-1.1-13.1c0.5-5.8,3-6.5,2.4-11
						c-0.5-3.5-2-3.5-4.2-9.2c-2.4-6.2-0.9-7.4-3.1-10.6c-2.5-3.5-6.4-5.7-10.7-6.2c-5-0.5-5.6,2.4-11.9,2.9
						c-6.9,0.5-8.8-2.6-13-0.7c-3.2,1.6-5.5,4.6-6.1,8.1c-0.5,3.6,1.6,4.5,2.2,9c0.8,6.1-2.7,7.3-2.7,13.4c0,6.4,3.9,6.5,4.8,13.8
						c1.1,8-3,11.6-0.4,15.1c1.7,2.2,3.7,1.4,10.3,3.3c10.8,3.1,12.5,7.4,16.7,6.1C58.1,83.9,56.9,80.4,63.4,72.9z"/>
					<path id="Path_2274" class="st3" d="M60,72.4L57.9,75c-3.8-2.1-3.3-11.3-3.4-16.2l2.2-2.4c0,0-7.5,3-8.2,3.1
						c-0.7,0.1-9.6-0.9-9.6-0.9l-0.2,4.1c1.1,5.2,0.3,9.9-3.4,13.3l0,0c0,0,12.9,10.1,13.2,10S60,72.4,60,72.4z"/>
					<path id="Path_2275" class="st4" d="M62.3,37.8l-0.1,1c-0.4,2.9-1.3,7.3-2.2,11.1c-1.4,4.8-4.5,9-8.8,11.6L50.1,62
						c-1.8,1-3.8,1.4-5.8,1.3c-2.8-0.2-5.5-1.4-7.4-3.5c-1.2-1.2-2.1-2.7-2.6-4.3l-0.4-1.1c-1.4-3.8-2-7.9-1.8-12
						c0,0-0.7-8.7,1.1-12.4c4.6-9.4,18.1-9.9,24.8-1.8C60.4,31.4,62.7,35.1,62.3,37.8z"/>
					<circle id="Ellipse_236" class="st2" cx="38.2" cy="38.6" r="1.2"/>
					<circle id="Ellipse_237" class="st2" cx="53.1" cy="39.9" r="1.2"/>
					<path id="Path_2276" class="st5" d="M36,34.7c1.5-0.5,3.1-0.5,4.5,0.1"/>
					<path id="Path_2277" class="st5" d="M46.9,47.6c-0.8,0.5-1.9,0.6-2.8,0.2c-0.2-0.1-1.4-0.6-1.5-1.5c-0.1-0.7,0.5-1,1.4-2.5
						c0.5-0.9,0.9-1.8,1.1-2.8c0.1-0.9,0.1-1.8-0.2-2.6"/>
					<path id="Path_2278" class="st2" d="M50.3,53.7c-1.2,2.2-3.5,3.5-5.9,3.6c-4,0-6.1-4.7-6.1-4.7C42.1,54.1,46.3,54.5,50.3,53.7z
						"/>
					<path id="Path_2279" class="st5" d="M56.6,36.6c-1.2-1-2.7-1.5-4.3-1.4"/>
					
						<linearGradient id="Path_2280_1_" gradientUnits="userSpaceOnUse" x1="1050.325" y1="1231.3782" x2="1050.308" y2="1231.8383" gradientTransform="matrix(62.3422 0 0 -33.4048 -65430.5977 41225.4062)">
						<stop  offset="0" style="stop-color:#A2C820"/>
						<stop  offset="1" style="stop-color:#C0D20F"/>
					</linearGradient>
					<path id="Path_2280" class="st6" d="M80.5,99.7c-0.9-7.9-4.1-15.4-9.3-21.5c-3-3.4-6.1-6.8-10.1-6.8c-10.8,0-8.9,7.9-14.8,7.5
						c-5-0.4-6.2-5.8-11.9-5.9c-2.4,0.1-4.6,1.1-6.3,2.7c-6.5,4.8-11.3,14.3-9.5,19.7c2.6,8.3,21.9,12,48,7.6"/>
					
						<linearGradient id="Path_2281_1_" gradientUnits="userSpaceOnUse" x1="1050.8149" y1="1230.0145" x2="1050.799" y2="1230.4456" gradientTransform="matrix(64.5875 0 0 -35.6907 -67820.4844 43991.6211)">
						<stop  offset="0" style="stop-color:#A2C820"/>
						<stop  offset="1" style="stop-color:#C0D20F"/>
					</linearGradient>
					<path id="Path_2281" class="st7" d="M45.7,105.9c-15.4,0-26.2-3.6-28.2-10.2c-1.8-5.8,2.9-15.8,10-20.9c1.9-1.8,4.4-2.8,7-2.9
						c2.7,0.1,5.3,1.3,7.2,3.3c1.2,1.4,2.9,2.3,4.8,2.5c1.9,0.2,2.6-0.7,4-2.4c2.4-3.5,6.5-5.4,10.7-5.1c4.6,0,8,3.8,11,7.2
						c5.3,6.2,8.6,14,9.5,22.1c0.1,0.6-0.4,1.2-1,1.2c-0.6,0.1-1.2-0.4-1.2-1c-0.8-7.7-4-15-9-20.9c-2.8-3.2-5.7-6.4-9.3-6.4
						c-3.6-0.4-7,1.3-9,4.3c-1.2,2.1-3.5,3.3-5.9,3.2c-2.3-0.3-4.4-1.4-6-3.1c-1.5-1.6-3.6-2.6-5.8-2.8c-2.1,0.1-4.1,1-5.7,2.4
						C22.6,81,18.1,90.1,19.6,95c2.1,6.8,19.3,11.4,46.8,6.8c0.6-0.1,1.2,0.3,1.3,0.9c0.1,0.6-0.3,1.2-0.9,1.3l0,0
						C59.8,105.2,52.8,105.8,45.7,105.9L45.7,105.9z"/>
					<path id="Path_2282" class="st8" d="M54,22.7c-0.2,1.8-5.8,6.1-10,7C38,31,27.7,29.9,25.8,26.1c-1.1-2.1,1.5-3.1,1.8-3.5
						c4.6-5.9,14.8-4.5,20.5-2.3C49.3,20.8,54.1,20.7,54,22.7z"/>
					<path id="Path_2283" class="st8" d="M51,22.2c-0.7,1.1,1.6,3.7,4.9,7.5c3.1,3.5,9.6,6.1,11.5,5c1.6-0.9-0.4-3.4-3.6-7.5
						C59.7,22.1,52,20.6,51,22.2z"/>
				</g>
			</g>
		</g>
	</g>
	<g id="Group_1248" transform="translate(0 22)">
		<path id="Path_2285" class="st3" d="M363.8,992.7h32.3v18.6h-32.3V992.7z"/>
		<g id="Group_1246" transform="translate(359.87 991.496)">
			<path id="Path_1756" class="st2" d="M35.8,0H4.4C3.6,0,2.9,0.7,2.9,1.5l0,0V2H2.4C1.1,2,0,3,0,4.3v17.2c0,1.3,1.1,2.4,2.4,2.4h30
				c1.3,0,2.4-1.1,2.4-2.4V21h1c0.8,0,1.5-0.7,1.5-1.5v-18C37.3,0.7,36.6,0,35.8,0z M30.1,19.1H10.2c-0.1-2.9-2.4-5.3-5.3-5.5V6.8
				C7.5,6.6,9.7,4.6,10,1.9h20.1c0.4,2.7,2.6,4.7,5.3,4.9v6.8C32.5,13.8,30.2,16.1,30.1,19.1z M4.9,15.5c1.9,0.2,3.3,1.7,3.4,3.5
				H4.9V15.5z M35.4,4.9c-1.6-0.1-3-1.3-3.4-2.9h3.4V4.9z M8.1,1.9C7.8,3.5,6.5,4.7,4.9,4.8V1.9H8.1z M32,19.1
				c0.1-1.9,1.5-3.4,3.4-3.5v3.5H32z"/>
			<path id="Path_1757" class="st2" d="M20.1,2.9c-3.1,0-5.7,3.4-5.7,7.6s2.5,7.6,5.7,7.6s5.7-3.4,5.7-7.6S23.3,2.9,20.1,2.9z
				 M20.1,16.1c-2,0-3.8-2.6-3.8-5.7s1.7-5.7,3.8-5.7s3.8,2.6,3.8,5.7S22.2,16.1,20.1,16.1z"/>
			<path id="Path_1758" class="st2" d="M20.8,7.5V7.1c0-0.2-0.1-0.3-0.2-0.4c-0.1-0.1-0.3-0.2-0.4-0.2c-0.2,0-0.3,0.1-0.4,0.2
				c-0.1,0.1-0.2,0.3-0.2,0.4v0.4c-0.5,0.1-0.9,0.3-1.3,0.7c-0.3,0.3-0.5,0.7-0.5,1.2c0,0.3,0.1,0.7,0.3,0.9
				c0.2,0.2,0.4,0.4,0.7,0.5c0.3,0.1,0.7,0.2,1,0.3c0.3,0.1,0.5,0.1,0.6,0.2c0.1,0,0.2,0.1,0.3,0.2c0.1,0.1,0.1,0.2,0.1,0.3
				c0,0.2-0.1,0.4-0.2,0.4c-0.2,0.1-0.4,0.2-0.7,0.1c-0.2,0-0.5,0-0.7-0.1c-0.2-0.1-0.5-0.2-0.7-0.3c-0.1-0.1-0.2-0.1-0.3-0.1
				c-0.1,0-0.1,0-0.2,0c-0.1,0-0.3,0.1-0.4,0.2c-0.1,0.1-0.2,0.3-0.1,0.4c0,0.1,0,0.2,0.1,0.3c0.1,0.1,0.1,0.2,0.2,0.2
				c0.5,0.3,1,0.5,1.6,0.6v0.4c0,0.2,0.1,0.3,0.2,0.4c0.1,0.1,0.3,0.2,0.4,0.2c0.2,0,0.3-0.1,0.4-0.2c0.1-0.1,0.2-0.3,0.2-0.4v-0.4
				c0.5-0.1,0.9-0.3,1.3-0.6c0.3-0.3,0.5-0.7,0.5-1.2c0-0.3-0.1-0.7-0.3-1c-0.2-0.2-0.4-0.4-0.7-0.5c-0.3-0.1-0.7-0.2-1-0.3
				c-0.3-0.1-0.6-0.2-0.9-0.3c-0.2-0.1-0.3-0.2-0.3-0.4c0-0.2,0.1-0.3,0.2-0.4c0.2-0.1,0.4-0.2,0.6-0.2c0.2,0,0.3,0,0.5,0.1
				c0.2,0,0.3,0.1,0.4,0.2C21.3,8.9,21.4,9,21.5,9c0.1,0,0.2,0.1,0.3,0.1c0.1,0,0.1,0,0.2,0c0.1,0,0.3-0.1,0.4-0.2
				c0.1-0.1,0.2-0.3,0.2-0.4c0-0.1,0-0.2-0.1-0.3c-0.1-0.1-0.1-0.2-0.2-0.2C21.7,7.7,21.3,7.5,20.8,7.5z"/>
		</g>
	</g>
</g>
</svg>
